<mxfile host="65bd71144e" pages="3">
    <diagram name="HPS Solution Architect" id="sB-B5Ay0uHwZ2xGvSB_y">
        <mxGraphModel dx="1487" dy="1168" grid="0" gridSize="10" guides="1" tooltips="1" connect="1" arrows="1" fold="1" page="0" pageScale="1" pageWidth="1169" pageHeight="827" math="0" shadow="0">
            <root>
                <mxCell id="0"/>
                <mxCell id="1" parent="0"/>
                <mxCell id="boJUwYoh4yeBExDH3rtG-33" value="GraphQL" style="text;html=1;strokeColor=none;fillColor=none;align=center;verticalAlign=middle;whiteSpace=wrap;rounded=0;" parent="1" vertex="1">
                    <mxGeometry x="616" y="663" width="93" height="30" as="geometry"/>
                </mxCell>
                <mxCell id="boJUwYoh4yeBExDH3rtG-38" value="User Pool" style="text;html=1;strokeColor=none;fillColor=none;align=center;verticalAlign=middle;whiteSpace=wrap;rounded=0;" parent="1" vertex="1">
                    <mxGeometry x="756.5" y="667" width="93" height="30" as="geometry"/>
                </mxCell>
                <mxCell id="YiyEfv_yIobnPNU3HYFT-1" value="" style="rounded=0;whiteSpace=wrap;html=1;shadow=0;labelBackgroundColor=#FFD966;sketch=0;fontColor=#FFD966;fillColor=none;gradientColor=none;dashed=1;dashPattern=8 8;strokeWidth=2;opacity=30;" vertex="1" parent="1">
                    <mxGeometry x="434.5" y="-184" width="381" height="536" as="geometry"/>
                </mxCell>
                <mxCell id="YiyEfv_yIobnPNU3HYFT-2" style="edgeStyle=orthogonalEdgeStyle;rounded=0;orthogonalLoop=1;jettySize=auto;html=1;exitX=1;exitY=0.5;exitDx=0;exitDy=0;entryX=0.5;entryY=1;entryDx=0;entryDy=0;fillColor=#ffff88;strokeColor=#FBDA0C;strokeWidth=2;fontFamily=Lora;fontSource=https%3A%2F%2Ffonts.googleapis.com%2Fcss%3Ffamily%3DLora;fontSize=14;fontStyle=0" edge="1" parent="1" source="YiyEfv_yIobnPNU3HYFT-3" target="YiyEfv_yIobnPNU3HYFT-9">
                    <mxGeometry relative="1" as="geometry"/>
                </mxCell>
                <mxCell id="YiyEfv_yIobnPNU3HYFT-3" value="Consumer Interface (Web / Mobile)" style="rounded=1;whiteSpace=wrap;html=1;shadow=1;fillColor=#eeeeee;strokeColor=#36393d;fontFamily=Lora;fontSource=https%3A%2F%2Ffonts.googleapis.com%2Fcss%3Ffamily%3DLora;fontSize=14;fontStyle=0" vertex="1" parent="1">
                    <mxGeometry x="86" y="238" width="120" height="60" as="geometry"/>
                </mxCell>
                <mxCell id="YiyEfv_yIobnPNU3HYFT-4" style="edgeStyle=orthogonalEdgeStyle;rounded=0;orthogonalLoop=1;jettySize=auto;html=1;exitX=1;exitY=0.5;exitDx=0;exitDy=0;entryX=0;entryY=0.5;entryDx=0;entryDy=0;strokeWidth=2;fontFamily=Lora;fontSource=https%3A%2F%2Ffonts.googleapis.com%2Fcss%3Ffamily%3DLora;fontSize=14;fontStyle=0;startArrow=none;startFill=0;strokeColor=#FBDA0C;" edge="1" parent="1" source="YiyEfv_yIobnPNU3HYFT-9" target="YiyEfv_yIobnPNU3HYFT-11">
                    <mxGeometry relative="1" as="geometry"/>
                </mxCell>
                <mxCell id="YiyEfv_yIobnPNU3HYFT-5" style="edgeStyle=orthogonalEdgeStyle;rounded=0;orthogonalLoop=1;jettySize=auto;html=1;exitX=1;exitY=0.75;exitDx=0;exitDy=0;entryX=0;entryY=0.5;entryDx=0;entryDy=0;fillColor=#ffff88;strokeColor=#FBDA0C;strokeWidth=2;fontFamily=Lora;fontSource=https%3A%2F%2Ffonts.googleapis.com%2Fcss%3Ffamily%3DLora;fontSize=14;fontStyle=0" edge="1" parent="1" source="YiyEfv_yIobnPNU3HYFT-9" target="YiyEfv_yIobnPNU3HYFT-14">
                    <mxGeometry relative="1" as="geometry"/>
                </mxCell>
                <mxCell id="YiyEfv_yIobnPNU3HYFT-6" style="edgeStyle=orthogonalEdgeStyle;rounded=0;orthogonalLoop=1;jettySize=auto;html=1;exitX=1;exitY=0.25;exitDx=0;exitDy=0;entryX=0;entryY=0.5;entryDx=0;entryDy=0;fillColor=#b1ddf0;strokeColor=#0057AD;strokeWidth=2;fontFamily=Lora;fontSource=https%3A%2F%2Ffonts.googleapis.com%2Fcss%3Ffamily%3DLora;fontSize=14;fontStyle=0" edge="1" parent="1" source="YiyEfv_yIobnPNU3HYFT-9" target="YiyEfv_yIobnPNU3HYFT-22">
                    <mxGeometry relative="1" as="geometry"/>
                </mxCell>
                <mxCell id="YiyEfv_yIobnPNU3HYFT-7" style="edgeStyle=orthogonalEdgeStyle;rounded=0;orthogonalLoop=1;jettySize=auto;html=1;exitX=1;exitY=0;exitDx=0;exitDy=0;entryX=0;entryY=0.5;entryDx=0;entryDy=0;fillColor=#b1ddf0;strokeColor=#0057AD;strokeWidth=2;fontFamily=Lora;fontSource=https%3A%2F%2Ffonts.googleapis.com%2Fcss%3Ffamily%3DLora;fontSize=14;fontStyle=0" edge="1" parent="1" source="YiyEfv_yIobnPNU3HYFT-9" target="YiyEfv_yIobnPNU3HYFT-26">
                    <mxGeometry relative="1" as="geometry"/>
                </mxCell>
                <mxCell id="YiyEfv_yIobnPNU3HYFT-8" style="edgeStyle=orthogonalEdgeStyle;rounded=0;orthogonalLoop=1;jettySize=auto;html=1;exitX=0.75;exitY=0;exitDx=0;exitDy=0;entryX=0;entryY=0.5;entryDx=0;entryDy=0;fillColor=#b1ddf0;strokeColor=#0057AD;strokeWidth=2;fontFamily=Lora;fontSource=https%3A%2F%2Ffonts.googleapis.com%2Fcss%3Ffamily%3DLora;fontSize=14;fontStyle=0" edge="1" parent="1" source="YiyEfv_yIobnPNU3HYFT-9" target="YiyEfv_yIobnPNU3HYFT-28">
                    <mxGeometry relative="1" as="geometry"/>
                </mxCell>
                <mxCell id="YiyEfv_yIobnPNU3HYFT-9" value="API Gateway" style="rounded=1;whiteSpace=wrap;html=1;shadow=1;fillColor=#eeeeee;strokeColor=#36393d;fontFamily=Lora;fontSource=https%3A%2F%2Ffonts.googleapis.com%2Fcss%3Ffamily%3DLora;fontSize=14;fontStyle=0" vertex="1" parent="1">
                    <mxGeometry x="268" y="142" width="120" height="60" as="geometry"/>
                </mxCell>
                <mxCell id="YiyEfv_yIobnPNU3HYFT-10" style="edgeStyle=orthogonalEdgeStyle;rounded=0;orthogonalLoop=1;jettySize=auto;html=1;exitX=1;exitY=0.5;exitDx=0;exitDy=0;entryX=0;entryY=0.5;entryDx=0;entryDy=0;strokeWidth=2;fontFamily=Lora;fontSource=https%3A%2F%2Ffonts.googleapis.com%2Fcss%3Ffamily%3DLora;fontSize=14;fontStyle=0;strokeColor=#FBDA0C;" edge="1" parent="1" source="YiyEfv_yIobnPNU3HYFT-11" target="YiyEfv_yIobnPNU3HYFT-12">
                    <mxGeometry relative="1" as="geometry"/>
                </mxCell>
                <mxCell id="YiyEfv_yIobnPNU3HYFT-11" value="Retrive Template" style="rounded=1;whiteSpace=wrap;html=1;shadow=1;fillColor=#eeeeee;strokeColor=#36393d;fontFamily=Lora;fontSource=https%3A%2F%2Ffonts.googleapis.com%2Fcss%3Ffamily%3DLora;fontSize=14;fontStyle=0" vertex="1" parent="1">
                    <mxGeometry x="558" y="142" width="120" height="60" as="geometry"/>
                </mxCell>
                <mxCell id="YiyEfv_yIobnPNU3HYFT-12" value="Template Store" style="shape=datastore;whiteSpace=wrap;html=1;shadow=1;fillColor=#eeeeee;strokeColor=#36393d;fontFamily=Lora;fontSource=https%3A%2F%2Ffonts.googleapis.com%2Fcss%3Ffamily%3DLora;fontSize=14;fontStyle=0" vertex="1" parent="1">
                    <mxGeometry x="841" y="142" width="76" height="60" as="geometry"/>
                </mxCell>
                <mxCell id="YiyEfv_yIobnPNU3HYFT-13" style="edgeStyle=orthogonalEdgeStyle;rounded=0;orthogonalLoop=1;jettySize=auto;html=1;exitX=1;exitY=0.5;exitDx=0;exitDy=0;fillColor=#ffff88;strokeColor=#FBDA0C;strokeWidth=2;fontFamily=Lora;fontSource=https%3A%2F%2Ffonts.googleapis.com%2Fcss%3Ffamily%3DLora;fontSize=14;fontStyle=0" edge="1" parent="1" source="YiyEfv_yIobnPNU3HYFT-14" target="YiyEfv_yIobnPNU3HYFT-16">
                    <mxGeometry relative="1" as="geometry"/>
                </mxCell>
                <mxCell id="YiyEfv_yIobnPNU3HYFT-14" value="Update Survey Data" style="rounded=1;whiteSpace=wrap;html=1;shadow=1;fillColor=#eeeeee;strokeColor=#36393d;fontFamily=Lora;fontSource=https%3A%2F%2Ffonts.googleapis.com%2Fcss%3Ffamily%3DLora;fontSize=14;fontStyle=0" vertex="1" parent="1">
                    <mxGeometry x="558" y="233" width="120" height="60" as="geometry"/>
                </mxCell>
                <mxCell id="YiyEfv_yIobnPNU3HYFT-15" style="edgeStyle=orthogonalEdgeStyle;rounded=0;orthogonalLoop=1;jettySize=auto;html=1;entryX=0;entryY=0.5;entryDx=0;entryDy=0;fillColor=#ffff88;strokeColor=#FBDA0C;strokeWidth=2;fontFamily=Lora;fontSource=https%3A%2F%2Ffonts.googleapis.com%2Fcss%3Ffamily%3DLora;fontSize=14;fontStyle=0;startArrow=classic;startFill=1;endArrow=none;endFill=0;" edge="1" parent="1" source="YiyEfv_yIobnPNU3HYFT-16" target="YiyEfv_yIobnPNU3HYFT-17">
                    <mxGeometry relative="1" as="geometry"/>
                </mxCell>
                <mxCell id="YiyEfv_yIobnPNU3HYFT-16" value="Queue" style="outlineConnect=0;strokeColor=#36393d;fillColor=#eeeeee;dashed=0;verticalLabelPosition=bottom;verticalAlign=top;align=center;html=1;fontSize=14;fontStyle=0;aspect=fixed;shape=mxgraph.aws4.resourceIcon;resIcon=mxgraph.aws4.queue;shadow=1;fontFamily=Lora;fontSource=https%3A%2F%2Ffonts.googleapis.com%2Fcss%3Ffamily%3DLora;" vertex="1" parent="1">
                    <mxGeometry x="841" y="233" width="60" height="60" as="geometry"/>
                </mxCell>
                <mxCell id="YiyEfv_yIobnPNU3HYFT-17" value="Survey Data Store" style="shape=datastore;whiteSpace=wrap;html=1;shadow=1;fillColor=#eeeeee;strokeColor=#36393d;fontFamily=Lora;fontSource=https%3A%2F%2Ffonts.googleapis.com%2Fcss%3Ffamily%3DLora;fontSize=14;fontStyle=0" vertex="1" parent="1">
                    <mxGeometry x="1017" y="227" width="78" height="72" as="geometry"/>
                </mxCell>
                <mxCell id="YiyEfv_yIobnPNU3HYFT-18" style="edgeStyle=orthogonalEdgeStyle;rounded=0;orthogonalLoop=1;jettySize=auto;html=1;exitX=1;exitY=0.5;exitDx=0;exitDy=0;entryX=0.5;entryY=0;entryDx=0;entryDy=0;fillColor=#b1ddf0;strokeColor=#0057AD;strokeWidth=2;fontFamily=Lora;fontSource=https%3A%2F%2Ffonts.googleapis.com%2Fcss%3Ffamily%3DLora;fontSize=14;fontStyle=0" edge="1" parent="1" source="YiyEfv_yIobnPNU3HYFT-20" target="YiyEfv_yIobnPNU3HYFT-9">
                    <mxGeometry relative="1" as="geometry"/>
                </mxCell>
                <mxCell id="YiyEfv_yIobnPNU3HYFT-19" style="edgeStyle=orthogonalEdgeStyle;rounded=0;orthogonalLoop=1;jettySize=auto;html=1;exitX=0.5;exitY=0;exitDx=0;exitDy=0;entryX=0;entryY=0.5;entryDx=0;entryDy=0;fillColor=#b1ddf0;strokeColor=#0057AD;strokeWidth=2;fontFamily=Lora;fontSource=https%3A%2F%2Ffonts.googleapis.com%2Fcss%3Ffamily%3DLora;fontSize=14;fontStyle=0" edge="1" parent="1" source="YiyEfv_yIobnPNU3HYFT-20" target="YiyEfv_yIobnPNU3HYFT-23">
                    <mxGeometry relative="1" as="geometry"/>
                </mxCell>
                <mxCell id="YiyEfv_yIobnPNU3HYFT-20" value="Admin Interface (Web / Mobile)" style="rounded=1;whiteSpace=wrap;html=1;shadow=1;fillColor=#eeeeee;strokeColor=#36393d;fontFamily=Lora;fontSource=https%3A%2F%2Ffonts.googleapis.com%2Fcss%3Ffamily%3DLora;fontSize=14;fontStyle=0" vertex="1" parent="1">
                    <mxGeometry x="86" y="26" width="120" height="60" as="geometry"/>
                </mxCell>
                <mxCell id="YiyEfv_yIobnPNU3HYFT-21" style="edgeStyle=orthogonalEdgeStyle;rounded=0;orthogonalLoop=1;jettySize=auto;html=1;exitX=1;exitY=0.5;exitDx=0;exitDy=0;entryX=0.5;entryY=0;entryDx=0;entryDy=0;fillColor=#b1ddf0;strokeColor=#0057AD;strokeWidth=2;fontFamily=Lora;fontSource=https%3A%2F%2Ffonts.googleapis.com%2Fcss%3Ffamily%3DLora;fontSize=14;fontStyle=0" edge="1" parent="1" source="YiyEfv_yIobnPNU3HYFT-22" target="YiyEfv_yIobnPNU3HYFT-12">
                    <mxGeometry relative="1" as="geometry"/>
                </mxCell>
                <mxCell id="YiyEfv_yIobnPNU3HYFT-22" value="Template Management" style="rounded=1;whiteSpace=wrap;html=1;shadow=1;fillColor=#eeeeee;strokeColor=#36393d;fontFamily=Lora;fontSource=https%3A%2F%2Ffonts.googleapis.com%2Fcss%3Ffamily%3DLora;fontSize=14;fontStyle=0" vertex="1" parent="1">
                    <mxGeometry x="558" y="47" width="120" height="60" as="geometry"/>
                </mxCell>
                <mxCell id="YiyEfv_yIobnPNU3HYFT-23" value="Integrated Identity &amp;amp; Access Management Solution" style="rounded=1;whiteSpace=wrap;html=1;shadow=1;fillColor=#eeeeee;strokeColor=#36393d;fontFamily=Lora;fontSource=https%3A%2F%2Ffonts.googleapis.com%2Fcss%3Ffamily%3DLora;fontSize=14;fontStyle=0" vertex="1" parent="1">
                    <mxGeometry x="183" y="-148" width="120" height="80" as="geometry"/>
                </mxCell>
                <mxCell id="YiyEfv_yIobnPNU3HYFT-24" value="Consumer Profile DB" style="shape=datastore;whiteSpace=wrap;html=1;shadow=1;fillColor=#eeeeee;strokeColor=#36393d;fontFamily=Lora;fontSource=https%3A%2F%2Ffonts.googleapis.com%2Fcss%3Ffamily%3DLora;fontSize=14;fontStyle=0" vertex="1" parent="1">
                    <mxGeometry x="841" y="-39" width="72" height="60" as="geometry"/>
                </mxCell>
                <mxCell id="YiyEfv_yIobnPNU3HYFT-25" style="edgeStyle=orthogonalEdgeStyle;rounded=0;orthogonalLoop=1;jettySize=auto;html=1;exitX=1;exitY=0.5;exitDx=0;exitDy=0;entryX=0;entryY=0.5;entryDx=0;entryDy=0;fillColor=#b1ddf0;strokeColor=#0057AD;strokeWidth=2;fontFamily=Lora;fontSource=https%3A%2F%2Ffonts.googleapis.com%2Fcss%3Ffamily%3DLora;fontSize=14;fontStyle=0" edge="1" parent="1" source="YiyEfv_yIobnPNU3HYFT-26" target="YiyEfv_yIobnPNU3HYFT-24">
                    <mxGeometry relative="1" as="geometry"/>
                </mxCell>
                <mxCell id="YiyEfv_yIobnPNU3HYFT-26" value="Fetch Consumer Profile Details" style="rounded=1;whiteSpace=wrap;html=1;shadow=1;fillColor=#eeeeee;strokeColor=#36393d;fontFamily=Lora;fontSource=https%3A%2F%2Ffonts.googleapis.com%2Fcss%3Ffamily%3DLora;fontSize=14;fontStyle=0" vertex="1" parent="1">
                    <mxGeometry x="558" y="-39" width="120" height="60" as="geometry"/>
                </mxCell>
                <mxCell id="YiyEfv_yIobnPNU3HYFT-27" style="edgeStyle=orthogonalEdgeStyle;rounded=0;orthogonalLoop=1;jettySize=auto;html=1;exitX=1;exitY=0.5;exitDx=0;exitDy=0;fillColor=#b1ddf0;strokeColor=#0057AD;strokeWidth=2;fontFamily=Lora;fontSource=https%3A%2F%2Ffonts.googleapis.com%2Fcss%3Ffamily%3DLora;fontSize=14;fontStyle=0" edge="1" parent="1" source="YiyEfv_yIobnPNU3HYFT-28" target="YiyEfv_yIobnPNU3HYFT-29">
                    <mxGeometry relative="1" as="geometry"/>
                </mxCell>
                <mxCell id="YiyEfv_yIobnPNU3HYFT-28" value="Send Email" style="rounded=1;whiteSpace=wrap;html=1;shadow=1;fillColor=#eeeeee;strokeColor=#36393d;fontFamily=Lora;fontSource=https%3A%2F%2Ffonts.googleapis.com%2Fcss%3Ffamily%3DLora;fontSize=14;fontStyle=0" vertex="1" parent="1">
                    <mxGeometry x="558" y="-128" width="120" height="60" as="geometry"/>
                </mxCell>
                <mxCell id="YiyEfv_yIobnPNU3HYFT-29" value="" style="outlineConnect=0;fontColor=#232F3E;gradientColor=none;fillColor=#808080;strokeColor=none;dashed=0;verticalLabelPosition=bottom;verticalAlign=top;align=center;html=1;fontSize=14;fontStyle=0;aspect=fixed;pointerEvents=1;shape=mxgraph.aws4.email_2;shadow=1;fontFamily=Lora;fontSource=https%3A%2F%2Ffonts.googleapis.com%2Fcss%3Ffamily%3DLora;" vertex="1" parent="1">
                    <mxGeometry x="832" y="-122.5" width="78" height="49" as="geometry"/>
                </mxCell>
                <mxCell id="YiyEfv_yIobnPNU3HYFT-30" style="edgeStyle=orthogonalEdgeStyle;rounded=0;orthogonalLoop=1;jettySize=auto;html=1;exitX=0.96;exitY=0.65;exitDx=0;exitDy=0;exitPerimeter=0;entryX=0;entryY=0.5;entryDx=0;entryDy=0;fontColor=#FFD966;fillColor=#fad7ac;strokeColor=#FBDA0C;strokeWidth=2;" edge="1" parent="1" source="YiyEfv_yIobnPNU3HYFT-31" target="YiyEfv_yIobnPNU3HYFT-3">
                    <mxGeometry relative="1" as="geometry"/>
                </mxCell>
                <mxCell id="YiyEfv_yIobnPNU3HYFT-31" value="" style="pointerEvents=1;shadow=1;dashed=0;html=1;strokeColor=#36393d;labelPosition=center;verticalLabelPosition=bottom;verticalAlign=top;align=center;fillColor=#FBDA0C;shape=mxgraph.mscae.intune.user_group;" vertex="1" parent="1">
                    <mxGeometry x="-55" y="244" width="57" height="38" as="geometry"/>
                </mxCell>
                <mxCell id="YiyEfv_yIobnPNU3HYFT-32" style="edgeStyle=orthogonalEdgeStyle;rounded=0;orthogonalLoop=1;jettySize=auto;html=1;fontColor=#FFD966;fillColor=#b1ddf0;strokeColor=#0057AD;strokeWidth=2;" edge="1" parent="1" source="YiyEfv_yIobnPNU3HYFT-33" target="YiyEfv_yIobnPNU3HYFT-20">
                    <mxGeometry relative="1" as="geometry"/>
                </mxCell>
                <mxCell id="YiyEfv_yIobnPNU3HYFT-33" value="" style="shadow=1;dashed=0;html=1;strokeColor=none;fillColor=#0057AD;labelPosition=center;verticalLabelPosition=bottom;verticalAlign=top;align=center;outlineConnect=0;shape=mxgraph.veeam.portal_admin;" vertex="1" parent="1">
                    <mxGeometry x="-42" y="31.6" width="44.4" height="48.8" as="geometry"/>
                </mxCell>
                <mxCell id="YiyEfv_yIobnPNU3HYFT-34" value="Rest / GraphQL APIs" style="text;html=1;strokeColor=none;fillColor=none;align=center;verticalAlign=middle;whiteSpace=wrap;rounded=0;fontColor=#000000;fontFamily=Lora;fontSource=https%3A%2F%2Ffonts.googleapis.com%2Fcss%3Ffamily%3DLora;fontSize=14;fontStyle=0" vertex="1" parent="1">
                    <mxGeometry x="568" y="361" width="106" height="30" as="geometry"/>
                </mxCell>
                <mxCell id="YiyEfv_yIobnPNU3HYFT-35" value="Authenticate &lt;br&gt;Admin User" style="text;html=1;align=center;verticalAlign=middle;resizable=0;points=[];autosize=1;strokeColor=none;fillColor=none;fontSize=14;fontFamily=Lora;fontColor=#000000;" vertex="1" parent="1">
                    <mxGeometry x="142" y="-52" width="102" height="46" as="geometry"/>
                </mxCell>
                <mxCell id="YiyEfv_yIobnPNU3HYFT-36" value="Send Consumer &lt;br&gt;Survey Link" style="text;html=1;align=center;verticalAlign=middle;resizable=0;points=[];autosize=1;strokeColor=none;fillColor=none;fontSize=14;fontFamily=Lora;fontColor=#000000;" vertex="1" parent="1">
                    <mxGeometry x="209" y="61" width="122" height="46" as="geometry"/>
                </mxCell>
                <mxCell id="YiyEfv_yIobnPNU3HYFT-37" value="Fill Consumer &lt;br&gt;Survey Form" style="text;html=1;align=center;verticalAlign=middle;resizable=0;points=[];autosize=1;strokeColor=none;fillColor=none;fontSize=14;fontFamily=Lora;fontColor=#000000;" vertex="1" parent="1">
                    <mxGeometry x="216" y="223" width="108" height="46" as="geometry"/>
                </mxCell>
                <mxCell id="YiyEfv_yIobnPNU3HYFT-38" value="Fill Consumer &lt;br&gt;Survey Form" style="text;html=1;align=center;verticalAlign=middle;resizable=0;points=[];autosize=1;strokeColor=none;fillColor=none;fontSize=14;fontFamily=Lora;fontColor=#000000;" vertex="1" parent="1">
                    <mxGeometry x="433" y="269" width="108" height="46" as="geometry"/>
                </mxCell>
                <mxCell id="YiyEfv_yIobnPNU3HYFT-39" value="Publish Survey &lt;br&gt;Data in Queue" style="text;html=1;align=center;verticalAlign=middle;resizable=0;points=[];autosize=1;strokeColor=none;fillColor=none;fontSize=14;fontFamily=Lora;fontColor=#000000;" vertex="1" parent="1">
                    <mxGeometry x="682" y="267" width="114" height="46" as="geometry"/>
                </mxCell>
                <mxCell id="YiyEfv_yIobnPNU3HYFT-40" value="Consume HPS &lt;br&gt;Survey &lt;br&gt;Data from &lt;br&gt;Queue (Batch/ &lt;br&gt;Real-Time)" style="text;html=1;align=center;verticalAlign=middle;resizable=0;points=[];autosize=1;strokeColor=none;fillColor=none;fontSize=14;fontFamily=Lora;fontColor=#000000;" vertex="1" parent="1">
                    <mxGeometry x="902" y="275" width="115" height="96" as="geometry"/>
                </mxCell>
                <mxCell id="YiyEfv_yIobnPNU3HYFT-41" value="Request&lt;br&gt;survey &lt;br&gt;template sent &lt;br&gt;by Admin" style="text;html=1;align=center;verticalAlign=middle;resizable=0;points=[];autosize=1;strokeColor=none;fillColor=none;fontSize=14;fontFamily=Lora;fontColor=#000000;" vertex="1" parent="1">
                    <mxGeometry x="461" y="166" width="107" height="79" as="geometry"/>
                </mxCell>
                <mxCell id="YiyEfv_yIobnPNU3HYFT-42" value="Retrieve &lt;br&gt;template &lt;br&gt;created by&amp;nbsp;&lt;br&gt;&amp;nbsp;Admin" style="text;html=1;align=center;verticalAlign=middle;resizable=0;points=[];autosize=1;strokeColor=none;fillColor=none;fontSize=14;fontFamily=Lora;fontColor=#000000;" vertex="1" parent="1">
                    <mxGeometry x="691" y="168" width="90" height="79" as="geometry"/>
                </mxCell>
                <mxCell id="YiyEfv_yIobnPNU3HYFT-43" value="Save Survey&lt;br&gt;&amp;nbsp;Template" style="text;html=1;align=center;verticalAlign=middle;resizable=0;points=[];autosize=1;strokeColor=none;fillColor=none;fontSize=14;fontFamily=Lora;fontColor=#000000;" vertex="1" parent="1">
                    <mxGeometry x="686" y="77" width="96" height="46" as="geometry"/>
                </mxCell>
                <mxCell id="YiyEfv_yIobnPNU3HYFT-44" value="Create/ &lt;br&gt;Update/ &lt;br&gt;Delete &lt;br&gt;Template" style="text;html=1;align=center;verticalAlign=middle;resizable=0;points=[];autosize=1;strokeColor=none;fillColor=none;fontSize=14;fontFamily=Lora;fontColor=#000000;" vertex="1" parent="1">
                    <mxGeometry x="481" y="73.4" width="79" height="79" as="geometry"/>
                </mxCell>
                <mxCell id="YiyEfv_yIobnPNU3HYFT-45" value="Select&amp;nbsp;eligible&lt;br&gt;consumers &lt;br&gt;for Survey" style="text;html=1;align=center;verticalAlign=middle;resizable=0;points=[];autosize=1;strokeColor=none;fillColor=none;fontSize=14;fontFamily=Lora;fontColor=#000000;" vertex="1" parent="1">
                    <mxGeometry x="443" y="-11" width="108" height="62" as="geometry"/>
                </mxCell>
                <mxCell id="YiyEfv_yIobnPNU3HYFT-46" value="Retrive Consumer &lt;br&gt;Information" style="text;html=1;align=center;verticalAlign=middle;resizable=0;points=[];autosize=1;strokeColor=none;fillColor=none;fontSize=14;fontFamily=Lora;fontColor=#000000;" vertex="1" parent="1">
                    <mxGeometry x="678" y="-9" width="135" height="46" as="geometry"/>
                </mxCell>
                <mxCell id="YiyEfv_yIobnPNU3HYFT-47" value="Send Email to &lt;br&gt;eligible consumers" style="text;html=1;align=center;verticalAlign=middle;resizable=0;points=[];autosize=1;strokeColor=none;fillColor=none;fontSize=14;fontFamily=Lora;fontColor=#000000;" vertex="1" parent="1">
                    <mxGeometry x="434" y="-84" width="140" height="46" as="geometry"/>
                </mxCell>
                <mxCell id="YiyEfv_yIobnPNU3HYFT-48" style="edgeStyle=orthogonalEdgeStyle;rounded=0;orthogonalLoop=1;jettySize=auto;html=1;strokeColor=#FBDA0C;strokeWidth=2;fontFamily=Lora;fontSource=https%3A%2F%2Ffonts.googleapis.com%2Fcss%3Ffamily%3DLora;fontSize=14;fontColor=#000000;startArrow=none;startFill=0;endArrow=classic;endFill=1;" edge="1" parent="1" source="YiyEfv_yIobnPNU3HYFT-49">
                    <mxGeometry relative="1" as="geometry">
                        <mxPoint x="873.8888888888887" y="316.77777777777806" as="targetPoint"/>
                    </mxGeometry>
                </mxCell>
                <mxCell id="YiyEfv_yIobnPNU3HYFT-49" value="Other Channels" style="rounded=1;whiteSpace=wrap;html=1;shadow=1;fillColor=#eeeeee;strokeColor=#36393d;fontFamily=Lora;fontSource=https%3A%2F%2Ffonts.googleapis.com%2Fcss%3Ffamily%3DLora;fontSize=14;fontStyle=0" vertex="1" parent="1">
                    <mxGeometry x="86" y="499" width="120" height="60" as="geometry"/>
                </mxCell>
                <mxCell id="YiyEfv_yIobnPNU3HYFT-50" value="Send Consumer Behaviour Data (Eg. Page Click, Mouse Movement, Browser Cookies etc. )" style="text;html=1;strokeColor=none;fillColor=none;align=center;verticalAlign=middle;whiteSpace=wrap;rounded=0;fontSize=14;fontFamily=Lora;fontColor=#000000;" vertex="1" parent="1">
                    <mxGeometry x="406" y="467" width="357" height="49" as="geometry"/>
                </mxCell>
                <mxCell id="YiyEfv_yIobnPNU3HYFT-51" value="&lt;h1&gt;&lt;font color=&quot;#808080&quot;&gt;HPS Solution Architecture&amp;nbsp;&lt;/font&gt;&lt;/h1&gt;" style="text;html=1;strokeColor=none;fillColor=default;spacing=5;spacingTop=-20;whiteSpace=wrap;overflow=hidden;rounded=0;fontSize=14;fontFamily=Lora;fontColor=#000000;gradientColor=none;fontStyle=4" vertex="1" parent="1">
                    <mxGeometry x="433" y="-359" width="363" height="72" as="geometry"/>
                </mxCell>
            </root>
        </mxGraphModel>
    </diagram>
    <diagram id="qyUxgyK1aYmj1tfJbsxO" name="admin-flow-diagram">
        <mxGraphModel dx="1778" dy="1091" grid="0" gridSize="10" guides="1" tooltips="1" connect="1" arrows="1" fold="1" page="0" pageScale="1" pageWidth="1169" pageHeight="827" math="0" shadow="0">
            <root>
                <mxCell id="0"/>
                <mxCell id="1" parent="0"/>
                <UserObject label="" mermaidData="{&#10;  &quot;data&quot;: &quot;sequenceDiagram\n    autonumber\n    actor adm as Admin\n    participant aui as Admin Interface\n    participant auth as IAM Service\n    participant sts as Survey Template Store\n    participant cpds as Consumer Profile Data Store\n    participant es as Email Service\n\n\n    adm -) aui: Login request \n    aui -) auth: Authenticate admin user\n    auth -) aui: User authenticated\n    aui -) sts: Update/Add/Delete/Create survey template\n    sts -) aui: Ack for survey template update\n    aui -) adm: Survey template updated\n    Note left of sts: Keeping \&quot;Survey Template Store\&quot; component as template &lt;br&gt;structure may vary depending on location, franchisee etc. \n    aui -) cpds: Filter group of consumers based certain filter (Eg. Product category, Location, Price etc.)\n    aui -) sts: Request for specific template for specific group of consumer\n    sts -) aui: Send survey template\n    aui -) aui: Render survey template \n    aui -) es: Send email to consumer to complete survey\n    aui -) adm: Survey form sent to consumer\n&quot;,&#10;  &quot;config&quot;: {&#10;    &quot;theme&quot;: &quot;neutral&quot;,&#10;    &quot;arrowMarkerAbsolute&quot;: false,&#10;    &quot;flowchart&quot;: {&#10;      &quot;htmlLabels&quot;: false&#10;    },&#10;    &quot;sequence&quot;: {&#10;      &quot;diagramMarginX&quot;: 50,&#10;      &quot;diagramMarginY&quot;: 10,&#10;      &quot;actorMargin&quot;: 50,&#10;      &quot;width&quot;: 150,&#10;      &quot;height&quot;: 65,&#10;      &quot;boxMargin&quot;: 10,&#10;      &quot;boxTextMargin&quot;: 5,&#10;      &quot;noteMargin&quot;: 10,&#10;      &quot;messageMargin&quot;: 35,&#10;      &quot;mirrorActors&quot;: true,&#10;      &quot;bottomMarginAdj&quot;: 1,&#10;      &quot;useMaxWidth&quot;: true,&#10;      &quot;rightAngles&quot;: false,&#10;      &quot;showSequenceNumbers&quot;: false&#10;    },&#10;    &quot;gantt&quot;: {&#10;      &quot;titleTopMargin&quot;: 25,&#10;      &quot;barHeight&quot;: 20,&#10;      &quot;barGap&quot;: 4,&#10;      &quot;topPadding&quot;: 50,&#10;      &quot;leftPadding&quot;: 75,&#10;      &quot;gridLineStartPadding&quot;: 35,&#10;      &quot;fontSize&quot;: 11,&#10;      &quot;fontFamily&quot;: &quot;\&quot;Open-Sans\&quot;, \&quot;sans-serif\&quot;&quot;,&#10;      &quot;numberSectionStyles&quot;: 4,&#10;      &quot;axisFormat&quot;: &quot;%Y-%m-%d&quot;&#10;    },&#10;    &quot;securityLevel&quot;: &quot;strict&quot;,&#10;    &quot;startOnLoad&quot;: false,&#10;    &quot;themeVariables&quot;: {&#10;      &quot;primaryColor&quot;: &quot;#eee&quot;,&#10;      &quot;contrast&quot;: &quot;#707070&quot;,&#10;      &quot;secondaryColor&quot;: &quot;hsl(0, 0%, 98.9215686275%)&quot;,&#10;      &quot;background&quot;: &quot;#ffffff&quot;,&#10;      &quot;tertiaryColor&quot;: &quot;hsl(-160, 0%, 93.3333333333%)&quot;,&#10;      &quot;primaryBorderColor&quot;: &quot;hsl(0, 0%, 83.3333333333%)&quot;,&#10;      &quot;secondaryBorderColor&quot;: &quot;hsl(0, 0%, 88.9215686275%)&quot;,&#10;      &quot;tertiaryBorderColor&quot;: &quot;hsl(-160, 0%, 83.3333333333%)&quot;,&#10;      &quot;primaryTextColor&quot;: &quot;#111111&quot;,&#10;      &quot;secondaryTextColor&quot;: &quot;rgb(2.7499999999, 2.7499999999, 2.7499999999)&quot;,&#10;      &quot;tertiaryTextColor&quot;: &quot;rgb(17.0000000001, 17.0000000001, 17.0000000001)&quot;,&#10;      &quot;lineColor&quot;: &quot;#666&quot;,&#10;      &quot;textColor&quot;: &quot;#000000&quot;,&#10;      &quot;mainBkg&quot;: &quot;#eee&quot;,&#10;      &quot;secondBkg&quot;: &quot;hsl(0, 0%, 98.9215686275%)&quot;,&#10;      &quot;border1&quot;: &quot;#999&quot;,&#10;      &quot;border2&quot;: &quot;#707070&quot;,&#10;      &quot;note&quot;: &quot;#ffa&quot;,&#10;      &quot;text&quot;: &quot;#333&quot;,&#10;      &quot;critical&quot;: &quot;#d42&quot;,&#10;      &quot;done&quot;: &quot;#bbb&quot;,&#10;      &quot;arrowheadColor&quot;: &quot;#333333&quot;,&#10;      &quot;fontFamily&quot;: &quot;\&quot;trebuchet ms\&quot;, verdana, arial, sans-serif&quot;,&#10;      &quot;fontSize&quot;: &quot;16px&quot;,&#10;      &quot;THEME_COLOR_LIMIT&quot;: 12,&#10;      &quot;nodeBkg&quot;: &quot;#eee&quot;,&#10;      &quot;nodeBorder&quot;: &quot;#999&quot;,&#10;      &quot;clusterBkg&quot;: &quot;hsl(0, 0%, 98.9215686275%)&quot;,&#10;      &quot;clusterBorder&quot;: &quot;#707070&quot;,&#10;      &quot;defaultLinkColor&quot;: &quot;#666&quot;,&#10;      &quot;titleColor&quot;: &quot;#333&quot;,&#10;      &quot;edgeLabelBackground&quot;: &quot;white&quot;,&#10;      &quot;actorBorder&quot;: &quot;hsl(0, 0%, 83%)&quot;,&#10;      &quot;actorBkg&quot;: &quot;#eee&quot;,&#10;      &quot;actorTextColor&quot;: &quot;#333&quot;,&#10;      &quot;actorLineColor&quot;: &quot;#666&quot;,&#10;      &quot;signalColor&quot;: &quot;#333&quot;,&#10;      &quot;signalTextColor&quot;: &quot;#333&quot;,&#10;      &quot;labelBoxBkgColor&quot;: &quot;#eee&quot;,&#10;      &quot;labelBoxBorderColor&quot;: &quot;hsl(0, 0%, 83%)&quot;,&#10;      &quot;labelTextColor&quot;: &quot;#333&quot;,&#10;      &quot;loopTextColor&quot;: &quot;#333&quot;,&#10;      &quot;noteBorderColor&quot;: &quot;#999&quot;,&#10;      &quot;noteBkgColor&quot;: &quot;#666&quot;,&#10;      &quot;noteTextColor&quot;: &quot;#fff&quot;,&#10;      &quot;activationBorderColor&quot;: &quot;#666&quot;,&#10;      &quot;activationBkgColor&quot;: &quot;#f4f4f4&quot;,&#10;      &quot;sequenceNumberColor&quot;: &quot;white&quot;,&#10;      &quot;sectionBkgColor&quot;: &quot;hsl(0, 0%, 73.9215686275%)&quot;,&#10;      &quot;altSectionBkgColor&quot;: &quot;white&quot;,&#10;      &quot;sectionBkgColor2&quot;: &quot;hsl(0, 0%, 73.9215686275%)&quot;,&#10;      &quot;excludeBkgColor&quot;: &quot;#eeeeee&quot;,&#10;      &quot;taskBorderColor&quot;: &quot;hsl(0, 0%, 33.9215686275%)&quot;,&#10;      &quot;taskBkgColor&quot;: &quot;#707070&quot;,&#10;      &quot;taskTextLightColor&quot;: &quot;white&quot;,&#10;      &quot;taskTextColor&quot;: &quot;white&quot;,&#10;      &quot;taskTextDarkColor&quot;: &quot;#333&quot;,&#10;      &quot;taskTextOutsideColor&quot;: &quot;#333&quot;,&#10;      &quot;taskTextClickableColor&quot;: &quot;#003163&quot;,&#10;      &quot;activeTaskBorderColor&quot;: &quot;hsl(0, 0%, 33.9215686275%)&quot;,&#10;      &quot;activeTaskBkgColor&quot;: &quot;#eee&quot;,&#10;      &quot;gridColor&quot;: &quot;hsl(0, 0%, 90%)&quot;,&#10;      &quot;doneTaskBkgColor&quot;: &quot;#bbb&quot;,&#10;      &quot;doneTaskBorderColor&quot;: &quot;#666&quot;,&#10;      &quot;critBkgColor&quot;: &quot;#d42&quot;,&#10;      &quot;critBorderColor&quot;: &quot;hsl(10.9090909091, 73.3333333333%, 40%)&quot;,&#10;      &quot;todayLineColor&quot;: &quot;#d42&quot;,&#10;      &quot;personBorder&quot;: &quot;calculated&quot;,&#10;      &quot;personBkg&quot;: &quot;calculated&quot;,&#10;      &quot;labelColor&quot;: &quot;black&quot;,&#10;      &quot;errorBkgColor&quot;: &quot;#552222&quot;,&#10;      &quot;errorTextColor&quot;: &quot;#552222&quot;,&#10;      &quot;cScale0&quot;: &quot;#555&quot;,&#10;      &quot;cScale1&quot;: &quot;#F4F4F4&quot;,&#10;      &quot;cScale2&quot;: &quot;#555&quot;,&#10;      &quot;cScale3&quot;: &quot;#BBB&quot;,&#10;      &quot;cScale4&quot;: &quot;#777&quot;,&#10;      &quot;cScale5&quot;: &quot;#999&quot;,&#10;      &quot;cScale6&quot;: &quot;#DDD&quot;,&#10;      &quot;cScale7&quot;: &quot;#FFF&quot;,&#10;      &quot;cScale8&quot;: &quot;#DDD&quot;,&#10;      &quot;cScale9&quot;: &quot;#BBB&quot;,&#10;      &quot;cScale10&quot;: &quot;#999&quot;,&#10;      &quot;cScale11&quot;: &quot;#777&quot;,&#10;      &quot;cScaleInv0&quot;: &quot;#aaaaaa&quot;,&#10;      &quot;cScaleInv1&quot;: &quot;#0b0b0b&quot;,&#10;      &quot;cScaleInv2&quot;: &quot;#aaaaaa&quot;,&#10;      &quot;cScaleInv3&quot;: &quot;#444444&quot;,&#10;      &quot;cScaleInv4&quot;: &quot;#888888&quot;,&#10;      &quot;cScaleInv5&quot;: &quot;#666666&quot;,&#10;      &quot;cScaleInv6&quot;: &quot;#222222&quot;,&#10;      &quot;cScaleInv7&quot;: &quot;#000000&quot;,&#10;      &quot;cScaleInv8&quot;: &quot;#222222&quot;,&#10;      &quot;cScaleInv9&quot;: &quot;#444444&quot;,&#10;      &quot;cScaleInv10&quot;: &quot;#666666&quot;,&#10;      &quot;cScaleInv11&quot;: &quot;#888888&quot;,&#10;      &quot;cScalePeer0&quot;: &quot;hsl(0, 0%, 23.3333333333%)&quot;,&#10;      &quot;cScalePeer1&quot;: &quot;hsl(0, 0%, 85.6862745098%)&quot;,&#10;      &quot;cScalePeer2&quot;: &quot;hsl(0, 0%, 23.3333333333%)&quot;,&#10;      &quot;cScalePeer3&quot;: &quot;hsl(0, 0%, 63.3333333333%)&quot;,&#10;      &quot;cScalePeer4&quot;: &quot;hsl(0, 0%, 36.6666666667%)&quot;,&#10;      &quot;cScalePeer5&quot;: &quot;hsl(0, 0%, 50%)&quot;,&#10;      &quot;cScalePeer6&quot;: &quot;hsl(0, 0%, 76.6666666667%)&quot;,&#10;      &quot;cScalePeer7&quot;: &quot;hsl(0, 0%, 90%)&quot;,&#10;      &quot;cScalePeer8&quot;: &quot;hsl(0, 0%, 76.6666666667%)&quot;,&#10;      &quot;cScalePeer9&quot;: &quot;hsl(0, 0%, 63.3333333333%)&quot;,&#10;      &quot;cScalePeer10&quot;: &quot;hsl(0, 0%, 50%)&quot;,&#10;      &quot;cScalePeer11&quot;: &quot;hsl(0, 0%, 36.6666666667%)&quot;,&#10;      &quot;scaleLabelColor&quot;: &quot;calculated&quot;,&#10;      &quot;cScaleLabel0&quot;: &quot;#F4F4F4&quot;,&#10;      &quot;cScaleLabel2&quot;: &quot;#F4F4F4&quot;,&#10;      &quot;cScaleLabel1&quot;: &quot;calculated&quot;,&#10;      &quot;cScaleLabel3&quot;: &quot;calculated&quot;,&#10;      &quot;cScaleLabel4&quot;: &quot;calculated&quot;,&#10;      &quot;cScaleLabel5&quot;: &quot;calculated&quot;,&#10;      &quot;cScaleLabel6&quot;: &quot;calculated&quot;,&#10;      &quot;cScaleLabel7&quot;: &quot;calculated&quot;,&#10;      &quot;cScaleLabel8&quot;: &quot;calculated&quot;,&#10;      &quot;cScaleLabel9&quot;: &quot;calculated&quot;,&#10;      &quot;cScaleLabel10&quot;: &quot;calculated&quot;,&#10;      &quot;cScaleLabel11&quot;: &quot;calculated&quot;,&#10;      &quot;transitionColor&quot;: &quot;#000&quot;,&#10;      &quot;transitionLabelColor&quot;: &quot;#000000&quot;,&#10;      &quot;stateLabelColor&quot;: &quot;#111111&quot;,&#10;      &quot;stateBkg&quot;: &quot;#eee&quot;,&#10;      &quot;labelBackgroundColor&quot;: &quot;#eee&quot;,&#10;      &quot;compositeBackground&quot;: &quot;#ffffff&quot;,&#10;      &quot;altBackground&quot;: &quot;#f4f4f4&quot;,&#10;      &quot;compositeTitleBackground&quot;: &quot;#eee&quot;,&#10;      &quot;stateBorder&quot;: &quot;#000&quot;,&#10;      &quot;innerEndBackground&quot;: &quot;hsl(0, 0%, 83.3333333333%)&quot;,&#10;      &quot;specialStateColor&quot;: &quot;#222&quot;,&#10;      &quot;classText&quot;: &quot;#111111&quot;,&#10;      &quot;fillType0&quot;: &quot;#eee&quot;,&#10;      &quot;fillType1&quot;: &quot;hsl(0, 0%, 98.9215686275%)&quot;,&#10;      &quot;fillType2&quot;: &quot;hsl(64, 0%, 93.3333333333%)&quot;,&#10;      &quot;fillType3&quot;: &quot;hsl(64, 0%, 98.9215686275%)&quot;,&#10;      &quot;fillType4&quot;: &quot;hsl(-64, 0%, 93.3333333333%)&quot;,&#10;      &quot;fillType5&quot;: &quot;hsl(-64, 0%, 98.9215686275%)&quot;,&#10;      &quot;fillType6&quot;: &quot;hsl(128, 0%, 93.3333333333%)&quot;,&#10;      &quot;fillType7&quot;: &quot;hsl(128, 0%, 98.9215686275%)&quot;,&#10;      &quot;pie0&quot;: &quot;#555&quot;,&#10;      &quot;pie1&quot;: &quot;#F4F4F4&quot;,&#10;      &quot;pie2&quot;: &quot;#555&quot;,&#10;      &quot;pie3&quot;: &quot;#BBB&quot;,&#10;      &quot;pie4&quot;: &quot;#777&quot;,&#10;      &quot;pie5&quot;: &quot;#999&quot;,&#10;      &quot;pie6&quot;: &quot;#DDD&quot;,&#10;      &quot;pie7&quot;: &quot;#FFF&quot;,&#10;      &quot;pie8&quot;: &quot;#DDD&quot;,&#10;      &quot;pie9&quot;: &quot;#BBB&quot;,&#10;      &quot;pie10&quot;: &quot;#999&quot;,&#10;      &quot;pie11&quot;: &quot;#777&quot;,&#10;      &quot;pie12&quot;: &quot;#555&quot;,&#10;      &quot;pieTitleTextSize&quot;: &quot;25px&quot;,&#10;      &quot;pieTitleTextColor&quot;: &quot;#333&quot;,&#10;      &quot;pieSectionTextSize&quot;: &quot;17px&quot;,&#10;      &quot;pieSectionTextColor&quot;: &quot;#000000&quot;,&#10;      &quot;pieLegendTextSize&quot;: &quot;17px&quot;,&#10;      &quot;pieLegendTextColor&quot;: &quot;#333&quot;,&#10;      &quot;pieStrokeColor&quot;: &quot;black&quot;,&#10;      &quot;pieStrokeWidth&quot;: &quot;2px&quot;,&#10;      &quot;pieOpacity&quot;: &quot;0.7&quot;,&#10;      &quot;requirementBackground&quot;: &quot;#eee&quot;,&#10;      &quot;requirementBorderColor&quot;: &quot;hsl(0, 0%, 83.3333333333%)&quot;,&#10;      &quot;requirementBorderSize&quot;: &quot;hsl(0, 0%, 83.3333333333%)&quot;,&#10;      &quot;requirementTextColor&quot;: &quot;#111111&quot;,&#10;      &quot;relationColor&quot;: &quot;#666&quot;,&#10;      &quot;relationLabelBackground&quot;: &quot;white&quot;,&#10;      &quot;relationLabelColor&quot;: &quot;#333&quot;,&#10;      &quot;git0&quot;: &quot;hsl(0, 0%, 70.6862745098%)&quot;,&#10;      &quot;git1&quot;: &quot;#555&quot;,&#10;      &quot;git2&quot;: &quot;#BBB&quot;,&#10;      &quot;git3&quot;: &quot;#777&quot;,&#10;      &quot;git4&quot;: &quot;#999&quot;,&#10;      &quot;git5&quot;: &quot;#DDD&quot;,&#10;      &quot;git6&quot;: &quot;#FFF&quot;,&#10;      &quot;git7&quot;: &quot;#DDD&quot;,&#10;      &quot;gitInv0&quot;: &quot;rgb(74.75, 74.75, 74.75)&quot;,&#10;      &quot;gitInv1&quot;: &quot;#aaaaaa&quot;,&#10;      &quot;gitInv2&quot;: &quot;#444444&quot;,&#10;      &quot;gitInv3&quot;: &quot;#888888&quot;,&#10;      &quot;gitInv4&quot;: &quot;#666666&quot;,&#10;      &quot;gitInv5&quot;: &quot;#222222&quot;,&#10;      &quot;gitInv6&quot;: &quot;#000000&quot;,&#10;      &quot;gitInv7&quot;: &quot;#222222&quot;,&#10;      &quot;branchLabelColor&quot;: &quot;#333&quot;,&#10;      &quot;gitBranchLabel0&quot;: &quot;#333&quot;,&#10;      &quot;gitBranchLabel1&quot;: &quot;white&quot;,&#10;      &quot;gitBranchLabel2&quot;: &quot;#333&quot;,&#10;      &quot;gitBranchLabel3&quot;: &quot;white&quot;,&#10;      &quot;gitBranchLabel4&quot;: &quot;#333&quot;,&#10;      &quot;gitBranchLabel5&quot;: &quot;#333&quot;,&#10;      &quot;gitBranchLabel6&quot;: &quot;#333&quot;,&#10;      &quot;gitBranchLabel7&quot;: &quot;#333&quot;,&#10;      &quot;tagLabelColor&quot;: &quot;#111111&quot;,&#10;      &quot;tagLabelBackground&quot;: &quot;#eee&quot;,&#10;      &quot;tagLabelBorder&quot;: &quot;hsl(0, 0%, 83.3333333333%)&quot;,&#10;      &quot;tagLabelFontSize&quot;: &quot;10px&quot;,&#10;      &quot;commitLabelColor&quot;: &quot;rgb(2.7499999999, 2.7499999999, 2.7499999999)&quot;,&#10;      &quot;commitLabelBackground&quot;: &quot;hsl(0, 0%, 98.9215686275%)&quot;,&#10;      &quot;commitLabelFontSize&quot;: &quot;10px&quot;,&#10;      &quot;attributeBackgroundColorOdd&quot;: &quot;#ffffff&quot;,&#10;      &quot;attributeBackgroundColorEven&quot;: &quot;#f2f2f2&quot;&#10;    }&#10;  }&#10;}" id="xPObi_UUNFXpFuWG9-OH-1">
                    <mxCell style="shape=image;noLabel=1;verticalAlign=top;imageAspect=1;image=data:image/svg+xml,PHN2ZyBhcmlhLXJvbGVkZXNjcmlwdGlvbj0ic2VxdWVuY2UiIHZpZXdCb3g9Ii01MCAtMTAgMTc2NCA4NDQiIHN0eWxlPSJtYXgtd2lkdGg6IDE3NjRweDsiIHhtbG5zPSJodHRwOi8vd3d3LnczLm9yZy8yMDAwL3N2ZyIgd2lkdGg9IjEwMCUiIGlkPSJnZU1lcm1haWRPdXRwdXQtMTcyMTg0MTY5MDM3MCI+PHN0eWxlPiNnZU1lcm1haWRPdXRwdXQtMTcyMTg0MTY5MDM3MHtmb250LWZhbWlseToidHJlYnVjaGV0IG1zIix2ZXJkYW5hLGFyaWFsLHNhbnMtc2VyaWY7Zm9udC1zaXplOjE2cHg7ZmlsbDojMDAwMDAwO30jZ2VNZXJtYWlkT3V0cHV0LTE3MjE4NDE2OTAzNzAgLmVycm9yLWljb257ZmlsbDojNTUyMjIyO30jZ2VNZXJtYWlkT3V0cHV0LTE3MjE4NDE2OTAzNzAgLmVycm9yLXRleHR7ZmlsbDojNTUyMjIyO3N0cm9rZTojNTUyMjIyO30jZ2VNZXJtYWlkT3V0cHV0LTE3MjE4NDE2OTAzNzAgLmVkZ2UtdGhpY2tuZXNzLW5vcm1hbHtzdHJva2Utd2lkdGg6MnB4O30jZ2VNZXJtYWlkT3V0cHV0LTE3MjE4NDE2OTAzNzAgLmVkZ2UtdGhpY2tuZXNzLXRoaWNre3N0cm9rZS13aWR0aDozLjVweDt9I2dlTWVybWFpZE91dHB1dC0xNzIxODQxNjkwMzcwIC5lZGdlLXBhdHRlcm4tc29saWR7c3Ryb2tlLWRhc2hhcnJheTowO30jZ2VNZXJtYWlkT3V0cHV0LTE3MjE4NDE2OTAzNzAgLmVkZ2UtcGF0dGVybi1kYXNoZWR7c3Ryb2tlLWRhc2hhcnJheTozO30jZ2VNZXJtYWlkT3V0cHV0LTE3MjE4NDE2OTAzNzAgLmVkZ2UtcGF0dGVybi1kb3R0ZWR7c3Ryb2tlLWRhc2hhcnJheToyO30jZ2VNZXJtYWlkT3V0cHV0LTE3MjE4NDE2OTAzNzAgLm1hcmtlcntmaWxsOiM2NjY7c3Ryb2tlOiM2NjY7fSNnZU1lcm1haWRPdXRwdXQtMTcyMTg0MTY5MDM3MCAubWFya2VyLmNyb3Nze3N0cm9rZTojNjY2O30jZ2VNZXJtYWlkT3V0cHV0LTE3MjE4NDE2OTAzNzAgc3Zne2ZvbnQtZmFtaWx5OiJ0cmVidWNoZXQgbXMiLHZlcmRhbmEsYXJpYWwsc2Fucy1zZXJpZjtmb250LXNpemU6MTZweDt9I2dlTWVybWFpZE91dHB1dC0xNzIxODQxNjkwMzcwIC5hY3RvcntzdHJva2U6aHNsKDAsIDAlLCA4MyUpO2ZpbGw6I2VlZTt9I2dlTWVybWFpZE91dHB1dC0xNzIxODQxNjkwMzcwIHRleHQuYWN0b3ImZ3Q7dHNwYW57ZmlsbDojMzMzO3N0cm9rZTpub25lO30jZ2VNZXJtYWlkT3V0cHV0LTE3MjE4NDE2OTAzNzAgLmFjdG9yLWxpbmV7c3Ryb2tlOiM2NjY7fSNnZU1lcm1haWRPdXRwdXQtMTcyMTg0MTY5MDM3MCAubWVzc2FnZUxpbmUwe3N0cm9rZS13aWR0aDoxLjU7c3Ryb2tlLWRhc2hhcnJheTpub25lO3N0cm9rZTojMzMzO30jZ2VNZXJtYWlkT3V0cHV0LTE3MjE4NDE2OTAzNzAgLm1lc3NhZ2VMaW5lMXtzdHJva2Utd2lkdGg6MS41O3N0cm9rZS1kYXNoYXJyYXk6MiwyO3N0cm9rZTojMzMzO30jZ2VNZXJtYWlkT3V0cHV0LTE3MjE4NDE2OTAzNzAgI2Fycm93aGVhZCBwYXRoe2ZpbGw6IzMzMztzdHJva2U6IzMzMzt9I2dlTWVybWFpZE91dHB1dC0xNzIxODQxNjkwMzcwIC5zZXF1ZW5jZU51bWJlcntmaWxsOndoaXRlO30jZ2VNZXJtYWlkT3V0cHV0LTE3MjE4NDE2OTAzNzAgI3NlcXVlbmNlbnVtYmVye2ZpbGw6IzMzMzt9I2dlTWVybWFpZE91dHB1dC0xNzIxODQxNjkwMzcwICNjcm9zc2hlYWQgcGF0aHtmaWxsOiMzMzM7c3Ryb2tlOiMzMzM7fSNnZU1lcm1haWRPdXRwdXQtMTcyMTg0MTY5MDM3MCAubWVzc2FnZVRleHR7ZmlsbDojMzMzO3N0cm9rZTpub25lO30jZ2VNZXJtYWlkT3V0cHV0LTE3MjE4NDE2OTAzNzAgLmxhYmVsQm94e3N0cm9rZTpoc2woMCwgMCUsIDgzJSk7ZmlsbDojZWVlO30jZ2VNZXJtYWlkT3V0cHV0LTE3MjE4NDE2OTAzNzAgLmxhYmVsVGV4dCwjZ2VNZXJtYWlkT3V0cHV0LTE3MjE4NDE2OTAzNzAgLmxhYmVsVGV4dCZndDt0c3BhbntmaWxsOiMzMzM7c3Ryb2tlOm5vbmU7fSNnZU1lcm1haWRPdXRwdXQtMTcyMTg0MTY5MDM3MCAubG9vcFRleHQsI2dlTWVybWFpZE91dHB1dC0xNzIxODQxNjkwMzcwIC5sb29wVGV4dCZndDt0c3BhbntmaWxsOiMzMzM7c3Ryb2tlOm5vbmU7fSNnZU1lcm1haWRPdXRwdXQtMTcyMTg0MTY5MDM3MCAubG9vcExpbmV7c3Ryb2tlLXdpZHRoOjJweDtzdHJva2UtZGFzaGFycmF5OjIsMjtzdHJva2U6aHNsKDAsIDAlLCA4MyUpO2ZpbGw6aHNsKDAsIDAlLCA4MyUpO30jZ2VNZXJtYWlkT3V0cHV0LTE3MjE4NDE2OTAzNzAgLm5vdGV7c3Ryb2tlOiM5OTk7ZmlsbDojNjY2O30jZ2VNZXJtYWlkT3V0cHV0LTE3MjE4NDE2OTAzNzAgLm5vdGVUZXh0LCNnZU1lcm1haWRPdXRwdXQtMTcyMTg0MTY5MDM3MCAubm90ZVRleHQmZ3Q7dHNwYW57ZmlsbDojZmZmO3N0cm9rZTpub25lO30jZ2VNZXJtYWlkT3V0cHV0LTE3MjE4NDE2OTAzNzAgLmFjdGl2YXRpb24we2ZpbGw6I2Y0ZjRmNDtzdHJva2U6IzY2Njt9I2dlTWVybWFpZE91dHB1dC0xNzIxODQxNjkwMzcwIC5hY3RpdmF0aW9uMXtmaWxsOiNmNGY0ZjQ7c3Ryb2tlOiM2NjY7fSNnZU1lcm1haWRPdXRwdXQtMTcyMTg0MTY5MDM3MCAuYWN0aXZhdGlvbjJ7ZmlsbDojZjRmNGY0O3N0cm9rZTojNjY2O30jZ2VNZXJtYWlkT3V0cHV0LTE3MjE4NDE2OTAzNzAgLmFjdG9yUG9wdXBNZW51e3Bvc2l0aW9uOmFic29sdXRlO30jZ2VNZXJtYWlkT3V0cHV0LTE3MjE4NDE2OTAzNzAgLmFjdG9yUG9wdXBNZW51UGFuZWx7cG9zaXRpb246YWJzb2x1dGU7ZmlsbDojZWVlO2JveC1zaGFkb3c6MHB4IDhweCAxNnB4IDBweCByZ2JhKDAsMCwwLDAuMik7ZmlsdGVyOmRyb3Atc2hhZG93KDNweCA1cHggMnB4IHJnYigwIDAgMCAvIDAuNCkpO30jZ2VNZXJtYWlkT3V0cHV0LTE3MjE4NDE2OTAzNzAgLmFjdG9yLW1hbiBsaW5le3N0cm9rZTpoc2woMCwgMCUsIDgzJSk7ZmlsbDojZWVlO30jZ2VNZXJtYWlkT3V0cHV0LTE3MjE4NDE2OTAzNzAgLmFjdG9yLW1hbiBjaXJjbGUsI2dlTWVybWFpZE91dHB1dC0xNzIxODQxNjkwMzcwIGxpbmV7c3Ryb2tlOmhzbCgwLCAwJSwgODMlKTtmaWxsOiNlZWU7c3Ryb2tlLXdpZHRoOjJweDt9I2dlTWVybWFpZE91dHB1dC0xNzIxODQxNjkwMzcwIDpyb290ey0tbWVybWFpZC1mb250LWZhbWlseToidHJlYnVjaGV0IG1zIix2ZXJkYW5hLGFyaWFsLHNhbnMtc2VyaWY7fTwvc3R5bGU+PGc+PC9nPjxkZWZzPjxzeW1ib2wgaGVpZ2h0PSIyNCIgd2lkdGg9IjI0IiBpZD0iY29tcHV0ZXIiPjxwYXRoIGQ9Ik0yIDJ2MTNoMjB2LTEzaC0yMHptMTggMTFoLTE2di05aDE2djl6bS0xMC4yMjggNmwuNDY2LTFoMy41MjRsLjQ2NyAxaC00LjQ1N3ptMTQuMjI4IDNoLTI0bDItNmgyLjEwNGwtMS4zMyA0aDE4LjQ1bC0xLjI5Ny00aDIuMDczbDIgNnptLTUtMTBoLTE0di03aDE0djd6IiB0cmFuc2Zvcm09InNjYWxlKC41KSI+PC9wYXRoPjwvc3ltYm9sPjwvZGVmcz48ZGVmcz48c3ltYm9sIGNsaXAtcnVsZT0iZXZlbm9kZCIgZmlsbC1ydWxlPSJldmVub2RkIiBpZD0iZGF0YWJhc2UiPjxwYXRoIGQ9Ik0xMi4yNTguMDAxbC4yNTYuMDA0LjI1NS4wMDUuMjUzLjAwOC4yNTEuMDEuMjQ5LjAxMi4yNDcuMDE1LjI0Ni4wMTYuMjQyLjAxOS4yNDEuMDIuMjM5LjAyMy4yMzYuMDI0LjIzMy4wMjcuMjMxLjAyOC4yMjkuMDMxLjIyNS4wMzIuMjIzLjAzNC4yMi4wMzYuMjE3LjAzOC4yMTQuMDQuMjExLjA0MS4yMDguMDQzLjIwNS4wNDUuMjAxLjA0Ni4xOTguMDQ4LjE5NC4wNS4xOTEuMDUxLjE4Ny4wNTMuMTgzLjA1NC4xOC4wNTYuMTc1LjA1Ny4xNzIuMDU5LjE2OC4wNi4xNjMuMDYxLjE2LjA2My4xNTUuMDY0LjE1LjA2Ni4wNzQuMDMzLjA3My4wMzMuMDcxLjAzNC4wNy4wMzQuMDY5LjAzNS4wNjguMDM1LjA2Ny4wMzUuMDY2LjAzNS4wNjQuMDM2LjA2NC4wMzYuMDYyLjAzNi4wNi4wMzYuMDYuMDM3LjA1OC4wMzcuMDU4LjAzNy4wNTUuMDM4LjA1NS4wMzguMDUzLjAzOC4wNTIuMDM4LjA1MS4wMzkuMDUuMDM5LjA0OC4wMzkuMDQ3LjAzOS4wNDUuMDQuMDQ0LjA0LjA0My4wNC4wNDEuMDQuMDQuMDQxLjAzOS4wNDEuMDM3LjA0MS4wMzYuMDQxLjAzNC4wNDEuMDMzLjA0Mi4wMzIuMDQyLjAzLjA0Mi4wMjkuMDQyLjAyNy4wNDIuMDI2LjA0My4wMjQuMDQzLjAyMy4wNDMuMDIxLjA0My4wMi4wNDMuMDE4LjA0NC4wMTcuMDQzLjAxNS4wNDQuMDEzLjA0NC4wMTIuMDQ0LjAxMS4wNDUuMDA5LjA0NC4wMDcuMDQ1LjAwNi4wNDUuMDA0LjA0NS4wMDIuMDQ1LjAwMS4wNDV2MTdsLS4wMDEuMDQ1LS4wMDIuMDQ1LS4wMDQuMDQ1LS4wMDYuMDQ1LS4wMDcuMDQ1LS4wMDkuMDQ0LS4wMTEuMDQ1LS4wMTIuMDQ0LS4wMTMuMDQ0LS4wMTUuMDQ0LS4wMTcuMDQzLS4wMTguMDQ0LS4wMi4wNDMtLjAyMS4wNDMtLjAyMy4wNDMtLjAyNC4wNDMtLjAyNi4wNDMtLjAyNy4wNDItLjAyOS4wNDItLjAzLjA0Mi0uMDMyLjA0Mi0uMDMzLjA0Mi0uMDM0LjA0MS0uMDM2LjA0MS0uMDM3LjA0MS0uMDM5LjA0MS0uMDQuMDQxLS4wNDEuMDQtLjA0My4wNC0uMDQ0LjA0LS4wNDUuMDQtLjA0Ny4wMzktLjA0OC4wMzktLjA1LjAzOS0uMDUxLjAzOS0uMDUyLjAzOC0uMDUzLjAzOC0uMDU1LjAzOC0uMDU1LjAzOC0uMDU4LjAzNy0uMDU4LjAzNy0uMDYuMDM3LS4wNi4wMzYtLjA2Mi4wMzYtLjA2NC4wMzYtLjA2NC4wMzYtLjA2Ni4wMzUtLjA2Ny4wMzUtLjA2OC4wMzUtLjA2OS4wMzUtLjA3LjAzNC0uMDcxLjAzNC0uMDczLjAzMy0uMDc0LjAzMy0uMTUuMDY2LS4xNTUuMDY0LS4xNi4wNjMtLjE2My4wNjEtLjE2OC4wNi0uMTcyLjA1OS0uMTc1LjA1Ny0uMTguMDU2LS4xODMuMDU0LS4xODcuMDUzLS4xOTEuMDUxLS4xOTQuMDUtLjE5OC4wNDgtLjIwMS4wNDYtLjIwNS4wNDUtLjIwOC4wNDMtLjIxMS4wNDEtLjIxNC4wNC0uMjE3LjAzOC0uMjIuMDM2LS4yMjMuMDM0LS4yMjUuMDMyLS4yMjkuMDMxLS4yMzEuMDI4LS4yMzMuMDI3LS4yMzYuMDI0LS4yMzkuMDIzLS4yNDEuMDItLjI0Mi4wMTktLjI0Ni4wMTYtLjI0Ny4wMTUtLjI0OS4wMTItLjI1MS4wMS0uMjUzLjAwOC0uMjU1LjAwNS0uMjU2LjAwNC0uMjU4LjAwMS0uMjU4LS4wMDEtLjI1Ni0uMDA0LS4yNTUtLjAwNS0uMjUzLS4wMDgtLjI1MS0uMDEtLjI0OS0uMDEyLS4yNDctLjAxNS0uMjQ1LS4wMTYtLjI0My0uMDE5LS4yNDEtLjAyLS4yMzgtLjAyMy0uMjM2LS4wMjQtLjIzNC0uMDI3LS4yMzEtLjAyOC0uMjI4LS4wMzEtLjIyNi0uMDMyLS4yMjMtLjAzNC0uMjItLjAzNi0uMjE3LS4wMzgtLjIxNC0uMDQtLjIxMS0uMDQxLS4yMDgtLjA0My0uMjA0LS4wNDUtLjIwMS0uMDQ2LS4xOTgtLjA0OC0uMTk1LS4wNS0uMTktLjA1MS0uMTg3LS4wNTMtLjE4NC0uMDU0LS4xNzktLjA1Ni0uMTc2LS4wNTctLjE3Mi0uMDU5LS4xNjctLjA2LS4xNjQtLjA2MS0uMTU5LS4wNjMtLjE1NS0uMDY0LS4xNTEtLjA2Ni0uMDc0LS4wMzMtLjA3Mi0uMDMzLS4wNzItLjAzNC0uMDctLjAzNC0uMDY5LS4wMzUtLjA2OC0uMDM1LS4wNjctLjAzNS0uMDY2LS4wMzUtLjA2NC0uMDM2LS4wNjMtLjAzNi0uMDYyLS4wMzYtLjA2MS0uMDM2LS4wNi0uMDM3LS4wNTgtLjAzNy0uMDU3LS4wMzctLjA1Ni0uMDM4LS4wNTUtLjAzOC0uMDUzLS4wMzgtLjA1Mi0uMDM4LS4wNTEtLjAzOS0uMDQ5LS4wMzktLjA0OS0uMDM5LS4wNDYtLjAzOS0uMDQ2LS4wNC0uMDQ0LS4wNC0uMDQzLS4wNC0uMDQxLS4wNC0uMDQtLjA0MS0uMDM5LS4wNDEtLjAzNy0uMDQxLS4wMzYtLjA0MS0uMDM0LS4wNDEtLjAzMy0uMDQyLS4wMzItLjA0Mi0uMDMtLjA0Mi0uMDI5LS4wNDItLjAyNy0uMDQyLS4wMjYtLjA0My0uMDI0LS4wNDMtLjAyMy0uMDQzLS4wMjEtLjA0My0uMDItLjA0My0uMDE4LS4wNDQtLjAxNy0uMDQzLS4wMTUtLjA0NC0uMDEzLS4wNDQtLjAxMi0uMDQ0LS4wMTEtLjA0NS0uMDA5LS4wNDQtLjAwNy0uMDQ1LS4wMDYtLjA0NS0uMDA0LS4wNDUtLjAwMi0uMDQ1LS4wMDEtLjA0NXYtMTdsLjAwMS0uMDQ1LjAwMi0uMDQ1LjAwNC0uMDQ1LjAwNi0uMDQ1LjAwNy0uMDQ1LjAwOS0uMDQ0LjAxMS0uMDQ1LjAxMi0uMDQ0LjAxMy0uMDQ0LjAxNS0uMDQ0LjAxNy0uMDQzLjAxOC0uMDQ0LjAyLS4wNDMuMDIxLS4wNDMuMDIzLS4wNDMuMDI0LS4wNDMuMDI2LS4wNDMuMDI3LS4wNDIuMDI5LS4wNDIuMDMtLjA0Mi4wMzItLjA0Mi4wMzMtLjA0Mi4wMzQtLjA0MS4wMzYtLjA0MS4wMzctLjA0MS4wMzktLjA0MS4wNC0uMDQxLjA0MS0uMDQuMDQzLS4wNC4wNDQtLjA0LjA0Ni0uMDQuMDQ2LS4wMzkuMDQ5LS4wMzkuMDQ5LS4wMzkuMDUxLS4wMzkuMDUyLS4wMzguMDUzLS4wMzguMDU1LS4wMzguMDU2LS4wMzguMDU3LS4wMzcuMDU4LS4wMzcuMDYtLjAzNy4wNjEtLjAzNi4wNjItLjAzNi4wNjMtLjAzNi4wNjQtLjAzNi4wNjYtLjAzNS4wNjctLjAzNS4wNjgtLjAzNS4wNjktLjAzNS4wNy0uMDM0LjA3Mi0uMDM0LjA3Mi0uMDMzLjA3NC0uMDMzLjE1MS0uMDY2LjE1NS0uMDY0LjE1OS0uMDYzLjE2NC0uMDYxLjE2Ny0uMDYuMTcyLS4wNTkuMTc2LS4wNTcuMTc5LS4wNTYuMTg0LS4wNTQuMTg3LS4wNTMuMTktLjA1MS4xOTUtLjA1LjE5OC0uMDQ4LjIwMS0uMDQ2LjIwNC0uMDQ1LjIwOC0uMDQzLjIxMS0uMDQxLjIxNC0uMDQuMjE3LS4wMzguMjItLjAzNi4yMjMtLjAzNC4yMjYtLjAzMi4yMjgtLjAzMS4yMzEtLjAyOC4yMzQtLjAyNy4yMzYtLjAyNC4yMzgtLjAyMy4yNDEtLjAyLjI0My0uMDE5LjI0NS0uMDE2LjI0Ny0uMDE1LjI0OS0uMDEyLjI1MS0uMDEuMjUzLS4wMDguMjU1LS4wMDUuMjU2LS4wMDQuMjU4LS4wMDEuMjU4LjAwMXptLTkuMjU4IDIwLjQ5OXYuMDFsLjAwMS4wMjEuMDAzLjAyMS4wMDQuMDIyLjAwNS4wMjEuMDA2LjAyMi4wMDcuMDIyLjAwOS4wMjMuMDEuMDIyLjAxMS4wMjMuMDEyLjAyMy4wMTMuMDIzLjAxNS4wMjMuMDE2LjAyNC4wMTcuMDIzLjAxOC4wMjQuMDE5LjAyNC4wMjEuMDI0LjAyMi4wMjUuMDIzLjAyNC4wMjQuMDI1LjA1Mi4wNDkuMDU2LjA1LjA2MS4wNTEuMDY2LjA1MS4wNy4wNTEuMDc1LjA1MS4wNzkuMDUyLjA4NC4wNTIuMDg4LjA1Mi4wOTIuMDUyLjA5Ny4wNTIuMTAyLjA1MS4xMDUuMDUyLjExLjA1Mi4xMTQuMDUxLjExOS4wNTEuMTIzLjA1MS4xMjcuMDUuMTMxLjA1LjEzNS4wNS4xMzkuMDQ4LjE0NC4wNDkuMTQ3LjA0Ny4xNTIuMDQ3LjE1NS4wNDcuMTYuMDQ1LjE2My4wNDUuMTY3LjA0My4xNzEuMDQzLjE3Ni4wNDEuMTc4LjA0MS4xODMuMDM5LjE4Ny4wMzkuMTkuMDM3LjE5NC4wMzUuMTk3LjAzNS4yMDIuMDMzLjIwNC4wMzEuMjA5LjAzLjIxMi4wMjkuMjE2LjAyNy4yMTkuMDI1LjIyMi4wMjQuMjI2LjAyMS4yMy4wMi4yMzMuMDE4LjIzNi4wMTYuMjQuMDE1LjI0My4wMTIuMjQ2LjAxLjI0OS4wMDguMjUzLjAwNS4yNTYuMDA0LjI1OS4wMDEuMjYtLjAwMS4yNTctLjAwNC4yNTQtLjAwNS4yNS0uMDA4LjI0Ny0uMDExLjI0NC0uMDEyLjI0MS0uMDE0LjIzNy0uMDE2LjIzMy0uMDE4LjIzMS0uMDIxLjIyNi0uMDIxLjIyNC0uMDI0LjIyLS4wMjYuMjE2LS4wMjcuMjEyLS4wMjguMjEtLjAzMS4yMDUtLjAzMS4yMDItLjAzNC4xOTgtLjAzNC4xOTQtLjAzNi4xOTEtLjAzNy4xODctLjAzOS4xODMtLjA0LjE3OS0uMDQuMTc1LS4wNDIuMTcyLS4wNDMuMTY4LS4wNDQuMTYzLS4wNDUuMTYtLjA0Ni4xNTUtLjA0Ni4xNTItLjA0Ny4xNDgtLjA0OC4xNDMtLjA0OS4xMzktLjA0OS4xMzYtLjA1LjEzMS0uMDUuMTI2LS4wNS4xMjMtLjA1MS4xMTgtLjA1Mi4xMTQtLjA1MS4xMS0uMDUyLjEwNi0uMDUyLjEwMS0uMDUyLjA5Ni0uMDUyLjA5Mi0uMDUyLjA4OC0uMDUzLjA4My0uMDUxLjA3OS0uMDUyLjA3NC0uMDUyLjA3LS4wNTEuMDY1LS4wNTEuMDYtLjA1MS4wNTYtLjA1LjA1MS0uMDUuMDIzLS4wMjQuMDIzLS4wMjUuMDIxLS4wMjQuMDItLjAyNC4wMTktLjAyNC4wMTgtLjAyNC4wMTctLjAyNC4wMTUtLjAyMy4wMTQtLjAyNC4wMTMtLjAyMy4wMTItLjAyMy4wMS0uMDIzLjAxLS4wMjIuMDA4LS4wMjIuMDA2LS4wMjIuMDA2LS4wMjIuMDA0LS4wMjIuMDA0LS4wMjEuMDAxLS4wMjEuMDAxLS4wMjF2LTQuMTI3bC0uMDc3LjA1NS0uMDguMDUzLS4wODMuMDU0LS4wODUuMDUzLS4wODcuMDUyLS4wOS4wNTItLjA5My4wNTEtLjA5NS4wNS0uMDk3LjA1LS4xLjA0OS0uMTAyLjA0OS0uMTA1LjA0OC0uMTA2LjA0Ny0uMTA5LjA0Ny0uMTExLjA0Ni0uMTE0LjA0NS0uMTE1LjA0NS0uMTE4LjA0NC0uMTIuMDQzLS4xMjIuMDQyLS4xMjQuMDQyLS4xMjYuMDQxLS4xMjguMDQtLjEzLjA0LS4xMzIuMDM4LS4xMzQuMDM4LS4xMzUuMDM3LS4xMzguMDM3LS4xMzkuMDM1LS4xNDIuMDM1LS4xNDMuMDM0LS4xNDQuMDMzLS4xNDcuMDMyLS4xNDguMDMxLS4xNS4wMy0uMTUxLjAzLS4xNTMuMDI5LS4xNTQuMDI3LS4xNTYuMDI3LS4xNTguMDI2LS4xNTkuMDI1LS4xNjEuMDI0LS4xNjIuMDIzLS4xNjMuMDIyLS4xNjUuMDIxLS4xNjYuMDItLjE2Ny4wMTktLjE2OS4wMTgtLjE2OS4wMTctLjE3MS4wMTYtLjE3My4wMTUtLjE3My4wMTQtLjE3NS4wMTMtLjE3NS4wMTItLjE3Ny4wMTEtLjE3OC4wMS0uMTc5LjAwOC0uMTc5LjAwOC0uMTgxLjAwNi0uMTgyLjAwNS0uMTgyLjAwNC0uMTg0LjAwMy0uMTg0LjAwMmgtLjM3bC0uMTg0LS4wMDItLjE4NC0uMDAzLS4xODItLjAwNC0uMTgyLS4wMDUtLjE4MS0uMDA2LS4xNzktLjAwOC0uMTc5LS4wMDgtLjE3OC0uMDEtLjE3Ni0uMDExLS4xNzYtLjAxMi0uMTc1LS4wMTMtLjE3My0uMDE0LS4xNzItLjAxNS0uMTcxLS4wMTYtLjE3LS4wMTctLjE2OS0uMDE4LS4xNjctLjAxOS0uMTY2LS4wMi0uMTY1LS4wMjEtLjE2My0uMDIyLS4xNjItLjAyMy0uMTYxLS4wMjQtLjE1OS0uMDI1LS4xNTctLjAyNi0uMTU2LS4wMjctLjE1NS0uMDI3LS4xNTMtLjAyOS0uMTUxLS4wMy0uMTUtLjAzLS4xNDgtLjAzMS0uMTQ2LS4wMzItLjE0NS0uMDMzLS4xNDMtLjAzNC0uMTQxLS4wMzUtLjE0LS4wMzUtLjEzNy0uMDM3LS4xMzYtLjAzNy0uMTM0LS4wMzgtLjEzMi0uMDM4LS4xMy0uMDQtLjEyOC0uMDQtLjEyNi0uMDQxLS4xMjQtLjA0Mi0uMTIyLS4wNDItLjEyLS4wNDQtLjExNy0uMDQzLS4xMTYtLjA0NS0uMTEzLS4wNDUtLjExMi0uMDQ2LS4xMDktLjA0Ny0uMTA2LS4wNDctLjEwNS0uMDQ4LS4xMDItLjA0OS0uMS0uMDQ5LS4wOTctLjA1LS4wOTUtLjA1LS4wOTMtLjA1Mi0uMDktLjA1MS0uMDg3LS4wNTItLjA4NS0uMDUzLS4wODMtLjA1NC0uMDgtLjA1NC0uMDc3LS4wNTR2NC4xMjd6bTAtNS42NTR2LjAxMWwuMDAxLjAyMS4wMDMuMDIxLjAwNC4wMjEuMDA1LjAyMi4wMDYuMDIyLjAwNy4wMjIuMDA5LjAyMi4wMS4wMjIuMDExLjAyMy4wMTIuMDIzLjAxMy4wMjMuMDE1LjAyNC4wMTYuMDIzLjAxNy4wMjQuMDE4LjAyNC4wMTkuMDI0LjAyMS4wMjQuMDIyLjAyNC4wMjMuMDI1LjAyNC4wMjQuMDUyLjA1LjA1Ni4wNS4wNjEuMDUuMDY2LjA1MS4wNy4wNTEuMDc1LjA1Mi4wNzkuMDUxLjA4NC4wNTIuMDg4LjA1Mi4wOTIuMDUyLjA5Ny4wNTIuMTAyLjA1Mi4xMDUuMDUyLjExLjA1MS4xMTQuMDUxLjExOS4wNTIuMTIzLjA1LjEyNy4wNTEuMTMxLjA1LjEzNS4wNDkuMTM5LjA0OS4xNDQuMDQ4LjE0Ny4wNDguMTUyLjA0Ny4xNTUuMDQ2LjE2LjA0NS4xNjMuMDQ1LjE2Ny4wNDQuMTcxLjA0Mi4xNzYuMDQyLjE3OC4wNC4xODMuMDQuMTg3LjAzOC4xOS4wMzcuMTk0LjAzNi4xOTcuMDM0LjIwMi4wMzMuMjA0LjAzMi4yMDkuMDMuMjEyLjAyOC4yMTYuMDI3LjIxOS4wMjUuMjIyLjAyNC4yMjYuMDIyLjIzLjAyLjIzMy4wMTguMjM2LjAxNi4yNC4wMTQuMjQzLjAxMi4yNDYuMDEuMjQ5LjAwOC4yNTMuMDA2LjI1Ni4wMDMuMjU5LjAwMS4yNi0uMDAxLjI1Ny0uMDAzLjI1NC0uMDA2LjI1LS4wMDguMjQ3LS4wMS4yNDQtLjAxMi4yNDEtLjAxNS4yMzctLjAxNi4yMzMtLjAxOC4yMzEtLjAyLjIyNi0uMDIyLjIyNC0uMDI0LjIyLS4wMjUuMjE2LS4wMjcuMjEyLS4wMjkuMjEtLjAzLjIwNS0uMDMyLjIwMi0uMDMzLjE5OC0uMDM1LjE5NC0uMDM2LjE5MS0uMDM3LjE4Ny0uMDM5LjE4My0uMDM5LjE3OS0uMDQxLjE3NS0uMDQyLjE3Mi0uMDQzLjE2OC0uMDQ0LjE2My0uMDQ1LjE2LS4wNDUuMTU1LS4wNDcuMTUyLS4wNDcuMTQ4LS4wNDguMTQzLS4wNDguMTM5LS4wNS4xMzYtLjA0OS4xMzEtLjA1LjEyNi0uMDUxLjEyMy0uMDUxLjExOC0uMDUxLjExNC0uMDUyLjExLS4wNTIuMTA2LS4wNTIuMTAxLS4wNTIuMDk2LS4wNTIuMDkyLS4wNTIuMDg4LS4wNTIuMDgzLS4wNTIuMDc5LS4wNTIuMDc0LS4wNTEuMDctLjA1Mi4wNjUtLjA1MS4wNi0uMDUuMDU2LS4wNTEuMDUxLS4wNDkuMDIzLS4wMjUuMDIzLS4wMjQuMDIxLS4wMjUuMDItLjAyNC4wMTktLjAyNC4wMTgtLjAyNC4wMTctLjAyNC4wMTUtLjAyMy4wMTQtLjAyMy4wMTMtLjAyNC4wMTItLjAyMi4wMS0uMDIzLjAxLS4wMjMuMDA4LS4wMjIuMDA2LS4wMjIuMDA2LS4wMjIuMDA0LS4wMjEuMDA0LS4wMjIuMDAxLS4wMjEuMDAxLS4wMjF2LTQuMTM5bC0uMDc3LjA1NC0uMDguMDU0LS4wODMuMDU0LS4wODUuMDUyLS4wODcuMDUzLS4wOS4wNTEtLjA5My4wNTEtLjA5NS4wNTEtLjA5Ny4wNS0uMS4wNDktLjEwMi4wNDktLjEwNS4wNDgtLjEwNi4wNDctLjEwOS4wNDctLjExMS4wNDYtLjExNC4wNDUtLjExNS4wNDQtLjExOC4wNDQtLjEyLjA0NC0uMTIyLjA0Mi0uMTI0LjA0Mi0uMTI2LjA0MS0uMTI4LjA0LS4xMy4wMzktLjEzMi4wMzktLjEzNC4wMzgtLjEzNS4wMzctLjEzOC4wMzYtLjEzOS4wMzYtLjE0Mi4wMzUtLjE0My4wMzMtLjE0NC4wMzMtLjE0Ny4wMzMtLjE0OC4wMzEtLjE1LjAzLS4xNTEuMDMtLjE1My4wMjgtLjE1NC4wMjgtLjE1Ni4wMjctLjE1OC4wMjYtLjE1OS4wMjUtLjE2MS4wMjQtLjE2Mi4wMjMtLjE2My4wMjItLjE2NS4wMjEtLjE2Ni4wMi0uMTY3LjAxOS0uMTY5LjAxOC0uMTY5LjAxNy0uMTcxLjAxNi0uMTczLjAxNS0uMTczLjAxNC0uMTc1LjAxMy0uMTc1LjAxMi0uMTc3LjAxMS0uMTc4LjAwOS0uMTc5LjAwOS0uMTc5LjAwNy0uMTgxLjAwNy0uMTgyLjAwNS0uMTgyLjAwNC0uMTg0LjAwMy0uMTg0LjAwMmgtLjM3bC0uMTg0LS4wMDItLjE4NC0uMDAzLS4xODItLjAwNC0uMTgyLS4wMDUtLjE4MS0uMDA3LS4xNzktLjAwNy0uMTc5LS4wMDktLjE3OC0uMDA5LS4xNzYtLjAxMS0uMTc2LS4wMTItLjE3NS0uMDEzLS4xNzMtLjAxNC0uMTcyLS4wMTUtLjE3MS0uMDE2LS4xNy0uMDE3LS4xNjktLjAxOC0uMTY3LS4wMTktLjE2Ni0uMDItLjE2NS0uMDIxLS4xNjMtLjAyMi0uMTYyLS4wMjMtLjE2MS0uMDI0LS4xNTktLjAyNS0uMTU3LS4wMjYtLjE1Ni0uMDI3LS4xNTUtLjAyOC0uMTUzLS4wMjgtLjE1MS0uMDMtLjE1LS4wMy0uMTQ4LS4wMzEtLjE0Ni0uMDMzLS4xNDUtLjAzMy0uMTQzLS4wMzMtLjE0MS0uMDM1LS4xNC0uMDM2LS4xMzctLjAzNi0uMTM2LS4wMzctLjEzNC0uMDM4LS4xMzItLjAzOS0uMTMtLjAzOS0uMTI4LS4wNC0uMTI2LS4wNDEtLjEyNC0uMDQyLS4xMjItLjA0My0uMTItLjA0My0uMTE3LS4wNDQtLjExNi0uMDQ0LS4xMTMtLjA0Ni0uMTEyLS4wNDYtLjEwOS0uMDQ2LS4xMDYtLjA0Ny0uMTA1LS4wNDgtLjEwMi0uMDQ5LS4xLS4wNDktLjA5Ny0uMDUtLjA5NS0uMDUxLS4wOTMtLjA1MS0uMDktLjA1MS0uMDg3LS4wNTMtLjA4NS0uMDUyLS4wODMtLjA1NC0uMDgtLjA1NC0uMDc3LS4wNTR2NC4xMzl6bTAtNS42NjZ2LjAxMWwuMDAxLjAyLjAwMy4wMjIuMDA0LjAyMS4wMDUuMDIyLjAwNi4wMjEuMDA3LjAyMi4wMDkuMDIzLjAxLjAyMi4wMTEuMDIzLjAxMi4wMjMuMDEzLjAyMy4wMTUuMDIzLjAxNi4wMjQuMDE3LjAyNC4wMTguMDIzLjAxOS4wMjQuMDIxLjAyNS4wMjIuMDI0LjAyMy4wMjQuMDI0LjAyNS4wNTIuMDUuMDU2LjA1LjA2MS4wNS4wNjYuMDUxLjA3LjA1MS4wNzUuMDUyLjA3OS4wNTEuMDg0LjA1Mi4wODguMDUyLjA5Mi4wNTIuMDk3LjA1Mi4xMDIuMDUyLjEwNS4wNTEuMTEuMDUyLjExNC4wNTEuMTE5LjA1MS4xMjMuMDUxLjEyNy4wNS4xMzEuMDUuMTM1LjA1LjEzOS4wNDkuMTQ0LjA0OC4xNDcuMDQ4LjE1Mi4wNDcuMTU1LjA0Ni4xNi4wNDUuMTYzLjA0NS4xNjcuMDQzLjE3MS4wNDMuMTc2LjA0Mi4xNzguMDQuMTgzLjA0LjE4Ny4wMzguMTkuMDM3LjE5NC4wMzYuMTk3LjAzNC4yMDIuMDMzLjIwNC4wMzIuMjA5LjAzLjIxMi4wMjguMjE2LjAyNy4yMTkuMDI1LjIyMi4wMjQuMjI2LjAyMS4yMy4wMi4yMzMuMDE4LjIzNi4wMTcuMjQuMDE0LjI0My4wMTIuMjQ2LjAxLjI0OS4wMDguMjUzLjAwNi4yNTYuMDAzLjI1OS4wMDEuMjYtLjAwMS4yNTctLjAwMy4yNTQtLjAwNi4yNS0uMDA4LjI0Ny0uMDEuMjQ0LS4wMTMuMjQxLS4wMTQuMjM3LS4wMTYuMjMzLS4wMTguMjMxLS4wMi4yMjYtLjAyMi4yMjQtLjAyNC4yMi0uMDI1LjIxNi0uMDI3LjIxMi0uMDI5LjIxLS4wMy4yMDUtLjAzMi4yMDItLjAzMy4xOTgtLjAzNS4xOTQtLjAzNi4xOTEtLjAzNy4xODctLjAzOS4xODMtLjAzOS4xNzktLjA0MS4xNzUtLjA0Mi4xNzItLjA0My4xNjgtLjA0NC4xNjMtLjA0NS4xNi0uMDQ1LjE1NS0uMDQ3LjE1Mi0uMDQ3LjE0OC0uMDQ4LjE0My0uMDQ5LjEzOS0uMDQ5LjEzNi0uMDQ5LjEzMS0uMDUxLjEyNi0uMDUuMTIzLS4wNTEuMTE4LS4wNTIuMTE0LS4wNTEuMTEtLjA1Mi4xMDYtLjA1Mi4xMDEtLjA1Mi4wOTYtLjA1Mi4wOTItLjA1Mi4wODgtLjA1Mi4wODMtLjA1Mi4wNzktLjA1Mi4wNzQtLjA1Mi4wNy0uMDUxLjA2NS0uMDUxLjA2LS4wNTEuMDU2LS4wNS4wNTEtLjA0OS4wMjMtLjAyNS4wMjMtLjAyNS4wMjEtLjAyNC4wMi0uMDI0LjAxOS0uMDI0LjAxOC0uMDI0LjAxNy0uMDI0LjAxNS0uMDIzLjAxNC0uMDI0LjAxMy0uMDIzLjAxMi0uMDIzLjAxLS4wMjIuMDEtLjAyMy4wMDgtLjAyMi4wMDYtLjAyMi4wMDYtLjAyMi4wMDQtLjAyMi4wMDQtLjAyMS4wMDEtLjAyMS4wMDEtLjAyMXYtNC4xNTNsLS4wNzcuMDU0LS4wOC4wNTQtLjA4My4wNTMtLjA4NS4wNTMtLjA4Ny4wNTMtLjA5LjA1MS0uMDkzLjA1MS0uMDk1LjA1MS0uMDk3LjA1LS4xLjA0OS0uMTAyLjA0OC0uMTA1LjA0OC0uMTA2LjA0OC0uMTA5LjA0Ni0uMTExLjA0Ni0uMTE0LjA0Ni0uMTE1LjA0NC0uMTE4LjA0NC0uMTIuMDQzLS4xMjIuMDQzLS4xMjQuMDQyLS4xMjYuMDQxLS4xMjguMDQtLjEzLjAzOS0uMTMyLjAzOS0uMTM0LjAzOC0uMTM1LjAzNy0uMTM4LjAzNi0uMTM5LjAzNi0uMTQyLjAzNC0uMTQzLjAzNC0uMTQ0LjAzMy0uMTQ3LjAzMi0uMTQ4LjAzMi0uMTUuMDMtLjE1MS4wMy0uMTUzLjAyOC0uMTU0LjAyOC0uMTU2LjAyNy0uMTU4LjAyNi0uMTU5LjAyNC0uMTYxLjAyNC0uMTYyLjAyMy0uMTYzLjAyMy0uMTY1LjAyMS0uMTY2LjAyLS4xNjcuMDE5LS4xNjkuMDE4LS4xNjkuMDE3LS4xNzEuMDE2LS4xNzMuMDE1LS4xNzMuMDE0LS4xNzUuMDEzLS4xNzUuMDEyLS4xNzcuMDEtLjE3OC4wMS0uMTc5LjAwOS0uMTc5LjAwNy0uMTgxLjAwNi0uMTgyLjAwNi0uMTgyLjAwNC0uMTg0LjAwMy0uMTg0LjAwMS0uMTg1LjAwMS0uMTg1LS4wMDEtLjE4NC0uMDAxLS4xODQtLjAwMy0uMTgyLS4wMDQtLjE4Mi0uMDA2LS4xODEtLjAwNi0uMTc5LS4wMDctLjE3OS0uMDA5LS4xNzgtLjAxLS4xNzYtLjAxLS4xNzYtLjAxMi0uMTc1LS4wMTMtLjE3My0uMDE0LS4xNzItLjAxNS0uMTcxLS4wMTYtLjE3LS4wMTctLjE2OS0uMDE4LS4xNjctLjAxOS0uMTY2LS4wMi0uMTY1LS4wMjEtLjE2My0uMDIzLS4xNjItLjAyMy0uMTYxLS4wMjQtLjE1OS0uMDI0LS4xNTctLjAyNi0uMTU2LS4wMjctLjE1NS0uMDI4LS4xNTMtLjAyOC0uMTUxLS4wMy0uMTUtLjAzLS4xNDgtLjAzMi0uMTQ2LS4wMzItLjE0NS0uMDMzLS4xNDMtLjAzNC0uMTQxLS4wMzQtLjE0LS4wMzYtLjEzNy0uMDM2LS4xMzYtLjAzNy0uMTM0LS4wMzgtLjEzMi0uMDM5LS4xMy0uMDM5LS4xMjgtLjA0MS0uMTI2LS4wNDEtLjEyNC0uMDQxLS4xMjItLjA0My0uMTItLjA0My0uMTE3LS4wNDQtLjExNi0uMDQ0LS4xMTMtLjA0Ni0uMTEyLS4wNDYtLjEwOS0uMDQ2LS4xMDYtLjA0OC0uMTA1LS4wNDgtLjEwMi0uMDQ4LS4xLS4wNS0uMDk3LS4wNDktLjA5NS0uMDUxLS4wOTMtLjA1MS0uMDktLjA1Mi0uMDg3LS4wNTItLjA4NS0uMDUzLS4wODMtLjA1My0uMDgtLjA1NC0uMDc3LS4wNTR2NC4xNTN6bTguNzQtOC4xNzlsLS4yNTcuMDA0LS4yNTQuMDA1LS4yNS4wMDgtLjI0Ny4wMTEtLjI0NC4wMTItLjI0MS4wMTQtLjIzNy4wMTYtLjIzMy4wMTgtLjIzMS4wMjEtLjIyNi4wMjItLjIyNC4wMjMtLjIyLjAyNi0uMjE2LjAyNy0uMjEyLjAyOC0uMjEuMDMxLS4yMDUuMDMyLS4yMDIuMDMzLS4xOTguMDM0LS4xOTQuMDM2LS4xOTEuMDM4LS4xODcuMDM4LS4xODMuMDQtLjE3OS4wNDEtLjE3NS4wNDItLjE3Mi4wNDMtLjE2OC4wNDMtLjE2My4wNDUtLjE2LjA0Ni0uMTU1LjA0Ni0uMTUyLjA0OC0uMTQ4LjA0OC0uMTQzLjA0OC0uMTM5LjA0OS0uMTM2LjA1LS4xMzEuMDUtLjEyNi4wNTEtLjEyMy4wNTEtLjExOC4wNTEtLjExNC4wNTItLjExLjA1Mi0uMTA2LjA1Mi0uMTAxLjA1Mi0uMDk2LjA1Mi0uMDkyLjA1Mi0uMDg4LjA1Mi0uMDgzLjA1Mi0uMDc5LjA1Mi0uMDc0LjA1MS0uMDcuMDUyLS4wNjUuMDUxLS4wNi4wNS0uMDU2LjA1LS4wNTEuMDUtLjAyMy4wMjUtLjAyMy4wMjQtLjAyMS4wMjQtLjAyLjAyNS0uMDE5LjAyNC0uMDE4LjAyNC0uMDE3LjAyMy0uMDE1LjAyNC0uMDE0LjAyMy0uMDEzLjAyMy0uMDEyLjAyMy0uMDEuMDIzLS4wMS4wMjItLjAwOC4wMjItLjAwNi4wMjMtLjAwNi4wMjEtLjAwNC4wMjItLjAwNC4wMjEtLjAwMS4wMjEtLjAwMS4wMjEuMDAxLjAyMS4wMDEuMDIxLjAwNC4wMjEuMDA0LjAyMi4wMDYuMDIxLjAwNi4wMjMuMDA4LjAyMi4wMS4wMjIuMDEuMDIzLjAxMi4wMjMuMDEzLjAyMy4wMTQuMDIzLjAxNS4wMjQuMDE3LjAyMy4wMTguMDI0LjAxOS4wMjQuMDIuMDI1LjAyMS4wMjQuMDIzLjAyNC4wMjMuMDI1LjA1MS4wNS4wNTYuMDUuMDYuMDUuMDY1LjA1MS4wNy4wNTIuMDc0LjA1MS4wNzkuMDUyLjA4My4wNTIuMDg4LjA1Mi4wOTIuMDUyLjA5Ni4wNTIuMTAxLjA1Mi4xMDYuMDUyLjExLjA1Mi4xMTQuMDUyLjExOC4wNTEuMTIzLjA1MS4xMjYuMDUxLjEzMS4wNS4xMzYuMDUuMTM5LjA0OS4xNDMuMDQ4LjE0OC4wNDguMTUyLjA0OC4xNTUuMDQ2LjE2LjA0Ni4xNjMuMDQ1LjE2OC4wNDMuMTcyLjA0My4xNzUuMDQyLjE3OS4wNDEuMTgzLjA0LjE4Ny4wMzguMTkxLjAzOC4xOTQuMDM2LjE5OC4wMzQuMjAyLjAzMy4yMDUuMDMyLjIxLjAzMS4yMTIuMDI4LjIxNi4wMjcuMjIuMDI2LjIyNC4wMjMuMjI2LjAyMi4yMzEuMDIxLjIzMy4wMTguMjM3LjAxNi4yNDEuMDE0LjI0NC4wMTIuMjQ3LjAxMS4yNS4wMDguMjU0LjAwNS4yNTcuMDA0LjI2LjAwMS4yNi0uMDAxLjI1Ny0uMDA0LjI1NC0uMDA1LjI1LS4wMDguMjQ3LS4wMTEuMjQ0LS4wMTIuMjQxLS4wMTQuMjM3LS4wMTYuMjMzLS4wMTguMjMxLS4wMjEuMjI2LS4wMjIuMjI0LS4wMjMuMjItLjAyNi4yMTYtLjAyNy4yMTItLjAyOC4yMS0uMDMxLjIwNS0uMDMyLjIwMi0uMDMzLjE5OC0uMDM0LjE5NC0uMDM2LjE5MS0uMDM4LjE4Ny0uMDM4LjE4My0uMDQuMTc5LS4wNDEuMTc1LS4wNDIuMTcyLS4wNDMuMTY4LS4wNDMuMTYzLS4wNDUuMTYtLjA0Ni4xNTUtLjA0Ni4xNTItLjA0OC4xNDgtLjA0OC4xNDMtLjA0OC4xMzktLjA0OS4xMzYtLjA1LjEzMS0uMDUuMTI2LS4wNTEuMTIzLS4wNTEuMTE4LS4wNTEuMTE0LS4wNTIuMTEtLjA1Mi4xMDYtLjA1Mi4xMDEtLjA1Mi4wOTYtLjA1Mi4wOTItLjA1Mi4wODgtLjA1Mi4wODMtLjA1Mi4wNzktLjA1Mi4wNzQtLjA1MS4wNy0uMDUyLjA2NS0uMDUxLjA2LS4wNS4wNTYtLjA1LjA1MS0uMDUuMDIzLS4wMjUuMDIzLS4wMjQuMDIxLS4wMjQuMDItLjAyNS4wMTktLjAyNC4wMTgtLjAyNC4wMTctLjAyMy4wMTUtLjAyNC4wMTQtLjAyMy4wMTMtLjAyMy4wMTItLjAyMy4wMS0uMDIzLjAxLS4wMjIuMDA4LS4wMjIuMDA2LS4wMjMuMDA2LS4wMjEuMDA0LS4wMjIuMDA0LS4wMjEuMDAxLS4wMjEuMDAxLS4wMjEtLjAwMS0uMDIxLS4wMDEtLjAyMS0uMDA0LS4wMjEtLjAwNC0uMDIyLS4wMDYtLjAyMS0uMDA2LS4wMjMtLjAwOC0uMDIyLS4wMS0uMDIyLS4wMS0uMDIzLS4wMTItLjAyMy0uMDEzLS4wMjMtLjAxNC0uMDIzLS4wMTUtLjAyNC0uMDE3LS4wMjMtLjAxOC0uMDI0LS4wMTktLjAyNC0uMDItLjAyNS0uMDIxLS4wMjQtLjAyMy0uMDI0LS4wMjMtLjAyNS0uMDUxLS4wNS0uMDU2LS4wNS0uMDYtLjA1LS4wNjUtLjA1MS0uMDctLjA1Mi0uMDc0LS4wNTEtLjA3OS0uMDUyLS4wODMtLjA1Mi0uMDg4LS4wNTItLjA5Mi0uMDUyLS4wOTYtLjA1Mi0uMTAxLS4wNTItLjEwNi0uMDUyLS4xMS0uMDUyLS4xMTQtLjA1Mi0uMTE4LS4wNTEtLjEyMy0uMDUxLS4xMjYtLjA1MS0uMTMxLS4wNS0uMTM2LS4wNS0uMTM5LS4wNDktLjE0My0uMDQ4LS4xNDgtLjA0OC0uMTUyLS4wNDgtLjE1NS0uMDQ2LS4xNi0uMDQ2LS4xNjMtLjA0NS0uMTY4LS4wNDMtLjE3Mi0uMDQzLS4xNzUtLjA0Mi0uMTc5LS4wNDEtLjE4My0uMDQtLjE4Ny0uMDM4LS4xOTEtLjAzOC0uMTk0LS4wMzYtLjE5OC0uMDM0LS4yMDItLjAzMy0uMjA1LS4wMzItLjIxLS4wMzEtLjIxMi0uMDI4LS4yMTYtLjAyNy0uMjItLjAyNi0uMjI0LS4wMjMtLjIyNi0uMDIyLS4yMzEtLjAyMS0uMjMzLS4wMTgtLjIzNy0uMDE2LS4yNDEtLjAxNC0uMjQ0LS4wMTItLjI0Ny0uMDExLS4yNS0uMDA4LS4yNTQtLjAwNS0uMjU3LS4wMDQtLjI2LS4wMDEtLjI2LjAwMXoiIHRyYW5zZm9ybT0ic2NhbGUoLjUpIj48L3BhdGg+PC9zeW1ib2w+PC9kZWZzPjxkZWZzPjxzeW1ib2wgaGVpZ2h0PSIyNCIgd2lkdGg9IjI0IiBpZD0iY2xvY2siPjxwYXRoIGQ9Ik0xMiAyYzUuNTE0IDAgMTAgNC40ODYgMTAgMTBzLTQuNDg2IDEwLTEwIDEwLTEwLTQuNDg2LTEwLTEwIDQuNDg2LTEwIDEwLTEwem0wLTJjLTYuNjI3IDAtMTIgNS4zNzMtMTIgMTJzNS4zNzMgMTIgMTIgMTIgMTItNS4zNzMgMTItMTItNS4zNzMtMTItMTItMTJ6bTUuODQ4IDEyLjQ1OWMuMjAyLjAzOC4yMDIuMzMzLjAwMS4zNzItMS45MDcuMzYxLTYuMDQ1IDEuMTExLTYuNTQ3IDEuMTExLS43MTkgMC0xLjMwMS0uNTgyLTEuMzAxLTEuMzAxIDAtLjUxMi43Ny01LjQ0NyAxLjEyNS03LjQ0NS4wMzQtLjE5Mi4zMTItLjE4MS4zNDMuMDE0bC45ODUgNi4yMzggNS4zOTQgMS4wMTF6IiB0cmFuc2Zvcm09InNjYWxlKC41KSI+PC9wYXRoPjwvc3ltYm9sPjwvZGVmcz48bGluZSBzdHJva2U9IiM5OTkiIHN0cm9rZS13aWR0aD0iMC41cHgiIGNsYXNzPSIyMDAiIHkyPSI3NzgiIHgyPSI3NSIgeTE9IjgwIiB4MT0iNzUiIGlkPSJhY3RvcjE3Ij48L2xpbmU+PGcgY2xhc3M9ImFjdG9yLW1hbiI+PGxpbmUgeTI9IjQ1IiB4Mj0iNzUiIHkxPSIyNSIgeDE9Ijc1IiBpZD0iYWN0b3ItbWFuLXRvcnNvMTciPjwvbGluZT48bGluZSB5Mj0iMzMiIHgyPSI5MyIgeTE9IjMzIiB4MT0iNTciIGlkPSJhY3Rvci1tYW4tYXJtczE3Ij48L2xpbmU+PGxpbmUgeTI9IjQ1IiB4Mj0iNzUiIHkxPSI2MCIgeDE9IjU3Ij48L2xpbmU+PGxpbmUgeTI9IjYwIiB4Mj0iOTEiIHkxPSI0NSIgeDE9Ijc1Ij48L2xpbmU+PGNpcmNsZSBoZWlnaHQ9IjY1IiB3aWR0aD0iMTUwIiByPSIxNSIgY3k9IjEwIiBjeD0iNzUiPjwvY2lyY2xlPjx0ZXh0IHN0eWxlPSJ0ZXh0LWFuY2hvcjogbWlkZGxlOyBmb250LXNpemU6IDE2cHg7IGZvbnQtd2VpZ2h0OiA0MDA7IiBjbGFzcz0iYWN0b3IiIGFsaWdubWVudC1iYXNlbGluZT0iY2VudHJhbCIgZG9taW5hbnQtYmFzZWxpbmU9ImNlbnRyYWwiIHk9IjY3LjUiIHg9Ijc1Ij48dHNwYW4gZHk9IjAiIHg9Ijc1Ij5BZG1pbjwvdHNwYW4+PC90ZXh0PjwvZz48Zz48bGluZSBzdHJva2U9IiM5OTkiIHN0cm9rZS13aWR0aD0iMC41cHgiIGNsYXNzPSIyMDAiIHkyPSI3NzgiIHgyPSIzNjMiIHkxPSI1IiB4MT0iMzYzIiBpZD0iYWN0b3IxOCI+PC9saW5lPjxnIGlkPSJyb290LTE4Ij48cmVjdCBjbGFzcz0iYWN0b3IiIHJ5PSIzIiByeD0iMyIgaGVpZ2h0PSI2NSIgd2lkdGg9IjE1MCIgc3Ryb2tlPSIjNjY2IiBmaWxsPSIjZWFlYWVhIiB5PSIwIiB4PSIyODgiPjwvcmVjdD48dGV4dCBzdHlsZT0idGV4dC1hbmNob3I6IG1pZGRsZTsgZm9udC1zaXplOiAxNnB4OyBmb250LXdlaWdodDogNDAwOyIgY2xhc3M9ImFjdG9yIiBhbGlnbm1lbnQtYmFzZWxpbmU9ImNlbnRyYWwiIGRvbWluYW50LWJhc2VsaW5lPSJjZW50cmFsIiB5PSIzMi41IiB4PSIzNjMiPjx0c3BhbiBkeT0iMCIgeD0iMzYzIj5BZG1pbiBJbnRlcmZhY2U8L3RzcGFuPjwvdGV4dD48L2c+PC9nPjxnPjxsaW5lIHN0cm9rZT0iIzk5OSIgc3Ryb2tlLXdpZHRoPSIwLjVweCIgY2xhc3M9IjIwMCIgeTI9Ijc3OCIgeDI9IjYwOSIgeTE9IjUiIHgxPSI2MDkiIGlkPSJhY3RvcjE5Ij48L2xpbmU+PGcgaWQ9InJvb3QtMTkiPjxyZWN0IGNsYXNzPSJhY3RvciIgcnk9IjMiIHJ4PSIzIiBoZWlnaHQ9IjY1IiB3aWR0aD0iMTUwIiBzdHJva2U9IiM2NjYiIGZpbGw9IiNlYWVhZWEiIHk9IjAiIHg9IjUzNCI+PC9yZWN0Pjx0ZXh0IHN0eWxlPSJ0ZXh0LWFuY2hvcjogbWlkZGxlOyBmb250LXNpemU6IDE2cHg7IGZvbnQtd2VpZ2h0OiA0MDA7IiBjbGFzcz0iYWN0b3IiIGFsaWdubWVudC1iYXNlbGluZT0iY2VudHJhbCIgZG9taW5hbnQtYmFzZWxpbmU9ImNlbnRyYWwiIHk9IjMyLjUiIHg9IjYwOSI+PHRzcGFuIGR5PSIwIiB4PSI2MDkiPklBTSBTZXJ2aWNlPC90c3Bhbj48L3RleHQ+PC9nPjwvZz48Zz48bGluZSBzdHJva2U9IiM5OTkiIHN0cm9rZS13aWR0aD0iMC41cHgiIGNsYXNzPSIyMDAiIHkyPSI3NzgiIHgyPSIxMDk2IiB5MT0iNSIgeDE9IjEwOTYiIGlkPSJhY3RvcjIwIj48L2xpbmU+PGcgaWQ9InJvb3QtMjAiPjxyZWN0IGNsYXNzPSJhY3RvciIgcnk9IjMiIHJ4PSIzIiBoZWlnaHQ9IjY1IiB3aWR0aD0iMTg0IiBzdHJva2U9IiM2NjYiIGZpbGw9IiNlYWVhZWEiIHk9IjAiIHg9IjEwMDQiPjwvcmVjdD48dGV4dCBzdHlsZT0idGV4dC1hbmNob3I6IG1pZGRsZTsgZm9udC1zaXplOiAxNnB4OyBmb250LXdlaWdodDogNDAwOyIgY2xhc3M9ImFjdG9yIiBhbGlnbm1lbnQtYmFzZWxpbmU9ImNlbnRyYWwiIGRvbWluYW50LWJhc2VsaW5lPSJjZW50cmFsIiB5PSIzMi41IiB4PSIxMDk2Ij48dHNwYW4gZHk9IjAiIHg9IjEwOTYiPlN1cnZleSBUZW1wbGF0ZSBTdG9yZTwvdHNwYW4+PC90ZXh0PjwvZz48L2c+PGc+PGxpbmUgc3Ryb2tlPSIjOTk5IiBzdHJva2Utd2lkdGg9IjAuNXB4IiBjbGFzcz0iMjAwIiB5Mj0iNzc4IiB4Mj0iMTM1MSIgeTE9IjUiIHgxPSIxMzUxIiBpZD0iYWN0b3IyMSI+PC9saW5lPjxnIGlkPSJyb290LTIxIj48cmVjdCBjbGFzcz0iYWN0b3IiIHJ5PSIzIiByeD0iMyIgaGVpZ2h0PSI2NSIgd2lkdGg9IjIyNiIgc3Ryb2tlPSIjNjY2IiBmaWxsPSIjZWFlYWVhIiB5PSIwIiB4PSIxMjM4Ij48L3JlY3Q+PHRleHQgc3R5bGU9InRleHQtYW5jaG9yOiBtaWRkbGU7IGZvbnQtc2l6ZTogMTZweDsgZm9udC13ZWlnaHQ6IDQwMDsiIGNsYXNzPSJhY3RvciIgYWxpZ25tZW50LWJhc2VsaW5lPSJjZW50cmFsIiBkb21pbmFudC1iYXNlbGluZT0iY2VudHJhbCIgeT0iMzIuNSIgeD0iMTM1MSI+PHRzcGFuIGR5PSIwIiB4PSIxMzUxIj5Db25zdW1lciBQcm9maWxlIERhdGEgU3RvcmU8L3RzcGFuPjwvdGV4dD48L2c+PC9nPjxnPjxsaW5lIHN0cm9rZT0iIzk5OSIgc3Ryb2tlLXdpZHRoPSIwLjVweCIgY2xhc3M9IjIwMCIgeTI9Ijc3OCIgeDI9IjE1ODkiIHkxPSI1IiB4MT0iMTU4OSIgaWQ9ImFjdG9yMjIiPjwvbGluZT48ZyBpZD0icm9vdC0yMiI+PHJlY3QgY2xhc3M9ImFjdG9yIiByeT0iMyIgcng9IjMiIGhlaWdodD0iNjUiIHdpZHRoPSIxNTAiIHN0cm9rZT0iIzY2NiIgZmlsbD0iI2VhZWFlYSIgeT0iMCIgeD0iMTUxNCI+PC9yZWN0Pjx0ZXh0IHN0eWxlPSJ0ZXh0LWFuY2hvcjogbWlkZGxlOyBmb250LXNpemU6IDE2cHg7IGZvbnQtd2VpZ2h0OiA0MDA7IiBjbGFzcz0iYWN0b3IiIGFsaWdubWVudC1iYXNlbGluZT0iY2VudHJhbCIgZG9taW5hbnQtYmFzZWxpbmU9ImNlbnRyYWwiIHk9IjMyLjUiIHg9IjE1ODkiPjx0c3BhbiBkeT0iMCIgeD0iMTU4OSI+RW1haWwgU2VydmljZTwvdHNwYW4+PC90ZXh0PjwvZz48L2c+PGRlZnM+PG1hcmtlciBvcmllbnQ9ImF1dG8iIG1hcmtlckhlaWdodD0iMTIiIG1hcmtlcldpZHRoPSIxMiIgbWFya2VyVW5pdHM9InVzZXJTcGFjZU9uVXNlIiByZWZZPSI1IiByZWZYPSI5IiBpZD0iYXJyb3doZWFkIj48cGF0aCBkPSJNIDAgMCBMIDEwIDUgTCAwIDEwIHoiPjwvcGF0aD48L21hcmtlcj48L2RlZnM+PGRlZnM+PG1hcmtlciByZWZZPSI1IiByZWZYPSI0IiBvcmllbnQ9ImF1dG8iIG1hcmtlckhlaWdodD0iOCIgbWFya2VyV2lkdGg9IjE1IiBpZD0iY3Jvc3NoZWFkIj48cGF0aCBzdHlsZT0ic3Ryb2tlLWRhc2hhcnJheTogMCwgMDsiIGQ9Ik0gMSwyIEwgNiw3IE0gNiwyIEwgMSw3IiBzdHJva2Utd2lkdGg9IjFwdCIgc3Ryb2tlPSIjMDAwMDAwIiBmaWxsPSJub25lIj48L3BhdGg+PC9tYXJrZXI+PC9kZWZzPjxkZWZzPjxtYXJrZXIgb3JpZW50PSJhdXRvIiBtYXJrZXJIZWlnaHQ9IjI4IiBtYXJrZXJXaWR0aD0iMjAiIHJlZlk9IjciIHJlZlg9IjE4IiBpZD0iZmlsbGVkLWhlYWQiPjxwYXRoIGQ9Ik0gMTgsNyBMOSwxMyBMMTQsNyBMOSwxIFoiPjwvcGF0aD48L21hcmtlcj48L2RlZnM+PGRlZnM+PG1hcmtlciBvcmllbnQ9ImF1dG8iIG1hcmtlckhlaWdodD0iNDAiIG1hcmtlcldpZHRoPSI2MCIgcmVmWT0iMTUiIHJlZlg9IjE1IiBpZD0ic2VxdWVuY2VudW1iZXIiPjxjaXJjbGUgcj0iNiIgY3k9IjE1IiBjeD0iMTUiPjwvY2lyY2xlPjwvbWFya2VyPjwvZGVmcz48Zz48cmVjdCBjbGFzcz0ibm90ZSIgcnk9IjAiIHJ4PSIwIiBoZWlnaHQ9IjU3IiB3aWR0aD0iNDM3IiBzdHJva2U9IiM2NjYiIGZpbGw9IiNFREYyQUUiIHk9IjM2MyIgeD0iNjM0Ij48L3JlY3Q+PHRleHQgc3R5bGU9ImZvbnQtc2l6ZTogMTZweDsgZm9udC13ZWlnaHQ6IDQwMDsiIGR5PSIxZW0iIGNsYXNzPSJub3RlVGV4dCIgYWxpZ25tZW50LWJhc2VsaW5lPSJtaWRkbGUiIGRvbWluYW50LWJhc2VsaW5lPSJtaWRkbGUiIHRleHQtYW5jaG9yPSJtaWRkbGUiIHk9IjM2OCIgeD0iODUzIj48dHNwYW4geD0iODUzIj5LZWVwaW5nICJTdXJ2ZXkgVGVtcGxhdGUgU3RvcmUiIGNvbXBvbmVudCBhcyB0ZW1wbGF0ZSA8L3RzcGFuPjwvdGV4dD48dGV4dCBzdHlsZT0iZm9udC1zaXplOiAxNnB4OyBmb250LXdlaWdodDogNDAwOyIgZHk9IjFlbSIgY2xhc3M9Im5vdGVUZXh0IiBhbGlnbm1lbnQtYmFzZWxpbmU9Im1pZGRsZSIgZG9taW5hbnQtYmFzZWxpbmU9Im1pZGRsZSIgdGV4dC1hbmNob3I9Im1pZGRsZSIgeT0iMzg3IiB4PSI4NTMiPjx0c3BhbiB4PSI4NTMiPnN0cnVjdHVyZSBtYXkgdmFyeSBkZXBlbmRpbmcgb24gbG9jYXRpb24sIGZyYW5jaGlzZWUgZXRjLjwvdHNwYW4+PC90ZXh0PjwvZz48dGV4dCBzdHlsZT0iZm9udC1zaXplOiAxNnB4OyBmb250LXdlaWdodDogNDAwOyIgZHk9IjFlbSIgY2xhc3M9Im1lc3NhZ2VUZXh0IiBhbGlnbm1lbnQtYmFzZWxpbmU9Im1pZGRsZSIgZG9taW5hbnQtYmFzZWxpbmU9Im1pZGRsZSIgdGV4dC1hbmNob3I9Im1pZGRsZSIgeT0iODAiIHg9IjIxOSI+TG9naW4gcmVxdWVzdDwvdGV4dD48bGluZSBzdHlsZT0iZmlsbDogbm9uZTsiIG1hcmtlci1zdGFydD0idXJsKCNzZXF1ZW5jZW51bWJlcikiIG1hcmtlci1lbmQ9InVybCgjZmlsbGVkLWhlYWQpIiBzdHJva2U9Im5vbmUiIHN0cm9rZS13aWR0aD0iMiIgY2xhc3M9Im1lc3NhZ2VMaW5lMCIgeTI9IjExMyIgeDI9IjM2MyIgeTE9IjExMyIgeDE9Ijc1Ij48L2xpbmU+PHRleHQgY2xhc3M9InNlcXVlbmNlTnVtYmVyIiB0ZXh0LWFuY2hvcj0ibWlkZGxlIiBmb250LXNpemU9IjEycHgiIGZvbnQtZmFtaWx5PSJzYW5zLXNlcmlmIiB5PSIxMTciIHg9Ijc1Ij4xPC90ZXh0Pjx0ZXh0IHN0eWxlPSJmb250LXNpemU6IDE2cHg7IGZvbnQtd2VpZ2h0OiA0MDA7IiBkeT0iMWVtIiBjbGFzcz0ibWVzc2FnZVRleHQiIGFsaWdubWVudC1iYXNlbGluZT0ibWlkZGxlIiBkb21pbmFudC1iYXNlbGluZT0ibWlkZGxlIiB0ZXh0LWFuY2hvcj0ibWlkZGxlIiB5PSIxMjgiIHg9IjQ4NiI+QXV0aGVudGljYXRlIGFkbWluIHVzZXI8L3RleHQ+PGxpbmUgc3R5bGU9ImZpbGw6IG5vbmU7IiBtYXJrZXItc3RhcnQ9InVybCgjc2VxdWVuY2VudW1iZXIpIiBtYXJrZXItZW5kPSJ1cmwoI2ZpbGxlZC1oZWFkKSIgc3Ryb2tlPSJub25lIiBzdHJva2Utd2lkdGg9IjIiIGNsYXNzPSJtZXNzYWdlTGluZTAiIHkyPSIxNjEiIHgyPSI2MDkiIHkxPSIxNjEiIHgxPSIzNjMiPjwvbGluZT48dGV4dCBjbGFzcz0ic2VxdWVuY2VOdW1iZXIiIHRleHQtYW5jaG9yPSJtaWRkbGUiIGZvbnQtc2l6ZT0iMTJweCIgZm9udC1mYW1pbHk9InNhbnMtc2VyaWYiIHk9IjE2NSIgeD0iMzYzIj4yPC90ZXh0Pjx0ZXh0IHN0eWxlPSJmb250LXNpemU6IDE2cHg7IGZvbnQtd2VpZ2h0OiA0MDA7IiBkeT0iMWVtIiBjbGFzcz0ibWVzc2FnZVRleHQiIGFsaWdubWVudC1iYXNlbGluZT0ibWlkZGxlIiBkb21pbmFudC1iYXNlbGluZT0ibWlkZGxlIiB0ZXh0LWFuY2hvcj0ibWlkZGxlIiB5PSIxNzYiIHg9IjQ4NiI+VXNlciBhdXRoZW50aWNhdGVkPC90ZXh0PjxsaW5lIHN0eWxlPSJmaWxsOiBub25lOyIgbWFya2VyLXN0YXJ0PSJ1cmwoI3NlcXVlbmNlbnVtYmVyKSIgbWFya2VyLWVuZD0idXJsKCNmaWxsZWQtaGVhZCkiIHN0cm9rZT0ibm9uZSIgc3Ryb2tlLXdpZHRoPSIyIiBjbGFzcz0ibWVzc2FnZUxpbmUwIiB5Mj0iMjA5IiB4Mj0iMzYzIiB5MT0iMjA5IiB4MT0iNjA5Ij48L2xpbmU+PHRleHQgY2xhc3M9InNlcXVlbmNlTnVtYmVyIiB0ZXh0LWFuY2hvcj0ibWlkZGxlIiBmb250LXNpemU9IjEycHgiIGZvbnQtZmFtaWx5PSJzYW5zLXNlcmlmIiB5PSIyMTMiIHg9IjYwOSI+MzwvdGV4dD48dGV4dCBzdHlsZT0iZm9udC1zaXplOiAxNnB4OyBmb250LXdlaWdodDogNDAwOyIgZHk9IjFlbSIgY2xhc3M9Im1lc3NhZ2VUZXh0IiBhbGlnbm1lbnQtYmFzZWxpbmU9Im1pZGRsZSIgZG9taW5hbnQtYmFzZWxpbmU9Im1pZGRsZSIgdGV4dC1hbmNob3I9Im1pZGRsZSIgeT0iMjI0IiB4PSI3MzAiPlVwZGF0ZS9BZGQvRGVsZXRlL0NyZWF0ZSBzdXJ2ZXkgdGVtcGxhdGU8L3RleHQ+PGxpbmUgc3R5bGU9ImZpbGw6IG5vbmU7IiBtYXJrZXItc3RhcnQ9InVybCgjc2VxdWVuY2VudW1iZXIpIiBtYXJrZXItZW5kPSJ1cmwoI2ZpbGxlZC1oZWFkKSIgc3Ryb2tlPSJub25lIiBzdHJva2Utd2lkdGg9IjIiIGNsYXNzPSJtZXNzYWdlTGluZTAiIHkyPSIyNTciIHgyPSIxMDk2IiB5MT0iMjU3IiB4MT0iMzYzIj48L2xpbmU+PHRleHQgY2xhc3M9InNlcXVlbmNlTnVtYmVyIiB0ZXh0LWFuY2hvcj0ibWlkZGxlIiBmb250LXNpemU9IjEycHgiIGZvbnQtZmFtaWx5PSJzYW5zLXNlcmlmIiB5PSIyNjEiIHg9IjM2MyI+NDwvdGV4dD48dGV4dCBzdHlsZT0iZm9udC1zaXplOiAxNnB4OyBmb250LXdlaWdodDogNDAwOyIgZHk9IjFlbSIgY2xhc3M9Im1lc3NhZ2VUZXh0IiBhbGlnbm1lbnQtYmFzZWxpbmU9Im1pZGRsZSIgZG9taW5hbnQtYmFzZWxpbmU9Im1pZGRsZSIgdGV4dC1hbmNob3I9Im1pZGRsZSIgeT0iMjcyIiB4PSI3MzAiPkFjayBmb3Igc3VydmV5IHRlbXBsYXRlIHVwZGF0ZTwvdGV4dD48bGluZSBzdHlsZT0iZmlsbDogbm9uZTsiIG1hcmtlci1zdGFydD0idXJsKCNzZXF1ZW5jZW51bWJlcikiIG1hcmtlci1lbmQ9InVybCgjZmlsbGVkLWhlYWQpIiBzdHJva2U9Im5vbmUiIHN0cm9rZS13aWR0aD0iMiIgY2xhc3M9Im1lc3NhZ2VMaW5lMCIgeTI9IjMwNSIgeDI9IjM2MyIgeTE9IjMwNSIgeDE9IjEwOTYiPjwvbGluZT48dGV4dCBjbGFzcz0ic2VxdWVuY2VOdW1iZXIiIHRleHQtYW5jaG9yPSJtaWRkbGUiIGZvbnQtc2l6ZT0iMTJweCIgZm9udC1mYW1pbHk9InNhbnMtc2VyaWYiIHk9IjMwOSIgeD0iMTA5NiI+NTwvdGV4dD48dGV4dCBzdHlsZT0iZm9udC1zaXplOiAxNnB4OyBmb250LXdlaWdodDogNDAwOyIgZHk9IjFlbSIgY2xhc3M9Im1lc3NhZ2VUZXh0IiBhbGlnbm1lbnQtYmFzZWxpbmU9Im1pZGRsZSIgZG9taW5hbnQtYmFzZWxpbmU9Im1pZGRsZSIgdGV4dC1hbmNob3I9Im1pZGRsZSIgeT0iMzIwIiB4PSIyMTkiPlN1cnZleSB0ZW1wbGF0ZSB1cGRhdGVkPC90ZXh0PjxsaW5lIHN0eWxlPSJmaWxsOiBub25lOyIgbWFya2VyLXN0YXJ0PSJ1cmwoI3NlcXVlbmNlbnVtYmVyKSIgbWFya2VyLWVuZD0idXJsKCNmaWxsZWQtaGVhZCkiIHN0cm9rZT0ibm9uZSIgc3Ryb2tlLXdpZHRoPSIyIiBjbGFzcz0ibWVzc2FnZUxpbmUwIiB5Mj0iMzUzIiB4Mj0iNzUiIHkxPSIzNTMiIHgxPSIzNjMiPjwvbGluZT48dGV4dCBjbGFzcz0ic2VxdWVuY2VOdW1iZXIiIHRleHQtYW5jaG9yPSJtaWRkbGUiIGZvbnQtc2l6ZT0iMTJweCIgZm9udC1mYW1pbHk9InNhbnMtc2VyaWYiIHk9IjM1NyIgeD0iMzYzIj42PC90ZXh0Pjx0ZXh0IHN0eWxlPSJmb250LXNpemU6IDE2cHg7IGZvbnQtd2VpZ2h0OiA0MDA7IiBkeT0iMWVtIiBjbGFzcz0ibWVzc2FnZVRleHQiIGFsaWdubWVudC1iYXNlbGluZT0ibWlkZGxlIiBkb21pbmFudC1iYXNlbGluZT0ibWlkZGxlIiB0ZXh0LWFuY2hvcj0ibWlkZGxlIiB5PSI0MzUiIHg9Ijg1NyI+RmlsdGVyIGdyb3VwIG9mIGNvbnN1bWVycyBiYXNlZCBjZXJ0YWluIGZpbHRlciAoRWcuIFByb2R1Y3QgY2F0ZWdvcnksIExvY2F0aW9uLCBQcmljZSBldGMuKTwvdGV4dD48bGluZSBzdHlsZT0iZmlsbDogbm9uZTsiIG1hcmtlci1zdGFydD0idXJsKCNzZXF1ZW5jZW51bWJlcikiIG1hcmtlci1lbmQ9InVybCgjZmlsbGVkLWhlYWQpIiBzdHJva2U9Im5vbmUiIHN0cm9rZS13aWR0aD0iMiIgY2xhc3M9Im1lc3NhZ2VMaW5lMCIgeTI9IjQ2OCIgeDI9IjEzNTEiIHkxPSI0NjgiIHgxPSIzNjMiPjwvbGluZT48dGV4dCBjbGFzcz0ic2VxdWVuY2VOdW1iZXIiIHRleHQtYW5jaG9yPSJtaWRkbGUiIGZvbnQtc2l6ZT0iMTJweCIgZm9udC1mYW1pbHk9InNhbnMtc2VyaWYiIHk9IjQ3MiIgeD0iMzYzIj43PC90ZXh0Pjx0ZXh0IHN0eWxlPSJmb250LXNpemU6IDE2cHg7IGZvbnQtd2VpZ2h0OiA0MDA7IiBkeT0iMWVtIiBjbGFzcz0ibWVzc2FnZVRleHQiIGFsaWdubWVudC1iYXNlbGluZT0ibWlkZGxlIiBkb21pbmFudC1iYXNlbGluZT0ibWlkZGxlIiB0ZXh0LWFuY2hvcj0ibWlkZGxlIiB5PSI0ODMiIHg9IjczMCI+UmVxdWVzdCBmb3Igc3BlY2lmaWMgdGVtcGxhdGUgZm9yIHNwZWNpZmljIGdyb3VwIG9mIGNvbnN1bWVyPC90ZXh0PjxsaW5lIHN0eWxlPSJmaWxsOiBub25lOyIgbWFya2VyLXN0YXJ0PSJ1cmwoI3NlcXVlbmNlbnVtYmVyKSIgbWFya2VyLWVuZD0idXJsKCNmaWxsZWQtaGVhZCkiIHN0cm9rZT0ibm9uZSIgc3Ryb2tlLXdpZHRoPSIyIiBjbGFzcz0ibWVzc2FnZUxpbmUwIiB5Mj0iNTE2IiB4Mj0iMTA5NiIgeTE9IjUxNiIgeDE9IjM2MyI+PC9saW5lPjx0ZXh0IGNsYXNzPSJzZXF1ZW5jZU51bWJlciIgdGV4dC1hbmNob3I9Im1pZGRsZSIgZm9udC1zaXplPSIxMnB4IiBmb250LWZhbWlseT0ic2Fucy1zZXJpZiIgeT0iNTIwIiB4PSIzNjMiPjg8L3RleHQ+PHRleHQgc3R5bGU9ImZvbnQtc2l6ZTogMTZweDsgZm9udC13ZWlnaHQ6IDQwMDsiIGR5PSIxZW0iIGNsYXNzPSJtZXNzYWdlVGV4dCIgYWxpZ25tZW50LWJhc2VsaW5lPSJtaWRkbGUiIGRvbWluYW50LWJhc2VsaW5lPSJtaWRkbGUiIHRleHQtYW5jaG9yPSJtaWRkbGUiIHk9IjUzMSIgeD0iNzMwIj5TZW5kIHN1cnZleSB0ZW1wbGF0ZTwvdGV4dD48bGluZSBzdHlsZT0iZmlsbDogbm9uZTsiIG1hcmtlci1zdGFydD0idXJsKCNzZXF1ZW5jZW51bWJlcikiIG1hcmtlci1lbmQ9InVybCgjZmlsbGVkLWhlYWQpIiBzdHJva2U9Im5vbmUiIHN0cm9rZS13aWR0aD0iMiIgY2xhc3M9Im1lc3NhZ2VMaW5lMCIgeTI9IjU2NCIgeDI9IjM2MyIgeTE9IjU2NCIgeDE9IjEwOTYiPjwvbGluZT48dGV4dCBjbGFzcz0ic2VxdWVuY2VOdW1iZXIiIHRleHQtYW5jaG9yPSJtaWRkbGUiIGZvbnQtc2l6ZT0iMTJweCIgZm9udC1mYW1pbHk9InNhbnMtc2VyaWYiIHk9IjU2OCIgeD0iMTA5NiI+OTwvdGV4dD48dGV4dCBzdHlsZT0iZm9udC1zaXplOiAxNnB4OyBmb250LXdlaWdodDogNDAwOyIgZHk9IjFlbSIgY2xhc3M9Im1lc3NhZ2VUZXh0IiBhbGlnbm1lbnQtYmFzZWxpbmU9Im1pZGRsZSIgZG9taW5hbnQtYmFzZWxpbmU9Im1pZGRsZSIgdGV4dC1hbmNob3I9Im1pZGRsZSIgeT0iNTc5IiB4PSIzNjMiPlJlbmRlciBzdXJ2ZXkgdGVtcGxhdGU8L3RleHQ+PHBhdGggc3R5bGU9ImZpbGw6IG5vbmU7IiBtYXJrZXItc3RhcnQ9InVybCgjc2VxdWVuY2VudW1iZXIpIiBtYXJrZXItZW5kPSJ1cmwoI2ZpbGxlZC1oZWFkKSIgc3Ryb2tlPSJub25lIiBzdHJva2Utd2lkdGg9IjIiIGNsYXNzPSJtZXNzYWdlTGluZTAiIGQ9Ik0gMzYzLDYxMiBDIDQyMyw2MDIgNDIzLDY0MiAzNjMsNjMyIj48L3BhdGg+PHRleHQgY2xhc3M9InNlcXVlbmNlTnVtYmVyIiB0ZXh0LWFuY2hvcj0ibWlkZGxlIiBmb250LXNpemU9IjEycHgiIGZvbnQtZmFtaWx5PSJzYW5zLXNlcmlmIiB5PSI2MTYiIHg9IjM2MyI+MTA8L3RleHQ+PHRleHQgc3R5bGU9ImZvbnQtc2l6ZTogMTZweDsgZm9udC13ZWlnaHQ6IDQwMDsiIGR5PSIxZW0iIGNsYXNzPSJtZXNzYWdlVGV4dCIgYWxpZ25tZW50LWJhc2VsaW5lPSJtaWRkbGUiIGRvbWluYW50LWJhc2VsaW5lPSJtaWRkbGUiIHRleHQtYW5jaG9yPSJtaWRkbGUiIHk9IjY1NyIgeD0iOTc2Ij5TZW5kIGVtYWlsIHRvIGNvbnN1bWVyIHRvIGNvbXBsZXRlIHN1cnZleTwvdGV4dD48bGluZSBzdHlsZT0iZmlsbDogbm9uZTsiIG1hcmtlci1zdGFydD0idXJsKCNzZXF1ZW5jZW51bWJlcikiIG1hcmtlci1lbmQ9InVybCgjZmlsbGVkLWhlYWQpIiBzdHJva2U9Im5vbmUiIHN0cm9rZS13aWR0aD0iMiIgY2xhc3M9Im1lc3NhZ2VMaW5lMCIgeTI9IjY5MCIgeDI9IjE1ODkiIHkxPSI2OTAiIHgxPSIzNjMiPjwvbGluZT48dGV4dCBjbGFzcz0ic2VxdWVuY2VOdW1iZXIiIHRleHQtYW5jaG9yPSJtaWRkbGUiIGZvbnQtc2l6ZT0iMTJweCIgZm9udC1mYW1pbHk9InNhbnMtc2VyaWYiIHk9IjY5NCIgeD0iMzYzIj4xMTwvdGV4dD48dGV4dCBzdHlsZT0iZm9udC1zaXplOiAxNnB4OyBmb250LXdlaWdodDogNDAwOyIgZHk9IjFlbSIgY2xhc3M9Im1lc3NhZ2VUZXh0IiBhbGlnbm1lbnQtYmFzZWxpbmU9Im1pZGRsZSIgZG9taW5hbnQtYmFzZWxpbmU9Im1pZGRsZSIgdGV4dC1hbmNob3I9Im1pZGRsZSIgeT0iNzA1IiB4PSIyMTkiPlN1cnZleSBmb3JtIHNlbnQgdG8gY29uc3VtZXI8L3RleHQ+PGxpbmUgc3R5bGU9ImZpbGw6IG5vbmU7IiBtYXJrZXItc3RhcnQ9InVybCgjc2VxdWVuY2VudW1iZXIpIiBtYXJrZXItZW5kPSJ1cmwoI2ZpbGxlZC1oZWFkKSIgc3Ryb2tlPSJub25lIiBzdHJva2Utd2lkdGg9IjIiIGNsYXNzPSJtZXNzYWdlTGluZTAiIHkyPSI3MzgiIHgyPSI3NSIgeTE9IjczOCIgeDE9IjM2MyI+PC9saW5lPjx0ZXh0IGNsYXNzPSJzZXF1ZW5jZU51bWJlciIgdGV4dC1hbmNob3I9Im1pZGRsZSIgZm9udC1zaXplPSIxMnB4IiBmb250LWZhbWlseT0ic2Fucy1zZXJpZiIgeT0iNzQyIiB4PSIzNjMiPjEyPC90ZXh0PjxnIGNsYXNzPSJhY3Rvci1tYW4iPjxsaW5lIHkyPSI4MDMiIHgyPSI3NSIgeTE9Ijc4MyIgeDE9Ijc1IiBpZD0iYWN0b3ItbWFuLXRvcnNvMjIiPjwvbGluZT48bGluZSB5Mj0iNzkxIiB4Mj0iOTMiIHkxPSI3OTEiIHgxPSI1NyIgaWQ9ImFjdG9yLW1hbi1hcm1zMjIiPjwvbGluZT48bGluZSB5Mj0iODAzIiB4Mj0iNzUiIHkxPSI4MTgiIHgxPSI1NyI+PC9saW5lPjxsaW5lIHkyPSI4MTgiIHgyPSI5MSIgeTE9IjgwMyIgeDE9Ijc1Ij48L2xpbmU+PGNpcmNsZSBoZWlnaHQ9IjY1IiB3aWR0aD0iMTUwIiByPSIxNSIgY3k9Ijc2OCIgY3g9Ijc1Ij48L2NpcmNsZT48dGV4dCBzdHlsZT0idGV4dC1hbmNob3I6IG1pZGRsZTsgZm9udC1zaXplOiAxNnB4OyBmb250LXdlaWdodDogNDAwOyIgY2xhc3M9ImFjdG9yIiBhbGlnbm1lbnQtYmFzZWxpbmU9ImNlbnRyYWwiIGRvbWluYW50LWJhc2VsaW5lPSJjZW50cmFsIiB5PSI4MjUuNSIgeD0iNzUiPjx0c3BhbiBkeT0iMCIgeD0iNzUiPkFkbWluPC90c3Bhbj48L3RleHQ+PC9nPjxnPjxyZWN0IGNsYXNzPSJhY3RvciIgcnk9IjMiIHJ4PSIzIiBoZWlnaHQ9IjY1IiB3aWR0aD0iMTUwIiBzdHJva2U9IiM2NjYiIGZpbGw9IiNlYWVhZWEiIHk9Ijc1OCIgeD0iMjg4Ij48L3JlY3Q+PHRleHQgc3R5bGU9InRleHQtYW5jaG9yOiBtaWRkbGU7IGZvbnQtc2l6ZTogMTZweDsgZm9udC13ZWlnaHQ6IDQwMDsiIGNsYXNzPSJhY3RvciIgYWxpZ25tZW50LWJhc2VsaW5lPSJjZW50cmFsIiBkb21pbmFudC1iYXNlbGluZT0iY2VudHJhbCIgeT0iNzkwLjUiIHg9IjM2MyI+PHRzcGFuIGR5PSIwIiB4PSIzNjMiPkFkbWluIEludGVyZmFjZTwvdHNwYW4+PC90ZXh0PjwvZz48Zz48cmVjdCBjbGFzcz0iYWN0b3IiIHJ5PSIzIiByeD0iMyIgaGVpZ2h0PSI2NSIgd2lkdGg9IjE1MCIgc3Ryb2tlPSIjNjY2IiBmaWxsPSIjZWFlYWVhIiB5PSI3NTgiIHg9IjUzNCI+PC9yZWN0Pjx0ZXh0IHN0eWxlPSJ0ZXh0LWFuY2hvcjogbWlkZGxlOyBmb250LXNpemU6IDE2cHg7IGZvbnQtd2VpZ2h0OiA0MDA7IiBjbGFzcz0iYWN0b3IiIGFsaWdubWVudC1iYXNlbGluZT0iY2VudHJhbCIgZG9taW5hbnQtYmFzZWxpbmU9ImNlbnRyYWwiIHk9Ijc5MC41IiB4PSI2MDkiPjx0c3BhbiBkeT0iMCIgeD0iNjA5Ij5JQU0gU2VydmljZTwvdHNwYW4+PC90ZXh0PjwvZz48Zz48cmVjdCBjbGFzcz0iYWN0b3IiIHJ5PSIzIiByeD0iMyIgaGVpZ2h0PSI2NSIgd2lkdGg9IjE4NCIgc3Ryb2tlPSIjNjY2IiBmaWxsPSIjZWFlYWVhIiB5PSI3NTgiIHg9IjEwMDQiPjwvcmVjdD48dGV4dCBzdHlsZT0idGV4dC1hbmNob3I6IG1pZGRsZTsgZm9udC1zaXplOiAxNnB4OyBmb250LXdlaWdodDogNDAwOyIgY2xhc3M9ImFjdG9yIiBhbGlnbm1lbnQtYmFzZWxpbmU9ImNlbnRyYWwiIGRvbWluYW50LWJhc2VsaW5lPSJjZW50cmFsIiB5PSI3OTAuNSIgeD0iMTA5NiI+PHRzcGFuIGR5PSIwIiB4PSIxMDk2Ij5TdXJ2ZXkgVGVtcGxhdGUgU3RvcmU8L3RzcGFuPjwvdGV4dD48L2c+PGc+PHJlY3QgY2xhc3M9ImFjdG9yIiByeT0iMyIgcng9IjMiIGhlaWdodD0iNjUiIHdpZHRoPSIyMjYiIHN0cm9rZT0iIzY2NiIgZmlsbD0iI2VhZWFlYSIgeT0iNzU4IiB4PSIxMjM4Ij48L3JlY3Q+PHRleHQgc3R5bGU9InRleHQtYW5jaG9yOiBtaWRkbGU7IGZvbnQtc2l6ZTogMTZweDsgZm9udC13ZWlnaHQ6IDQwMDsiIGNsYXNzPSJhY3RvciIgYWxpZ25tZW50LWJhc2VsaW5lPSJjZW50cmFsIiBkb21pbmFudC1iYXNlbGluZT0iY2VudHJhbCIgeT0iNzkwLjUiIHg9IjEzNTEiPjx0c3BhbiBkeT0iMCIgeD0iMTM1MSI+Q29uc3VtZXIgUHJvZmlsZSBEYXRhIFN0b3JlPC90c3Bhbj48L3RleHQ+PC9nPjxnPjxyZWN0IGNsYXNzPSJhY3RvciIgcnk9IjMiIHJ4PSIzIiBoZWlnaHQ9IjY1IiB3aWR0aD0iMTUwIiBzdHJva2U9IiM2NjYiIGZpbGw9IiNlYWVhZWEiIHk9Ijc1OCIgeD0iMTUxNCI+PC9yZWN0Pjx0ZXh0IHN0eWxlPSJ0ZXh0LWFuY2hvcjogbWlkZGxlOyBmb250LXNpemU6IDE2cHg7IGZvbnQtd2VpZ2h0OiA0MDA7IiBjbGFzcz0iYWN0b3IiIGFsaWdubWVudC1iYXNlbGluZT0iY2VudHJhbCIgZG9taW5hbnQtYmFzZWxpbmU9ImNlbnRyYWwiIHk9Ijc5MC41IiB4PSIxNTg5Ij48dHNwYW4gZHk9IjAiIHg9IjE1ODkiPkVtYWlsIFNlcnZpY2U8L3RzcGFuPjwvdGV4dD48L2c+PC9zdmc+;rounded=1;labelBackgroundColor=none;fillColor=#B1DDF0;strokeColor=#BAC8D3;fontColor=#182E3E;" parent="1" vertex="1">
                        <mxGeometry x="-638" y="-150" width="1764" height="844" as="geometry"/>
                    </mxCell>
                </UserObject>
            </root>
        </mxGraphModel>
    </diagram>
    <diagram id="sXeH_tjvAom6_4ss2AZd" name="consumer-survey-flow-diagram">
        <mxGraphModel dx="1778" dy="1091" grid="0" gridSize="10" guides="1" tooltips="1" connect="1" arrows="1" fold="1" page="0" pageScale="1" pageWidth="1169" pageHeight="827" math="0" shadow="0">
            <root>
                <mxCell id="0"/>
                <mxCell id="1" parent="0"/>
                <UserObject label="" mermaidData="{&#10;  &quot;data&quot;: &quot;sequenceDiagram\n    autonumber\n    actor cns as Consumer\n    participant cui as Consumer Interface\n    participant sts as Survey Template Store\n    participant sdq as Survey Data Queue\n    participant sds as Survey Data Store\n\n\n    cns -) cui: Open Survey Link\n    cui -) sts: Request for Survey template\n    sts -) cui: Return template\n    cui -) cui: Render consumer survey template\n    cns -) cui: Fill in survey data\n    cui -) sdq: Send the suvey data to message broker\n    Note right of sdq: Message Broker is recommended &lt;br&gt; to channelise the survey data from different sources &lt;br&gt; into the Database to reduce load on it\n    sdq -) sds: A(sync) publish survey data into database \n    sdq -) cui: Send acknolwedgement after queuing completed survey data\n    cui -) sts: Request for Survey completion template\n    cui -) cui: Render survey completion template\n    cui -) cns: Survey completion page&quot;,&#10;  &quot;config&quot;: {&#10;    &quot;theme&quot;: &quot;neutral&quot;,&#10;    &quot;arrowMarkerAbsolute&quot;: false,&#10;    &quot;flowchart&quot;: {&#10;      &quot;htmlLabels&quot;: false&#10;    },&#10;    &quot;sequence&quot;: {&#10;      &quot;diagramMarginX&quot;: 50,&#10;      &quot;diagramMarginY&quot;: 10,&#10;      &quot;actorMargin&quot;: 50,&#10;      &quot;width&quot;: 150,&#10;      &quot;height&quot;: 65,&#10;      &quot;boxMargin&quot;: 10,&#10;      &quot;boxTextMargin&quot;: 5,&#10;      &quot;noteMargin&quot;: 10,&#10;      &quot;messageMargin&quot;: 35,&#10;      &quot;mirrorActors&quot;: true,&#10;      &quot;bottomMarginAdj&quot;: 1,&#10;      &quot;useMaxWidth&quot;: true,&#10;      &quot;rightAngles&quot;: false,&#10;      &quot;showSequenceNumbers&quot;: false&#10;    },&#10;    &quot;gantt&quot;: {&#10;      &quot;titleTopMargin&quot;: 25,&#10;      &quot;barHeight&quot;: 20,&#10;      &quot;barGap&quot;: 4,&#10;      &quot;topPadding&quot;: 50,&#10;      &quot;leftPadding&quot;: 75,&#10;      &quot;gridLineStartPadding&quot;: 35,&#10;      &quot;fontSize&quot;: 11,&#10;      &quot;fontFamily&quot;: &quot;\&quot;Open-Sans\&quot;, \&quot;sans-serif\&quot;&quot;,&#10;      &quot;numberSectionStyles&quot;: 4,&#10;      &quot;axisFormat&quot;: &quot;%Y-%m-%d&quot;&#10;    }&#10;  }&#10;}" id="pekoncQopqYuceoLvuoM-1">
                    <mxCell style="shape=image;noLabel=1;verticalAlign=top;imageAspect=1;image=data:image/svg+xml,PHN2ZyBhcmlhLXJvbGVkZXNjcmlwdGlvbj0ic2VxdWVuY2UiIHZpZXdCb3g9Ii01MCAtMTAgMTUyNS41IDg0NSIgc3R5bGU9Im1heC13aWR0aDogMTUyNS41cHg7IiB4bWxucz0iaHR0cDovL3d3dy53My5vcmcvMjAwMC9zdmciIHdpZHRoPSIxMDAlIiBpZD0iZ2VNZXJtYWlkT3V0cHV0LTE3MjE4NDEzMjM3MjIiPjxzdHlsZT4jZ2VNZXJtYWlkT3V0cHV0LTE3MjE4NDEzMjM3MjJ7Zm9udC1mYW1pbHk6InRyZWJ1Y2hldCBtcyIsdmVyZGFuYSxhcmlhbCxzYW5zLXNlcmlmO2ZvbnQtc2l6ZToxNnB4O2ZpbGw6IzAwMDAwMDt9I2dlTWVybWFpZE91dHB1dC0xNzIxODQxMzIzNzIyIC5lcnJvci1pY29ue2ZpbGw6IzU1MjIyMjt9I2dlTWVybWFpZE91dHB1dC0xNzIxODQxMzIzNzIyIC5lcnJvci10ZXh0e2ZpbGw6IzU1MjIyMjtzdHJva2U6IzU1MjIyMjt9I2dlTWVybWFpZE91dHB1dC0xNzIxODQxMzIzNzIyIC5lZGdlLXRoaWNrbmVzcy1ub3JtYWx7c3Ryb2tlLXdpZHRoOjJweDt9I2dlTWVybWFpZE91dHB1dC0xNzIxODQxMzIzNzIyIC5lZGdlLXRoaWNrbmVzcy10aGlja3tzdHJva2Utd2lkdGg6My41cHg7fSNnZU1lcm1haWRPdXRwdXQtMTcyMTg0MTMyMzcyMiAuZWRnZS1wYXR0ZXJuLXNvbGlke3N0cm9rZS1kYXNoYXJyYXk6MDt9I2dlTWVybWFpZE91dHB1dC0xNzIxODQxMzIzNzIyIC5lZGdlLXBhdHRlcm4tZGFzaGVke3N0cm9rZS1kYXNoYXJyYXk6Mzt9I2dlTWVybWFpZE91dHB1dC0xNzIxODQxMzIzNzIyIC5lZGdlLXBhdHRlcm4tZG90dGVke3N0cm9rZS1kYXNoYXJyYXk6Mjt9I2dlTWVybWFpZE91dHB1dC0xNzIxODQxMzIzNzIyIC5tYXJrZXJ7ZmlsbDojNjY2O3N0cm9rZTojNjY2O30jZ2VNZXJtYWlkT3V0cHV0LTE3MjE4NDEzMjM3MjIgLm1hcmtlci5jcm9zc3tzdHJva2U6IzY2Njt9I2dlTWVybWFpZE91dHB1dC0xNzIxODQxMzIzNzIyIHN2Z3tmb250LWZhbWlseToidHJlYnVjaGV0IG1zIix2ZXJkYW5hLGFyaWFsLHNhbnMtc2VyaWY7Zm9udC1zaXplOjE2cHg7fSNnZU1lcm1haWRPdXRwdXQtMTcyMTg0MTMyMzcyMiAuYWN0b3J7c3Ryb2tlOmhzbCgwLCAwJSwgODMlKTtmaWxsOiNlZWU7fSNnZU1lcm1haWRPdXRwdXQtMTcyMTg0MTMyMzcyMiB0ZXh0LmFjdG9yJmd0O3RzcGFue2ZpbGw6IzMzMztzdHJva2U6bm9uZTt9I2dlTWVybWFpZE91dHB1dC0xNzIxODQxMzIzNzIyIC5hY3Rvci1saW5le3N0cm9rZTojNjY2O30jZ2VNZXJtYWlkT3V0cHV0LTE3MjE4NDEzMjM3MjIgLm1lc3NhZ2VMaW5lMHtzdHJva2Utd2lkdGg6MS41O3N0cm9rZS1kYXNoYXJyYXk6bm9uZTtzdHJva2U6IzMzMzt9I2dlTWVybWFpZE91dHB1dC0xNzIxODQxMzIzNzIyIC5tZXNzYWdlTGluZTF7c3Ryb2tlLXdpZHRoOjEuNTtzdHJva2UtZGFzaGFycmF5OjIsMjtzdHJva2U6IzMzMzt9I2dlTWVybWFpZE91dHB1dC0xNzIxODQxMzIzNzIyICNhcnJvd2hlYWQgcGF0aHtmaWxsOiMzMzM7c3Ryb2tlOiMzMzM7fSNnZU1lcm1haWRPdXRwdXQtMTcyMTg0MTMyMzcyMiAuc2VxdWVuY2VOdW1iZXJ7ZmlsbDp3aGl0ZTt9I2dlTWVybWFpZE91dHB1dC0xNzIxODQxMzIzNzIyICNzZXF1ZW5jZW51bWJlcntmaWxsOiMzMzM7fSNnZU1lcm1haWRPdXRwdXQtMTcyMTg0MTMyMzcyMiAjY3Jvc3NoZWFkIHBhdGh7ZmlsbDojMzMzO3N0cm9rZTojMzMzO30jZ2VNZXJtYWlkT3V0cHV0LTE3MjE4NDEzMjM3MjIgLm1lc3NhZ2VUZXh0e2ZpbGw6IzMzMztzdHJva2U6bm9uZTt9I2dlTWVybWFpZE91dHB1dC0xNzIxODQxMzIzNzIyIC5sYWJlbEJveHtzdHJva2U6aHNsKDAsIDAlLCA4MyUpO2ZpbGw6I2VlZTt9I2dlTWVybWFpZE91dHB1dC0xNzIxODQxMzIzNzIyIC5sYWJlbFRleHQsI2dlTWVybWFpZE91dHB1dC0xNzIxODQxMzIzNzIyIC5sYWJlbFRleHQmZ3Q7dHNwYW57ZmlsbDojMzMzO3N0cm9rZTpub25lO30jZ2VNZXJtYWlkT3V0cHV0LTE3MjE4NDEzMjM3MjIgLmxvb3BUZXh0LCNnZU1lcm1haWRPdXRwdXQtMTcyMTg0MTMyMzcyMiAubG9vcFRleHQmZ3Q7dHNwYW57ZmlsbDojMzMzO3N0cm9rZTpub25lO30jZ2VNZXJtYWlkT3V0cHV0LTE3MjE4NDEzMjM3MjIgLmxvb3BMaW5le3N0cm9rZS13aWR0aDoycHg7c3Ryb2tlLWRhc2hhcnJheToyLDI7c3Ryb2tlOmhzbCgwLCAwJSwgODMlKTtmaWxsOmhzbCgwLCAwJSwgODMlKTt9I2dlTWVybWFpZE91dHB1dC0xNzIxODQxMzIzNzIyIC5ub3Rle3N0cm9rZTojOTk5O2ZpbGw6IzY2Njt9I2dlTWVybWFpZE91dHB1dC0xNzIxODQxMzIzNzIyIC5ub3RlVGV4dCwjZ2VNZXJtYWlkT3V0cHV0LTE3MjE4NDEzMjM3MjIgLm5vdGVUZXh0Jmd0O3RzcGFue2ZpbGw6I2ZmZjtzdHJva2U6bm9uZTt9I2dlTWVybWFpZE91dHB1dC0xNzIxODQxMzIzNzIyIC5hY3RpdmF0aW9uMHtmaWxsOiNmNGY0ZjQ7c3Ryb2tlOiM2NjY7fSNnZU1lcm1haWRPdXRwdXQtMTcyMTg0MTMyMzcyMiAuYWN0aXZhdGlvbjF7ZmlsbDojZjRmNGY0O3N0cm9rZTojNjY2O30jZ2VNZXJtYWlkT3V0cHV0LTE3MjE4NDEzMjM3MjIgLmFjdGl2YXRpb24ye2ZpbGw6I2Y0ZjRmNDtzdHJva2U6IzY2Njt9I2dlTWVybWFpZE91dHB1dC0xNzIxODQxMzIzNzIyIC5hY3RvclBvcHVwTWVudXtwb3NpdGlvbjphYnNvbHV0ZTt9I2dlTWVybWFpZE91dHB1dC0xNzIxODQxMzIzNzIyIC5hY3RvclBvcHVwTWVudVBhbmVse3Bvc2l0aW9uOmFic29sdXRlO2ZpbGw6I2VlZTtib3gtc2hhZG93OjBweCA4cHggMTZweCAwcHggcmdiYSgwLDAsMCwwLjIpO2ZpbHRlcjpkcm9wLXNoYWRvdygzcHggNXB4IDJweCByZ2IoMCAwIDAgLyAwLjQpKTt9I2dlTWVybWFpZE91dHB1dC0xNzIxODQxMzIzNzIyIC5hY3Rvci1tYW4gbGluZXtzdHJva2U6aHNsKDAsIDAlLCA4MyUpO2ZpbGw6I2VlZTt9I2dlTWVybWFpZE91dHB1dC0xNzIxODQxMzIzNzIyIC5hY3Rvci1tYW4gY2lyY2xlLCNnZU1lcm1haWRPdXRwdXQtMTcyMTg0MTMyMzcyMiBsaW5le3N0cm9rZTpoc2woMCwgMCUsIDgzJSk7ZmlsbDojZWVlO3N0cm9rZS13aWR0aDoycHg7fSNnZU1lcm1haWRPdXRwdXQtMTcyMTg0MTMyMzcyMiA6cm9vdHstLW1lcm1haWQtZm9udC1mYW1pbHk6InRyZWJ1Y2hldCBtcyIsdmVyZGFuYSxhcmlhbCxzYW5zLXNlcmlmO308L3N0eWxlPjxnPjwvZz48ZGVmcz48c3ltYm9sIGhlaWdodD0iMjQiIHdpZHRoPSIyNCIgaWQ9ImNvbXB1dGVyIj48cGF0aCBkPSJNMiAydjEzaDIwdi0xM2gtMjB6bTE4IDExaC0xNnYtOWgxNnY5em0tMTAuMjI4IDZsLjQ2Ni0xaDMuNTI0bC40NjcgMWgtNC40NTd6bTE0LjIyOCAzaC0yNGwyLTZoMi4xMDRsLTEuMzMgNGgxOC40NWwtMS4yOTctNGgyLjA3M2wyIDZ6bS01LTEwaC0xNHYtN2gxNHY3eiIgdHJhbnNmb3JtPSJzY2FsZSguNSkiPjwvcGF0aD48L3N5bWJvbD48L2RlZnM+PGRlZnM+PHN5bWJvbCBjbGlwLXJ1bGU9ImV2ZW5vZGQiIGZpbGwtcnVsZT0iZXZlbm9kZCIgaWQ9ImRhdGFiYXNlIj48cGF0aCBkPSJNMTIuMjU4LjAwMWwuMjU2LjAwNC4yNTUuMDA1LjI1My4wMDguMjUxLjAxLjI0OS4wMTIuMjQ3LjAxNS4yNDYuMDE2LjI0Mi4wMTkuMjQxLjAyLjIzOS4wMjMuMjM2LjAyNC4yMzMuMDI3LjIzMS4wMjguMjI5LjAzMS4yMjUuMDMyLjIyMy4wMzQuMjIuMDM2LjIxNy4wMzguMjE0LjA0LjIxMS4wNDEuMjA4LjA0My4yMDUuMDQ1LjIwMS4wNDYuMTk4LjA0OC4xOTQuMDUuMTkxLjA1MS4xODcuMDUzLjE4My4wNTQuMTguMDU2LjE3NS4wNTcuMTcyLjA1OS4xNjguMDYuMTYzLjA2MS4xNi4wNjMuMTU1LjA2NC4xNS4wNjYuMDc0LjAzMy4wNzMuMDMzLjA3MS4wMzQuMDcuMDM0LjA2OS4wMzUuMDY4LjAzNS4wNjcuMDM1LjA2Ni4wMzUuMDY0LjAzNi4wNjQuMDM2LjA2Mi4wMzYuMDYuMDM2LjA2LjAzNy4wNTguMDM3LjA1OC4wMzcuMDU1LjAzOC4wNTUuMDM4LjA1My4wMzguMDUyLjAzOC4wNTEuMDM5LjA1LjAzOS4wNDguMDM5LjA0Ny4wMzkuMDQ1LjA0LjA0NC4wNC4wNDMuMDQuMDQxLjA0LjA0LjA0MS4wMzkuMDQxLjAzNy4wNDEuMDM2LjA0MS4wMzQuMDQxLjAzMy4wNDIuMDMyLjA0Mi4wMy4wNDIuMDI5LjA0Mi4wMjcuMDQyLjAyNi4wNDMuMDI0LjA0My4wMjMuMDQzLjAyMS4wNDMuMDIuMDQzLjAxOC4wNDQuMDE3LjA0My4wMTUuMDQ0LjAxMy4wNDQuMDEyLjA0NC4wMTEuMDQ1LjAwOS4wNDQuMDA3LjA0NS4wMDYuMDQ1LjAwNC4wNDUuMDAyLjA0NS4wMDEuMDQ1djE3bC0uMDAxLjA0NS0uMDAyLjA0NS0uMDA0LjA0NS0uMDA2LjA0NS0uMDA3LjA0NS0uMDA5LjA0NC0uMDExLjA0NS0uMDEyLjA0NC0uMDEzLjA0NC0uMDE1LjA0NC0uMDE3LjA0My0uMDE4LjA0NC0uMDIuMDQzLS4wMjEuMDQzLS4wMjMuMDQzLS4wMjQuMDQzLS4wMjYuMDQzLS4wMjcuMDQyLS4wMjkuMDQyLS4wMy4wNDItLjAzMi4wNDItLjAzMy4wNDItLjAzNC4wNDEtLjAzNi4wNDEtLjAzNy4wNDEtLjAzOS4wNDEtLjA0LjA0MS0uMDQxLjA0LS4wNDMuMDQtLjA0NC4wNC0uMDQ1LjA0LS4wNDcuMDM5LS4wNDguMDM5LS4wNS4wMzktLjA1MS4wMzktLjA1Mi4wMzgtLjA1My4wMzgtLjA1NS4wMzgtLjA1NS4wMzgtLjA1OC4wMzctLjA1OC4wMzctLjA2LjAzNy0uMDYuMDM2LS4wNjIuMDM2LS4wNjQuMDM2LS4wNjQuMDM2LS4wNjYuMDM1LS4wNjcuMDM1LS4wNjguMDM1LS4wNjkuMDM1LS4wNy4wMzQtLjA3MS4wMzQtLjA3My4wMzMtLjA3NC4wMzMtLjE1LjA2Ni0uMTU1LjA2NC0uMTYuMDYzLS4xNjMuMDYxLS4xNjguMDYtLjE3Mi4wNTktLjE3NS4wNTctLjE4LjA1Ni0uMTgzLjA1NC0uMTg3LjA1My0uMTkxLjA1MS0uMTk0LjA1LS4xOTguMDQ4LS4yMDEuMDQ2LS4yMDUuMDQ1LS4yMDguMDQzLS4yMTEuMDQxLS4yMTQuMDQtLjIxNy4wMzgtLjIyLjAzNi0uMjIzLjAzNC0uMjI1LjAzMi0uMjI5LjAzMS0uMjMxLjAyOC0uMjMzLjAyNy0uMjM2LjAyNC0uMjM5LjAyMy0uMjQxLjAyLS4yNDIuMDE5LS4yNDYuMDE2LS4yNDcuMDE1LS4yNDkuMDEyLS4yNTEuMDEtLjI1My4wMDgtLjI1NS4wMDUtLjI1Ni4wMDQtLjI1OC4wMDEtLjI1OC0uMDAxLS4yNTYtLjAwNC0uMjU1LS4wMDUtLjI1My0uMDA4LS4yNTEtLjAxLS4yNDktLjAxMi0uMjQ3LS4wMTUtLjI0NS0uMDE2LS4yNDMtLjAxOS0uMjQxLS4wMi0uMjM4LS4wMjMtLjIzNi0uMDI0LS4yMzQtLjAyNy0uMjMxLS4wMjgtLjIyOC0uMDMxLS4yMjYtLjAzMi0uMjIzLS4wMzQtLjIyLS4wMzYtLjIxNy0uMDM4LS4yMTQtLjA0LS4yMTEtLjA0MS0uMjA4LS4wNDMtLjIwNC0uMDQ1LS4yMDEtLjA0Ni0uMTk4LS4wNDgtLjE5NS0uMDUtLjE5LS4wNTEtLjE4Ny0uMDUzLS4xODQtLjA1NC0uMTc5LS4wNTYtLjE3Ni0uMDU3LS4xNzItLjA1OS0uMTY3LS4wNi0uMTY0LS4wNjEtLjE1OS0uMDYzLS4xNTUtLjA2NC0uMTUxLS4wNjYtLjA3NC0uMDMzLS4wNzItLjAzMy0uMDcyLS4wMzQtLjA3LS4wMzQtLjA2OS0uMDM1LS4wNjgtLjAzNS0uMDY3LS4wMzUtLjA2Ni0uMDM1LS4wNjQtLjAzNi0uMDYzLS4wMzYtLjA2Mi0uMDM2LS4wNjEtLjAzNi0uMDYtLjAzNy0uMDU4LS4wMzctLjA1Ny0uMDM3LS4wNTYtLjAzOC0uMDU1LS4wMzgtLjA1My0uMDM4LS4wNTItLjAzOC0uMDUxLS4wMzktLjA0OS0uMDM5LS4wNDktLjAzOS0uMDQ2LS4wMzktLjA0Ni0uMDQtLjA0NC0uMDQtLjA0My0uMDQtLjA0MS0uMDQtLjA0LS4wNDEtLjAzOS0uMDQxLS4wMzctLjA0MS0uMDM2LS4wNDEtLjAzNC0uMDQxLS4wMzMtLjA0Mi0uMDMyLS4wNDItLjAzLS4wNDItLjAyOS0uMDQyLS4wMjctLjA0Mi0uMDI2LS4wNDMtLjAyNC0uMDQzLS4wMjMtLjA0My0uMDIxLS4wNDMtLjAyLS4wNDMtLjAxOC0uMDQ0LS4wMTctLjA0My0uMDE1LS4wNDQtLjAxMy0uMDQ0LS4wMTItLjA0NC0uMDExLS4wNDUtLjAwOS0uMDQ0LS4wMDctLjA0NS0uMDA2LS4wNDUtLjAwNC0uMDQ1LS4wMDItLjA0NS0uMDAxLS4wNDV2LTE3bC4wMDEtLjA0NS4wMDItLjA0NS4wMDQtLjA0NS4wMDYtLjA0NS4wMDctLjA0NS4wMDktLjA0NC4wMTEtLjA0NS4wMTItLjA0NC4wMTMtLjA0NC4wMTUtLjA0NC4wMTctLjA0My4wMTgtLjA0NC4wMi0uMDQzLjAyMS0uMDQzLjAyMy0uMDQzLjAyNC0uMDQzLjAyNi0uMDQzLjAyNy0uMDQyLjAyOS0uMDQyLjAzLS4wNDIuMDMyLS4wNDIuMDMzLS4wNDIuMDM0LS4wNDEuMDM2LS4wNDEuMDM3LS4wNDEuMDM5LS4wNDEuMDQtLjA0MS4wNDEtLjA0LjA0My0uMDQuMDQ0LS4wNC4wNDYtLjA0LjA0Ni0uMDM5LjA0OS0uMDM5LjA0OS0uMDM5LjA1MS0uMDM5LjA1Mi0uMDM4LjA1My0uMDM4LjA1NS0uMDM4LjA1Ni0uMDM4LjA1Ny0uMDM3LjA1OC0uMDM3LjA2LS4wMzcuMDYxLS4wMzYuMDYyLS4wMzYuMDYzLS4wMzYuMDY0LS4wMzYuMDY2LS4wMzUuMDY3LS4wMzUuMDY4LS4wMzUuMDY5LS4wMzUuMDctLjAzNC4wNzItLjAzNC4wNzItLjAzMy4wNzQtLjAzMy4xNTEtLjA2Ni4xNTUtLjA2NC4xNTktLjA2My4xNjQtLjA2MS4xNjctLjA2LjE3Mi0uMDU5LjE3Ni0uMDU3LjE3OS0uMDU2LjE4NC0uMDU0LjE4Ny0uMDUzLjE5LS4wNTEuMTk1LS4wNS4xOTgtLjA0OC4yMDEtLjA0Ni4yMDQtLjA0NS4yMDgtLjA0My4yMTEtLjA0MS4yMTQtLjA0LjIxNy0uMDM4LjIyLS4wMzYuMjIzLS4wMzQuMjI2LS4wMzIuMjI4LS4wMzEuMjMxLS4wMjguMjM0LS4wMjcuMjM2LS4wMjQuMjM4LS4wMjMuMjQxLS4wMi4yNDMtLjAxOS4yNDUtLjAxNi4yNDctLjAxNS4yNDktLjAxMi4yNTEtLjAxLjI1My0uMDA4LjI1NS0uMDA1LjI1Ni0uMDA0LjI1OC0uMDAxLjI1OC4wMDF6bS05LjI1OCAyMC40OTl2LjAxbC4wMDEuMDIxLjAwMy4wMjEuMDA0LjAyMi4wMDUuMDIxLjAwNi4wMjIuMDA3LjAyMi4wMDkuMDIzLjAxLjAyMi4wMTEuMDIzLjAxMi4wMjMuMDEzLjAyMy4wMTUuMDIzLjAxNi4wMjQuMDE3LjAyMy4wMTguMDI0LjAxOS4wMjQuMDIxLjAyNC4wMjIuMDI1LjAyMy4wMjQuMDI0LjAyNS4wNTIuMDQ5LjA1Ni4wNS4wNjEuMDUxLjA2Ni4wNTEuMDcuMDUxLjA3NS4wNTEuMDc5LjA1Mi4wODQuMDUyLjA4OC4wNTIuMDkyLjA1Mi4wOTcuMDUyLjEwMi4wNTEuMTA1LjA1Mi4xMS4wNTIuMTE0LjA1MS4xMTkuMDUxLjEyMy4wNTEuMTI3LjA1LjEzMS4wNS4xMzUuMDUuMTM5LjA0OC4xNDQuMDQ5LjE0Ny4wNDcuMTUyLjA0Ny4xNTUuMDQ3LjE2LjA0NS4xNjMuMDQ1LjE2Ny4wNDMuMTcxLjA0My4xNzYuMDQxLjE3OC4wNDEuMTgzLjAzOS4xODcuMDM5LjE5LjAzNy4xOTQuMDM1LjE5Ny4wMzUuMjAyLjAzMy4yMDQuMDMxLjIwOS4wMy4yMTIuMDI5LjIxNi4wMjcuMjE5LjAyNS4yMjIuMDI0LjIyNi4wMjEuMjMuMDIuMjMzLjAxOC4yMzYuMDE2LjI0LjAxNS4yNDMuMDEyLjI0Ni4wMS4yNDkuMDA4LjI1My4wMDUuMjU2LjAwNC4yNTkuMDAxLjI2LS4wMDEuMjU3LS4wMDQuMjU0LS4wMDUuMjUtLjAwOC4yNDctLjAxMS4yNDQtLjAxMi4yNDEtLjAxNC4yMzctLjAxNi4yMzMtLjAxOC4yMzEtLjAyMS4yMjYtLjAyMS4yMjQtLjAyNC4yMi0uMDI2LjIxNi0uMDI3LjIxMi0uMDI4LjIxLS4wMzEuMjA1LS4wMzEuMjAyLS4wMzQuMTk4LS4wMzQuMTk0LS4wMzYuMTkxLS4wMzcuMTg3LS4wMzkuMTgzLS4wNC4xNzktLjA0LjE3NS0uMDQyLjE3Mi0uMDQzLjE2OC0uMDQ0LjE2My0uMDQ1LjE2LS4wNDYuMTU1LS4wNDYuMTUyLS4wNDcuMTQ4LS4wNDguMTQzLS4wNDkuMTM5LS4wNDkuMTM2LS4wNS4xMzEtLjA1LjEyNi0uMDUuMTIzLS4wNTEuMTE4LS4wNTIuMTE0LS4wNTEuMTEtLjA1Mi4xMDYtLjA1Mi4xMDEtLjA1Mi4wOTYtLjA1Mi4wOTItLjA1Mi4wODgtLjA1My4wODMtLjA1MS4wNzktLjA1Mi4wNzQtLjA1Mi4wNy0uMDUxLjA2NS0uMDUxLjA2LS4wNTEuMDU2LS4wNS4wNTEtLjA1LjAyMy0uMDI0LjAyMy0uMDI1LjAyMS0uMDI0LjAyLS4wMjQuMDE5LS4wMjQuMDE4LS4wMjQuMDE3LS4wMjQuMDE1LS4wMjMuMDE0LS4wMjQuMDEzLS4wMjMuMDEyLS4wMjMuMDEtLjAyMy4wMS0uMDIyLjAwOC0uMDIyLjAwNi0uMDIyLjAwNi0uMDIyLjAwNC0uMDIyLjAwNC0uMDIxLjAwMS0uMDIxLjAwMS0uMDIxdi00LjEyN2wtLjA3Ny4wNTUtLjA4LjA1My0uMDgzLjA1NC0uMDg1LjA1My0uMDg3LjA1Mi0uMDkuMDUyLS4wOTMuMDUxLS4wOTUuMDUtLjA5Ny4wNS0uMS4wNDktLjEwMi4wNDktLjEwNS4wNDgtLjEwNi4wNDctLjEwOS4wNDctLjExMS4wNDYtLjExNC4wNDUtLjExNS4wNDUtLjExOC4wNDQtLjEyLjA0My0uMTIyLjA0Mi0uMTI0LjA0Mi0uMTI2LjA0MS0uMTI4LjA0LS4xMy4wNC0uMTMyLjAzOC0uMTM0LjAzOC0uMTM1LjAzNy0uMTM4LjAzNy0uMTM5LjAzNS0uMTQyLjAzNS0uMTQzLjAzNC0uMTQ0LjAzMy0uMTQ3LjAzMi0uMTQ4LjAzMS0uMTUuMDMtLjE1MS4wMy0uMTUzLjAyOS0uMTU0LjAyNy0uMTU2LjAyNy0uMTU4LjAyNi0uMTU5LjAyNS0uMTYxLjAyNC0uMTYyLjAyMy0uMTYzLjAyMi0uMTY1LjAyMS0uMTY2LjAyLS4xNjcuMDE5LS4xNjkuMDE4LS4xNjkuMDE3LS4xNzEuMDE2LS4xNzMuMDE1LS4xNzMuMDE0LS4xNzUuMDEzLS4xNzUuMDEyLS4xNzcuMDExLS4xNzguMDEtLjE3OS4wMDgtLjE3OS4wMDgtLjE4MS4wMDYtLjE4Mi4wMDUtLjE4Mi4wMDQtLjE4NC4wMDMtLjE4NC4wMDJoLS4zN2wtLjE4NC0uMDAyLS4xODQtLjAwMy0uMTgyLS4wMDQtLjE4Mi0uMDA1LS4xODEtLjAwNi0uMTc5LS4wMDgtLjE3OS0uMDA4LS4xNzgtLjAxLS4xNzYtLjAxMS0uMTc2LS4wMTItLjE3NS0uMDEzLS4xNzMtLjAxNC0uMTcyLS4wMTUtLjE3MS0uMDE2LS4xNy0uMDE3LS4xNjktLjAxOC0uMTY3LS4wMTktLjE2Ni0uMDItLjE2NS0uMDIxLS4xNjMtLjAyMi0uMTYyLS4wMjMtLjE2MS0uMDI0LS4xNTktLjAyNS0uMTU3LS4wMjYtLjE1Ni0uMDI3LS4xNTUtLjAyNy0uMTUzLS4wMjktLjE1MS0uMDMtLjE1LS4wMy0uMTQ4LS4wMzEtLjE0Ni0uMDMyLS4xNDUtLjAzMy0uMTQzLS4wMzQtLjE0MS0uMDM1LS4xNC0uMDM1LS4xMzctLjAzNy0uMTM2LS4wMzctLjEzNC0uMDM4LS4xMzItLjAzOC0uMTMtLjA0LS4xMjgtLjA0LS4xMjYtLjA0MS0uMTI0LS4wNDItLjEyMi0uMDQyLS4xMi0uMDQ0LS4xMTctLjA0My0uMTE2LS4wNDUtLjExMy0uMDQ1LS4xMTItLjA0Ni0uMTA5LS4wNDctLjEwNi0uMDQ3LS4xMDUtLjA0OC0uMTAyLS4wNDktLjEtLjA0OS0uMDk3LS4wNS0uMDk1LS4wNS0uMDkzLS4wNTItLjA5LS4wNTEtLjA4Ny0uMDUyLS4wODUtLjA1My0uMDgzLS4wNTQtLjA4LS4wNTQtLjA3Ny0uMDU0djQuMTI3em0wLTUuNjU0di4wMTFsLjAwMS4wMjEuMDAzLjAyMS4wMDQuMDIxLjAwNS4wMjIuMDA2LjAyMi4wMDcuMDIyLjAwOS4wMjIuMDEuMDIyLjAxMS4wMjMuMDEyLjAyMy4wMTMuMDIzLjAxNS4wMjQuMDE2LjAyMy4wMTcuMDI0LjAxOC4wMjQuMDE5LjAyNC4wMjEuMDI0LjAyMi4wMjQuMDIzLjAyNS4wMjQuMDI0LjA1Mi4wNS4wNTYuMDUuMDYxLjA1LjA2Ni4wNTEuMDcuMDUxLjA3NS4wNTIuMDc5LjA1MS4wODQuMDUyLjA4OC4wNTIuMDkyLjA1Mi4wOTcuMDUyLjEwMi4wNTIuMTA1LjA1Mi4xMS4wNTEuMTE0LjA1MS4xMTkuMDUyLjEyMy4wNS4xMjcuMDUxLjEzMS4wNS4xMzUuMDQ5LjEzOS4wNDkuMTQ0LjA0OC4xNDcuMDQ4LjE1Mi4wNDcuMTU1LjA0Ni4xNi4wNDUuMTYzLjA0NS4xNjcuMDQ0LjE3MS4wNDIuMTc2LjA0Mi4xNzguMDQuMTgzLjA0LjE4Ny4wMzguMTkuMDM3LjE5NC4wMzYuMTk3LjAzNC4yMDIuMDMzLjIwNC4wMzIuMjA5LjAzLjIxMi4wMjguMjE2LjAyNy4yMTkuMDI1LjIyMi4wMjQuMjI2LjAyMi4yMy4wMi4yMzMuMDE4LjIzNi4wMTYuMjQuMDE0LjI0My4wMTIuMjQ2LjAxLjI0OS4wMDguMjUzLjAwNi4yNTYuMDAzLjI1OS4wMDEuMjYtLjAwMS4yNTctLjAwMy4yNTQtLjAwNi4yNS0uMDA4LjI0Ny0uMDEuMjQ0LS4wMTIuMjQxLS4wMTUuMjM3LS4wMTYuMjMzLS4wMTguMjMxLS4wMi4yMjYtLjAyMi4yMjQtLjAyNC4yMi0uMDI1LjIxNi0uMDI3LjIxMi0uMDI5LjIxLS4wMy4yMDUtLjAzMi4yMDItLjAzMy4xOTgtLjAzNS4xOTQtLjAzNi4xOTEtLjAzNy4xODctLjAzOS4xODMtLjAzOS4xNzktLjA0MS4xNzUtLjA0Mi4xNzItLjA0My4xNjgtLjA0NC4xNjMtLjA0NS4xNi0uMDQ1LjE1NS0uMDQ3LjE1Mi0uMDQ3LjE0OC0uMDQ4LjE0My0uMDQ4LjEzOS0uMDUuMTM2LS4wNDkuMTMxLS4wNS4xMjYtLjA1MS4xMjMtLjA1MS4xMTgtLjA1MS4xMTQtLjA1Mi4xMS0uMDUyLjEwNi0uMDUyLjEwMS0uMDUyLjA5Ni0uMDUyLjA5Mi0uMDUyLjA4OC0uMDUyLjA4My0uMDUyLjA3OS0uMDUyLjA3NC0uMDUxLjA3LS4wNTIuMDY1LS4wNTEuMDYtLjA1LjA1Ni0uMDUxLjA1MS0uMDQ5LjAyMy0uMDI1LjAyMy0uMDI0LjAyMS0uMDI1LjAyLS4wMjQuMDE5LS4wMjQuMDE4LS4wMjQuMDE3LS4wMjQuMDE1LS4wMjMuMDE0LS4wMjMuMDEzLS4wMjQuMDEyLS4wMjIuMDEtLjAyMy4wMS0uMDIzLjAwOC0uMDIyLjAwNi0uMDIyLjAwNi0uMDIyLjAwNC0uMDIxLjAwNC0uMDIyLjAwMS0uMDIxLjAwMS0uMDIxdi00LjEzOWwtLjA3Ny4wNTQtLjA4LjA1NC0uMDgzLjA1NC0uMDg1LjA1Mi0uMDg3LjA1My0uMDkuMDUxLS4wOTMuMDUxLS4wOTUuMDUxLS4wOTcuMDUtLjEuMDQ5LS4xMDIuMDQ5LS4xMDUuMDQ4LS4xMDYuMDQ3LS4xMDkuMDQ3LS4xMTEuMDQ2LS4xMTQuMDQ1LS4xMTUuMDQ0LS4xMTguMDQ0LS4xMi4wNDQtLjEyMi4wNDItLjEyNC4wNDItLjEyNi4wNDEtLjEyOC4wNC0uMTMuMDM5LS4xMzIuMDM5LS4xMzQuMDM4LS4xMzUuMDM3LS4xMzguMDM2LS4xMzkuMDM2LS4xNDIuMDM1LS4xNDMuMDMzLS4xNDQuMDMzLS4xNDcuMDMzLS4xNDguMDMxLS4xNS4wMy0uMTUxLjAzLS4xNTMuMDI4LS4xNTQuMDI4LS4xNTYuMDI3LS4xNTguMDI2LS4xNTkuMDI1LS4xNjEuMDI0LS4xNjIuMDIzLS4xNjMuMDIyLS4xNjUuMDIxLS4xNjYuMDItLjE2Ny4wMTktLjE2OS4wMTgtLjE2OS4wMTctLjE3MS4wMTYtLjE3My4wMTUtLjE3My4wMTQtLjE3NS4wMTMtLjE3NS4wMTItLjE3Ny4wMTEtLjE3OC4wMDktLjE3OS4wMDktLjE3OS4wMDctLjE4MS4wMDctLjE4Mi4wMDUtLjE4Mi4wMDQtLjE4NC4wMDMtLjE4NC4wMDJoLS4zN2wtLjE4NC0uMDAyLS4xODQtLjAwMy0uMTgyLS4wMDQtLjE4Mi0uMDA1LS4xODEtLjAwNy0uMTc5LS4wMDctLjE3OS0uMDA5LS4xNzgtLjAwOS0uMTc2LS4wMTEtLjE3Ni0uMDEyLS4xNzUtLjAxMy0uMTczLS4wMTQtLjE3Mi0uMDE1LS4xNzEtLjAxNi0uMTctLjAxNy0uMTY5LS4wMTgtLjE2Ny0uMDE5LS4xNjYtLjAyLS4xNjUtLjAyMS0uMTYzLS4wMjItLjE2Mi0uMDIzLS4xNjEtLjAyNC0uMTU5LS4wMjUtLjE1Ny0uMDI2LS4xNTYtLjAyNy0uMTU1LS4wMjgtLjE1My0uMDI4LS4xNTEtLjAzLS4xNS0uMDMtLjE0OC0uMDMxLS4xNDYtLjAzMy0uMTQ1LS4wMzMtLjE0My0uMDMzLS4xNDEtLjAzNS0uMTQtLjAzNi0uMTM3LS4wMzYtLjEzNi0uMDM3LS4xMzQtLjAzOC0uMTMyLS4wMzktLjEzLS4wMzktLjEyOC0uMDQtLjEyNi0uMDQxLS4xMjQtLjA0Mi0uMTIyLS4wNDMtLjEyLS4wNDMtLjExNy0uMDQ0LS4xMTYtLjA0NC0uMTEzLS4wNDYtLjExMi0uMDQ2LS4xMDktLjA0Ni0uMTA2LS4wNDctLjEwNS0uMDQ4LS4xMDItLjA0OS0uMS0uMDQ5LS4wOTctLjA1LS4wOTUtLjA1MS0uMDkzLS4wNTEtLjA5LS4wNTEtLjA4Ny0uMDUzLS4wODUtLjA1Mi0uMDgzLS4wNTQtLjA4LS4wNTQtLjA3Ny0uMDU0djQuMTM5em0wLTUuNjY2di4wMTFsLjAwMS4wMi4wMDMuMDIyLjAwNC4wMjEuMDA1LjAyMi4wMDYuMDIxLjAwNy4wMjIuMDA5LjAyMy4wMS4wMjIuMDExLjAyMy4wMTIuMDIzLjAxMy4wMjMuMDE1LjAyMy4wMTYuMDI0LjAxNy4wMjQuMDE4LjAyMy4wMTkuMDI0LjAyMS4wMjUuMDIyLjAyNC4wMjMuMDI0LjAyNC4wMjUuMDUyLjA1LjA1Ni4wNS4wNjEuMDUuMDY2LjA1MS4wNy4wNTEuMDc1LjA1Mi4wNzkuMDUxLjA4NC4wNTIuMDg4LjA1Mi4wOTIuMDUyLjA5Ny4wNTIuMTAyLjA1Mi4xMDUuMDUxLjExLjA1Mi4xMTQuMDUxLjExOS4wNTEuMTIzLjA1MS4xMjcuMDUuMTMxLjA1LjEzNS4wNS4xMzkuMDQ5LjE0NC4wNDguMTQ3LjA0OC4xNTIuMDQ3LjE1NS4wNDYuMTYuMDQ1LjE2My4wNDUuMTY3LjA0My4xNzEuMDQzLjE3Ni4wNDIuMTc4LjA0LjE4My4wNC4xODcuMDM4LjE5LjAzNy4xOTQuMDM2LjE5Ny4wMzQuMjAyLjAzMy4yMDQuMDMyLjIwOS4wMy4yMTIuMDI4LjIxNi4wMjcuMjE5LjAyNS4yMjIuMDI0LjIyNi4wMjEuMjMuMDIuMjMzLjAxOC4yMzYuMDE3LjI0LjAxNC4yNDMuMDEyLjI0Ni4wMS4yNDkuMDA4LjI1My4wMDYuMjU2LjAwMy4yNTkuMDAxLjI2LS4wMDEuMjU3LS4wMDMuMjU0LS4wMDYuMjUtLjAwOC4yNDctLjAxLjI0NC0uMDEzLjI0MS0uMDE0LjIzNy0uMDE2LjIzMy0uMDE4LjIzMS0uMDIuMjI2LS4wMjIuMjI0LS4wMjQuMjItLjAyNS4yMTYtLjAyNy4yMTItLjAyOS4yMS0uMDMuMjA1LS4wMzIuMjAyLS4wMzMuMTk4LS4wMzUuMTk0LS4wMzYuMTkxLS4wMzcuMTg3LS4wMzkuMTgzLS4wMzkuMTc5LS4wNDEuMTc1LS4wNDIuMTcyLS4wNDMuMTY4LS4wNDQuMTYzLS4wNDUuMTYtLjA0NS4xNTUtLjA0Ny4xNTItLjA0Ny4xNDgtLjA0OC4xNDMtLjA0OS4xMzktLjA0OS4xMzYtLjA0OS4xMzEtLjA1MS4xMjYtLjA1LjEyMy0uMDUxLjExOC0uMDUyLjExNC0uMDUxLjExLS4wNTIuMTA2LS4wNTIuMTAxLS4wNTIuMDk2LS4wNTIuMDkyLS4wNTIuMDg4LS4wNTIuMDgzLS4wNTIuMDc5LS4wNTIuMDc0LS4wNTIuMDctLjA1MS4wNjUtLjA1MS4wNi0uMDUxLjA1Ni0uMDUuMDUxLS4wNDkuMDIzLS4wMjUuMDIzLS4wMjUuMDIxLS4wMjQuMDItLjAyNC4wMTktLjAyNC4wMTgtLjAyNC4wMTctLjAyNC4wMTUtLjAyMy4wMTQtLjAyNC4wMTMtLjAyMy4wMTItLjAyMy4wMS0uMDIyLjAxLS4wMjMuMDA4LS4wMjIuMDA2LS4wMjIuMDA2LS4wMjIuMDA0LS4wMjIuMDA0LS4wMjEuMDAxLS4wMjEuMDAxLS4wMjF2LTQuMTUzbC0uMDc3LjA1NC0uMDguMDU0LS4wODMuMDUzLS4wODUuMDUzLS4wODcuMDUzLS4wOS4wNTEtLjA5My4wNTEtLjA5NS4wNTEtLjA5Ny4wNS0uMS4wNDktLjEwMi4wNDgtLjEwNS4wNDgtLjEwNi4wNDgtLjEwOS4wNDYtLjExMS4wNDYtLjExNC4wNDYtLjExNS4wNDQtLjExOC4wNDQtLjEyLjA0My0uMTIyLjA0My0uMTI0LjA0Mi0uMTI2LjA0MS0uMTI4LjA0LS4xMy4wMzktLjEzMi4wMzktLjEzNC4wMzgtLjEzNS4wMzctLjEzOC4wMzYtLjEzOS4wMzYtLjE0Mi4wMzQtLjE0My4wMzQtLjE0NC4wMzMtLjE0Ny4wMzItLjE0OC4wMzItLjE1LjAzLS4xNTEuMDMtLjE1My4wMjgtLjE1NC4wMjgtLjE1Ni4wMjctLjE1OC4wMjYtLjE1OS4wMjQtLjE2MS4wMjQtLjE2Mi4wMjMtLjE2My4wMjMtLjE2NS4wMjEtLjE2Ni4wMi0uMTY3LjAxOS0uMTY5LjAxOC0uMTY5LjAxNy0uMTcxLjAxNi0uMTczLjAxNS0uMTczLjAxNC0uMTc1LjAxMy0uMTc1LjAxMi0uMTc3LjAxLS4xNzguMDEtLjE3OS4wMDktLjE3OS4wMDctLjE4MS4wMDYtLjE4Mi4wMDYtLjE4Mi4wMDQtLjE4NC4wMDMtLjE4NC4wMDEtLjE4NS4wMDEtLjE4NS0uMDAxLS4xODQtLjAwMS0uMTg0LS4wMDMtLjE4Mi0uMDA0LS4xODItLjAwNi0uMTgxLS4wMDYtLjE3OS0uMDA3LS4xNzktLjAwOS0uMTc4LS4wMS0uMTc2LS4wMS0uMTc2LS4wMTItLjE3NS0uMDEzLS4xNzMtLjAxNC0uMTcyLS4wMTUtLjE3MS0uMDE2LS4xNy0uMDE3LS4xNjktLjAxOC0uMTY3LS4wMTktLjE2Ni0uMDItLjE2NS0uMDIxLS4xNjMtLjAyMy0uMTYyLS4wMjMtLjE2MS0uMDI0LS4xNTktLjAyNC0uMTU3LS4wMjYtLjE1Ni0uMDI3LS4xNTUtLjAyOC0uMTUzLS4wMjgtLjE1MS0uMDMtLjE1LS4wMy0uMTQ4LS4wMzItLjE0Ni0uMDMyLS4xNDUtLjAzMy0uMTQzLS4wMzQtLjE0MS0uMDM0LS4xNC0uMDM2LS4xMzctLjAzNi0uMTM2LS4wMzctLjEzNC0uMDM4LS4xMzItLjAzOS0uMTMtLjAzOS0uMTI4LS4wNDEtLjEyNi0uMDQxLS4xMjQtLjA0MS0uMTIyLS4wNDMtLjEyLS4wNDMtLjExNy0uMDQ0LS4xMTYtLjA0NC0uMTEzLS4wNDYtLjExMi0uMDQ2LS4xMDktLjA0Ni0uMTA2LS4wNDgtLjEwNS0uMDQ4LS4xMDItLjA0OC0uMS0uMDUtLjA5Ny0uMDQ5LS4wOTUtLjA1MS0uMDkzLS4wNTEtLjA5LS4wNTItLjA4Ny0uMDUyLS4wODUtLjA1My0uMDgzLS4wNTMtLjA4LS4wNTQtLjA3Ny0uMDU0djQuMTUzem04Ljc0LTguMTc5bC0uMjU3LjAwNC0uMjU0LjAwNS0uMjUuMDA4LS4yNDcuMDExLS4yNDQuMDEyLS4yNDEuMDE0LS4yMzcuMDE2LS4yMzMuMDE4LS4yMzEuMDIxLS4yMjYuMDIyLS4yMjQuMDIzLS4yMi4wMjYtLjIxNi4wMjctLjIxMi4wMjgtLjIxLjAzMS0uMjA1LjAzMi0uMjAyLjAzMy0uMTk4LjAzNC0uMTk0LjAzNi0uMTkxLjAzOC0uMTg3LjAzOC0uMTgzLjA0LS4xNzkuMDQxLS4xNzUuMDQyLS4xNzIuMDQzLS4xNjguMDQzLS4xNjMuMDQ1LS4xNi4wNDYtLjE1NS4wNDYtLjE1Mi4wNDgtLjE0OC4wNDgtLjE0My4wNDgtLjEzOS4wNDktLjEzNi4wNS0uMTMxLjA1LS4xMjYuMDUxLS4xMjMuMDUxLS4xMTguMDUxLS4xMTQuMDUyLS4xMS4wNTItLjEwNi4wNTItLjEwMS4wNTItLjA5Ni4wNTItLjA5Mi4wNTItLjA4OC4wNTItLjA4My4wNTItLjA3OS4wNTItLjA3NC4wNTEtLjA3LjA1Mi0uMDY1LjA1MS0uMDYuMDUtLjA1Ni4wNS0uMDUxLjA1LS4wMjMuMDI1LS4wMjMuMDI0LS4wMjEuMDI0LS4wMi4wMjUtLjAxOS4wMjQtLjAxOC4wMjQtLjAxNy4wMjMtLjAxNS4wMjQtLjAxNC4wMjMtLjAxMy4wMjMtLjAxMi4wMjMtLjAxLjAyMy0uMDEuMDIyLS4wMDguMDIyLS4wMDYuMDIzLS4wMDYuMDIxLS4wMDQuMDIyLS4wMDQuMDIxLS4wMDEuMDIxLS4wMDEuMDIxLjAwMS4wMjEuMDAxLjAyMS4wMDQuMDIxLjAwNC4wMjIuMDA2LjAyMS4wMDYuMDIzLjAwOC4wMjIuMDEuMDIyLjAxLjAyMy4wMTIuMDIzLjAxMy4wMjMuMDE0LjAyMy4wMTUuMDI0LjAxNy4wMjMuMDE4LjAyNC4wMTkuMDI0LjAyLjAyNS4wMjEuMDI0LjAyMy4wMjQuMDIzLjAyNS4wNTEuMDUuMDU2LjA1LjA2LjA1LjA2NS4wNTEuMDcuMDUyLjA3NC4wNTEuMDc5LjA1Mi4wODMuMDUyLjA4OC4wNTIuMDkyLjA1Mi4wOTYuMDUyLjEwMS4wNTIuMTA2LjA1Mi4xMS4wNTIuMTE0LjA1Mi4xMTguMDUxLjEyMy4wNTEuMTI2LjA1MS4xMzEuMDUuMTM2LjA1LjEzOS4wNDkuMTQzLjA0OC4xNDguMDQ4LjE1Mi4wNDguMTU1LjA0Ni4xNi4wNDYuMTYzLjA0NS4xNjguMDQzLjE3Mi4wNDMuMTc1LjA0Mi4xNzkuMDQxLjE4My4wNC4xODcuMDM4LjE5MS4wMzguMTk0LjAzNi4xOTguMDM0LjIwMi4wMzMuMjA1LjAzMi4yMS4wMzEuMjEyLjAyOC4yMTYuMDI3LjIyLjAyNi4yMjQuMDIzLjIyNi4wMjIuMjMxLjAyMS4yMzMuMDE4LjIzNy4wMTYuMjQxLjAxNC4yNDQuMDEyLjI0Ny4wMTEuMjUuMDA4LjI1NC4wMDUuMjU3LjAwNC4yNi4wMDEuMjYtLjAwMS4yNTctLjAwNC4yNTQtLjAwNS4yNS0uMDA4LjI0Ny0uMDExLjI0NC0uMDEyLjI0MS0uMDE0LjIzNy0uMDE2LjIzMy0uMDE4LjIzMS0uMDIxLjIyNi0uMDIyLjIyNC0uMDIzLjIyLS4wMjYuMjE2LS4wMjcuMjEyLS4wMjguMjEtLjAzMS4yMDUtLjAzMi4yMDItLjAzMy4xOTgtLjAzNC4xOTQtLjAzNi4xOTEtLjAzOC4xODctLjAzOC4xODMtLjA0LjE3OS0uMDQxLjE3NS0uMDQyLjE3Mi0uMDQzLjE2OC0uMDQzLjE2My0uMDQ1LjE2LS4wNDYuMTU1LS4wNDYuMTUyLS4wNDguMTQ4LS4wNDguMTQzLS4wNDguMTM5LS4wNDkuMTM2LS4wNS4xMzEtLjA1LjEyNi0uMDUxLjEyMy0uMDUxLjExOC0uMDUxLjExNC0uMDUyLjExLS4wNTIuMTA2LS4wNTIuMTAxLS4wNTIuMDk2LS4wNTIuMDkyLS4wNTIuMDg4LS4wNTIuMDgzLS4wNTIuMDc5LS4wNTIuMDc0LS4wNTEuMDctLjA1Mi4wNjUtLjA1MS4wNi0uMDUuMDU2LS4wNS4wNTEtLjA1LjAyMy0uMDI1LjAyMy0uMDI0LjAyMS0uMDI0LjAyLS4wMjUuMDE5LS4wMjQuMDE4LS4wMjQuMDE3LS4wMjMuMDE1LS4wMjQuMDE0LS4wMjMuMDEzLS4wMjMuMDEyLS4wMjMuMDEtLjAyMy4wMS0uMDIyLjAwOC0uMDIyLjAwNi0uMDIzLjAwNi0uMDIxLjAwNC0uMDIyLjAwNC0uMDIxLjAwMS0uMDIxLjAwMS0uMDIxLS4wMDEtLjAyMS0uMDAxLS4wMjEtLjAwNC0uMDIxLS4wMDQtLjAyMi0uMDA2LS4wMjEtLjAwNi0uMDIzLS4wMDgtLjAyMi0uMDEtLjAyMi0uMDEtLjAyMy0uMDEyLS4wMjMtLjAxMy0uMDIzLS4wMTQtLjAyMy0uMDE1LS4wMjQtLjAxNy0uMDIzLS4wMTgtLjAyNC0uMDE5LS4wMjQtLjAyLS4wMjUtLjAyMS0uMDI0LS4wMjMtLjAyNC0uMDIzLS4wMjUtLjA1MS0uMDUtLjA1Ni0uMDUtLjA2LS4wNS0uMDY1LS4wNTEtLjA3LS4wNTItLjA3NC0uMDUxLS4wNzktLjA1Mi0uMDgzLS4wNTItLjA4OC0uMDUyLS4wOTItLjA1Mi0uMDk2LS4wNTItLjEwMS0uMDUyLS4xMDYtLjA1Mi0uMTEtLjA1Mi0uMTE0LS4wNTItLjExOC0uMDUxLS4xMjMtLjA1MS0uMTI2LS4wNTEtLjEzMS0uMDUtLjEzNi0uMDUtLjEzOS0uMDQ5LS4xNDMtLjA0OC0uMTQ4LS4wNDgtLjE1Mi0uMDQ4LS4xNTUtLjA0Ni0uMTYtLjA0Ni0uMTYzLS4wNDUtLjE2OC0uMDQzLS4xNzItLjA0My0uMTc1LS4wNDItLjE3OS0uMDQxLS4xODMtLjA0LS4xODctLjAzOC0uMTkxLS4wMzgtLjE5NC0uMDM2LS4xOTgtLjAzNC0uMjAyLS4wMzMtLjIwNS0uMDMyLS4yMS0uMDMxLS4yMTItLjAyOC0uMjE2LS4wMjctLjIyLS4wMjYtLjIyNC0uMDIzLS4yMjYtLjAyMi0uMjMxLS4wMjEtLjIzMy0uMDE4LS4yMzctLjAxNi0uMjQxLS4wMTQtLjI0NC0uMDEyLS4yNDctLjAxMS0uMjUtLjAwOC0uMjU0LS4wMDUtLjI1Ny0uMDA0LS4yNi0uMDAxLS4yNi4wMDF6IiB0cmFuc2Zvcm09InNjYWxlKC41KSI+PC9wYXRoPjwvc3ltYm9sPjwvZGVmcz48ZGVmcz48c3ltYm9sIGhlaWdodD0iMjQiIHdpZHRoPSIyNCIgaWQ9ImNsb2NrIj48cGF0aCBkPSJNMTIgMmM1LjUxNCAwIDEwIDQuNDg2IDEwIDEwcy00LjQ4NiAxMC0xMCAxMC0xMC00LjQ4Ni0xMC0xMCA0LjQ4Ni0xMCAxMC0xMHptMC0yYy02LjYyNyAwLTEyIDUuMzczLTEyIDEyczUuMzczIDEyIDEyIDEyIDEyLTUuMzczIDEyLTEyLTUuMzczLTEyLTEyLTEyem01Ljg0OCAxMi40NTljLjIwMi4wMzguMjAyLjMzMy4wMDEuMzcyLTEuOTA3LjM2MS02LjA0NSAxLjExMS02LjU0NyAxLjExMS0uNzE5IDAtMS4zMDEtLjU4Mi0xLjMwMS0xLjMwMSAwLS41MTIuNzctNS40NDcgMS4xMjUtNy40NDUuMDM0LS4xOTIuMzEyLS4xODEuMzQzLjAxNGwuOTg1IDYuMjM4IDUuMzk0IDEuMDExeiIgdHJhbnNmb3JtPSJzY2FsZSguNSkiPjwvcGF0aD48L3N5bWJvbD48L2RlZnM+PGxpbmUgc3Ryb2tlPSIjOTk5IiBzdHJva2Utd2lkdGg9IjAuNXB4IiBjbGFzcz0iMjAwIiB5Mj0iNzc5IiB4Mj0iNzUiIHkxPSI4MCIgeDE9Ijc1IiBpZD0iYWN0b3I2Ij48L2xpbmU+PGcgY2xhc3M9ImFjdG9yLW1hbiI+PGxpbmUgeTI9IjQ1IiB4Mj0iNzUiIHkxPSIyNSIgeDE9Ijc1IiBpZD0iYWN0b3ItbWFuLXRvcnNvNiI+PC9saW5lPjxsaW5lIHkyPSIzMyIgeDI9IjkzIiB5MT0iMzMiIHgxPSI1NyIgaWQ9ImFjdG9yLW1hbi1hcm1zNiI+PC9saW5lPjxsaW5lIHkyPSI0NSIgeDI9Ijc1IiB5MT0iNjAiIHgxPSI1NyI+PC9saW5lPjxsaW5lIHkyPSI2MCIgeDI9IjkxIiB5MT0iNDUiIHgxPSI3NSI+PC9saW5lPjxjaXJjbGUgaGVpZ2h0PSI2NSIgd2lkdGg9IjE1MCIgcj0iMTUiIGN5PSIxMCIgY3g9Ijc1Ij48L2NpcmNsZT48dGV4dCBzdHlsZT0idGV4dC1hbmNob3I6IG1pZGRsZTsgZm9udC1zaXplOiAxNnB4OyBmb250LXdlaWdodDogNDAwOyIgY2xhc3M9ImFjdG9yIiBhbGlnbm1lbnQtYmFzZWxpbmU9ImNlbnRyYWwiIGRvbWluYW50LWJhc2VsaW5lPSJjZW50cmFsIiB5PSI2Ny41IiB4PSI3NSI+PHRzcGFuIGR5PSIwIiB4PSI3NSI+Q29uc3VtZXI8L3RzcGFuPjwvdGV4dD48L2c+PGc+PGxpbmUgc3Ryb2tlPSIjOTk5IiBzdHJva2Utd2lkdGg9IjAuNXB4IiBjbGFzcz0iMjAwIiB5Mj0iNzc5IiB4Mj0iMzIwIiB5MT0iNSIgeDE9IjMyMCIgaWQ9ImFjdG9yNyI+PC9saW5lPjxnIGlkPSJyb290LTciPjxyZWN0IGNsYXNzPSJhY3RvciIgcnk9IjMiIHJ4PSIzIiBoZWlnaHQ9IjY1IiB3aWR0aD0iMTYzIiBzdHJva2U9IiM2NjYiIGZpbGw9IiNlYWVhZWEiIHk9IjAiIHg9IjIzOC41Ij48L3JlY3Q+PHRleHQgc3R5bGU9InRleHQtYW5jaG9yOiBtaWRkbGU7IGZvbnQtc2l6ZTogMTZweDsgZm9udC13ZWlnaHQ6IDQwMDsiIGNsYXNzPSJhY3RvciIgYWxpZ25tZW50LWJhc2VsaW5lPSJjZW50cmFsIiBkb21pbmFudC1iYXNlbGluZT0iY2VudHJhbCIgeT0iMzIuNSIgeD0iMzIwIj48dHNwYW4gZHk9IjAiIHg9IjMyMCI+Q29uc3VtZXIgSW50ZXJmYWNlPC90c3Bhbj48L3RleHQ+PC9nPjwvZz48Zz48bGluZSBzdHJva2U9IiM5OTkiIHN0cm9rZS13aWR0aD0iMC41cHgiIGNsYXNzPSIyMDAiIHkyPSI3NzkiIHgyPSI2ODEiIHkxPSI1IiB4MT0iNjgxIiBpZD0iYWN0b3I4Ij48L2xpbmU+PGcgaWQ9InJvb3QtOCI+PHJlY3QgY2xhc3M9ImFjdG9yIiByeT0iMyIgcng9IjMiIGhlaWdodD0iNjUiIHdpZHRoPSIxODQiIHN0cm9rZT0iIzY2NiIgZmlsbD0iI2VhZWFlYSIgeT0iMCIgeD0iNTg5Ij48L3JlY3Q+PHRleHQgc3R5bGU9InRleHQtYW5jaG9yOiBtaWRkbGU7IGZvbnQtc2l6ZTogMTZweDsgZm9udC13ZWlnaHQ6IDQwMDsiIGNsYXNzPSJhY3RvciIgYWxpZ25tZW50LWJhc2VsaW5lPSJjZW50cmFsIiBkb21pbmFudC1iYXNlbGluZT0iY2VudHJhbCIgeT0iMzIuNSIgeD0iNjgxIj48dHNwYW4gZHk9IjAiIHg9IjY4MSI+U3VydmV5IFRlbXBsYXRlIFN0b3JlPC90c3Bhbj48L3RleHQ+PC9nPjwvZz48Zz48bGluZSBzdHJva2U9IiM5OTkiIHN0cm9rZS13aWR0aD0iMC41cHgiIGNsYXNzPSIyMDAiIHkyPSI3NzkiIHgyPSI5MDMiIHkxPSI1IiB4MT0iOTAzIiBpZD0iYWN0b3I5Ij48L2xpbmU+PGcgaWQ9InJvb3QtOSI+PHJlY3QgY2xhc3M9ImFjdG9yIiByeT0iMyIgcng9IjMiIGhlaWdodD0iNjUiIHdpZHRoPSIxNjAiIHN0cm9rZT0iIzY2NiIgZmlsbD0iI2VhZWFlYSIgeT0iMCIgeD0iODIzIj48L3JlY3Q+PHRleHQgc3R5bGU9InRleHQtYW5jaG9yOiBtaWRkbGU7IGZvbnQtc2l6ZTogMTZweDsgZm9udC13ZWlnaHQ6IDQwMDsiIGNsYXNzPSJhY3RvciIgYWxpZ25tZW50LWJhc2VsaW5lPSJjZW50cmFsIiBkb21pbmFudC1iYXNlbGluZT0iY2VudHJhbCIgeT0iMzIuNSIgeD0iOTAzIj48dHNwYW4gZHk9IjAiIHg9IjkwMyI+U3VydmV5IERhdGEgUXVldWU8L3RzcGFuPjwvdGV4dD48L2c+PC9nPjxnPjxsaW5lIHN0cm9rZT0iIzk5OSIgc3Ryb2tlLXdpZHRoPSIwLjVweCIgY2xhc3M9IjIwMCIgeTI9Ijc3OSIgeDI9IjEzNTAiIHkxPSI1IiB4MT0iMTM1MCIgaWQ9ImFjdG9yMTAiPjwvbGluZT48ZyBpZD0icm9vdC0xMCI+PHJlY3QgY2xhc3M9ImFjdG9yIiByeT0iMyIgcng9IjMiIGhlaWdodD0iNjUiIHdpZHRoPSIxNTEiIHN0cm9rZT0iIzY2NiIgZmlsbD0iI2VhZWFlYSIgeT0iMCIgeD0iMTI3NC41Ij48L3JlY3Q+PHRleHQgc3R5bGU9InRleHQtYW5jaG9yOiBtaWRkbGU7IGZvbnQtc2l6ZTogMTZweDsgZm9udC13ZWlnaHQ6IDQwMDsiIGNsYXNzPSJhY3RvciIgYWxpZ25tZW50LWJhc2VsaW5lPSJjZW50cmFsIiBkb21pbmFudC1iYXNlbGluZT0iY2VudHJhbCIgeT0iMzIuNSIgeD0iMTM1MCI+PHRzcGFuIGR5PSIwIiB4PSIxMzUwIj5TdXJ2ZXkgRGF0YSBTdG9yZTwvdHNwYW4+PC90ZXh0PjwvZz48L2c+PGRlZnM+PG1hcmtlciBvcmllbnQ9ImF1dG8iIG1hcmtlckhlaWdodD0iMTIiIG1hcmtlcldpZHRoPSIxMiIgbWFya2VyVW5pdHM9InVzZXJTcGFjZU9uVXNlIiByZWZZPSI1IiByZWZYPSI5IiBpZD0iYXJyb3doZWFkIj48cGF0aCBkPSJNIDAgMCBMIDEwIDUgTCAwIDEwIHoiPjwvcGF0aD48L21hcmtlcj48L2RlZnM+PGRlZnM+PG1hcmtlciByZWZZPSI1IiByZWZYPSI0IiBvcmllbnQ9ImF1dG8iIG1hcmtlckhlaWdodD0iOCIgbWFya2VyV2lkdGg9IjE1IiBpZD0iY3Jvc3NoZWFkIj48cGF0aCBzdHlsZT0ic3Ryb2tlLWRhc2hhcnJheTogMCwgMDsiIGQ9Ik0gMSwyIEwgNiw3IE0gNiwyIEwgMSw3IiBzdHJva2Utd2lkdGg9IjFwdCIgc3Ryb2tlPSIjMDAwMDAwIiBmaWxsPSJub25lIj48L3BhdGg+PC9tYXJrZXI+PC9kZWZzPjxkZWZzPjxtYXJrZXIgb3JpZW50PSJhdXRvIiBtYXJrZXJIZWlnaHQ9IjI4IiBtYXJrZXJXaWR0aD0iMjAiIHJlZlk9IjciIHJlZlg9IjE4IiBpZD0iZmlsbGVkLWhlYWQiPjxwYXRoIGQ9Ik0gMTgsNyBMOSwxMyBMMTQsNyBMOSwxIFoiPjwvcGF0aD48L21hcmtlcj48L2RlZnM+PGRlZnM+PG1hcmtlciBvcmllbnQ9ImF1dG8iIG1hcmtlckhlaWdodD0iNDAiIG1hcmtlcldpZHRoPSI2MCIgcmVmWT0iMTUiIHJlZlg9IjE1IiBpZD0ic2VxdWVuY2VudW1iZXIiPjxjaXJjbGUgcj0iNiIgY3k9IjE1IiBjeD0iMTUiPjwvY2lyY2xlPjwvbWFya2VyPjwvZGVmcz48Zz48cmVjdCBjbGFzcz0ibm90ZSIgcnk9IjAiIHJ4PSIwIiBoZWlnaHQ9Ijc2IiB3aWR0aD0iMzk3IiBzdHJva2U9IiM2NjYiIGZpbGw9IiNFREYyQUUiIHk9IjM5MyIgeD0iOTI4Ij48L3JlY3Q+PHRleHQgc3R5bGU9ImZvbnQtc2l6ZTogMTZweDsgZm9udC13ZWlnaHQ6IDQwMDsiIGR5PSIxZW0iIGNsYXNzPSJub3RlVGV4dCIgYWxpZ25tZW50LWJhc2VsaW5lPSJtaWRkbGUiIGRvbWluYW50LWJhc2VsaW5lPSJtaWRkbGUiIHRleHQtYW5jaG9yPSJtaWRkbGUiIHk9IjM5OCIgeD0iMTEyNyI+PHRzcGFuIHg9IjExMjciPk1lc3NhZ2UgQnJva2VyIGlzIHJlY29tbWVuZGVkIDwvdHNwYW4+PC90ZXh0Pjx0ZXh0IHN0eWxlPSJmb250LXNpemU6IDE2cHg7IGZvbnQtd2VpZ2h0OiA0MDA7IiBkeT0iMWVtIiBjbGFzcz0ibm90ZVRleHQiIGFsaWdubWVudC1iYXNlbGluZT0ibWlkZGxlIiBkb21pbmFudC1iYXNlbGluZT0ibWlkZGxlIiB0ZXh0LWFuY2hvcj0ibWlkZGxlIiB5PSI0MTciIHg9IjExMjciPjx0c3BhbiB4PSIxMTI3Ij4gdG8gY2hhbm5lbGlzZSB0aGUgc3VydmV5IGRhdGEgZnJvbSBkaWZmZXJlbnQgc291cmNlcyA8L3RzcGFuPjwvdGV4dD48dGV4dCBzdHlsZT0iZm9udC1zaXplOiAxNnB4OyBmb250LXdlaWdodDogNDAwOyIgZHk9IjFlbSIgY2xhc3M9Im5vdGVUZXh0IiBhbGlnbm1lbnQtYmFzZWxpbmU9Im1pZGRsZSIgZG9taW5hbnQtYmFzZWxpbmU9Im1pZGRsZSIgdGV4dC1hbmNob3I9Im1pZGRsZSIgeT0iNDM1IiB4PSIxMTI3Ij48dHNwYW4geD0iMTEyNyI+IGludG8gdGhlIERhdGFiYXNlIHRvIHJlZHVjZSBsb2FkIG9uIGl0PC90c3Bhbj48L3RleHQ+PC9nPjx0ZXh0IHN0eWxlPSJmb250LXNpemU6IDE2cHg7IGZvbnQtd2VpZ2h0OiA0MDA7IiBkeT0iMWVtIiBjbGFzcz0ibWVzc2FnZVRleHQiIGFsaWdubWVudC1iYXNlbGluZT0ibWlkZGxlIiBkb21pbmFudC1iYXNlbGluZT0ibWlkZGxlIiB0ZXh0LWFuY2hvcj0ibWlkZGxlIiB5PSI4MCIgeD0iMTk4Ij5PcGVuIFN1cnZleSBMaW5rPC90ZXh0PjxsaW5lIHN0eWxlPSJmaWxsOiBub25lOyIgbWFya2VyLXN0YXJ0PSJ1cmwoI3NlcXVlbmNlbnVtYmVyKSIgbWFya2VyLWVuZD0idXJsKCNmaWxsZWQtaGVhZCkiIHN0cm9rZT0ibm9uZSIgc3Ryb2tlLXdpZHRoPSIyIiBjbGFzcz0ibWVzc2FnZUxpbmUwIiB5Mj0iMTEzIiB4Mj0iMzIwIiB5MT0iMTEzIiB4MT0iNzUiPjwvbGluZT48dGV4dCBjbGFzcz0ic2VxdWVuY2VOdW1iZXIiIHRleHQtYW5jaG9yPSJtaWRkbGUiIGZvbnQtc2l6ZT0iMTJweCIgZm9udC1mYW1pbHk9InNhbnMtc2VyaWYiIHk9IjExNyIgeD0iNzUiPjE8L3RleHQ+PHRleHQgc3R5bGU9ImZvbnQtc2l6ZTogMTZweDsgZm9udC13ZWlnaHQ6IDQwMDsiIGR5PSIxZW0iIGNsYXNzPSJtZXNzYWdlVGV4dCIgYWxpZ25tZW50LWJhc2VsaW5lPSJtaWRkbGUiIGRvbWluYW50LWJhc2VsaW5lPSJtaWRkbGUiIHRleHQtYW5jaG9yPSJtaWRkbGUiIHk9IjEyOCIgeD0iNTAxIj5SZXF1ZXN0IGZvciBTdXJ2ZXkgdGVtcGxhdGU8L3RleHQ+PGxpbmUgc3R5bGU9ImZpbGw6IG5vbmU7IiBtYXJrZXItc3RhcnQ9InVybCgjc2VxdWVuY2VudW1iZXIpIiBtYXJrZXItZW5kPSJ1cmwoI2ZpbGxlZC1oZWFkKSIgc3Ryb2tlPSJub25lIiBzdHJva2Utd2lkdGg9IjIiIGNsYXNzPSJtZXNzYWdlTGluZTAiIHkyPSIxNjEiIHgyPSI2ODEiIHkxPSIxNjEiIHgxPSIzMjAiPjwvbGluZT48dGV4dCBjbGFzcz0ic2VxdWVuY2VOdW1iZXIiIHRleHQtYW5jaG9yPSJtaWRkbGUiIGZvbnQtc2l6ZT0iMTJweCIgZm9udC1mYW1pbHk9InNhbnMtc2VyaWYiIHk9IjE2NSIgeD0iMzIwIj4yPC90ZXh0Pjx0ZXh0IHN0eWxlPSJmb250LXNpemU6IDE2cHg7IGZvbnQtd2VpZ2h0OiA0MDA7IiBkeT0iMWVtIiBjbGFzcz0ibWVzc2FnZVRleHQiIGFsaWdubWVudC1iYXNlbGluZT0ibWlkZGxlIiBkb21pbmFudC1iYXNlbGluZT0ibWlkZGxlIiB0ZXh0LWFuY2hvcj0ibWlkZGxlIiB5PSIxNzYiIHg9IjUwMSI+UmV0dXJuIHRlbXBsYXRlPC90ZXh0PjxsaW5lIHN0eWxlPSJmaWxsOiBub25lOyIgbWFya2VyLXN0YXJ0PSJ1cmwoI3NlcXVlbmNlbnVtYmVyKSIgbWFya2VyLWVuZD0idXJsKCNmaWxsZWQtaGVhZCkiIHN0cm9rZT0ibm9uZSIgc3Ryb2tlLXdpZHRoPSIyIiBjbGFzcz0ibWVzc2FnZUxpbmUwIiB5Mj0iMjA5IiB4Mj0iMzIwIiB5MT0iMjA5IiB4MT0iNjgxIj48L2xpbmU+PHRleHQgY2xhc3M9InNlcXVlbmNlTnVtYmVyIiB0ZXh0LWFuY2hvcj0ibWlkZGxlIiBmb250LXNpemU9IjEycHgiIGZvbnQtZmFtaWx5PSJzYW5zLXNlcmlmIiB5PSIyMTMiIHg9IjY4MSI+MzwvdGV4dD48dGV4dCBzdHlsZT0iZm9udC1zaXplOiAxNnB4OyBmb250LXdlaWdodDogNDAwOyIgZHk9IjFlbSIgY2xhc3M9Im1lc3NhZ2VUZXh0IiBhbGlnbm1lbnQtYmFzZWxpbmU9Im1pZGRsZSIgZG9taW5hbnQtYmFzZWxpbmU9Im1pZGRsZSIgdGV4dC1hbmNob3I9Im1pZGRsZSIgeT0iMjI0IiB4PSIzMjAiPlJlbmRlciBjb25zdW1lciBzdXJ2ZXkgdGVtcGxhdGU8L3RleHQ+PHBhdGggc3R5bGU9ImZpbGw6IG5vbmU7IiBtYXJrZXItc3RhcnQ9InVybCgjc2VxdWVuY2VudW1iZXIpIiBtYXJrZXItZW5kPSJ1cmwoI2ZpbGxlZC1oZWFkKSIgc3Ryb2tlPSJub25lIiBzdHJva2Utd2lkdGg9IjIiIGNsYXNzPSJtZXNzYWdlTGluZTAiIGQ9Ik0gMzIwLDI1NyBDIDM4MCwyNDcgMzgwLDI4NyAzMjAsMjc3Ij48L3BhdGg+PHRleHQgY2xhc3M9InNlcXVlbmNlTnVtYmVyIiB0ZXh0LWFuY2hvcj0ibWlkZGxlIiBmb250LXNpemU9IjEycHgiIGZvbnQtZmFtaWx5PSJzYW5zLXNlcmlmIiB5PSIyNjEiIHg9IjMyMCI+NDwvdGV4dD48dGV4dCBzdHlsZT0iZm9udC1zaXplOiAxNnB4OyBmb250LXdlaWdodDogNDAwOyIgZHk9IjFlbSIgY2xhc3M9Im1lc3NhZ2VUZXh0IiBhbGlnbm1lbnQtYmFzZWxpbmU9Im1pZGRsZSIgZG9taW5hbnQtYmFzZWxpbmU9Im1pZGRsZSIgdGV4dC1hbmNob3I9Im1pZGRsZSIgeT0iMzAyIiB4PSIxOTgiPkZpbGwgaW4gc3VydmV5IGRhdGE8L3RleHQ+PGxpbmUgc3R5bGU9ImZpbGw6IG5vbmU7IiBtYXJrZXItc3RhcnQ9InVybCgjc2VxdWVuY2VudW1iZXIpIiBtYXJrZXItZW5kPSJ1cmwoI2ZpbGxlZC1oZWFkKSIgc3Ryb2tlPSJub25lIiBzdHJva2Utd2lkdGg9IjIiIGNsYXNzPSJtZXNzYWdlTGluZTAiIHkyPSIzMzUiIHgyPSIzMjAiIHkxPSIzMzUiIHgxPSI3NSI+PC9saW5lPjx0ZXh0IGNsYXNzPSJzZXF1ZW5jZU51bWJlciIgdGV4dC1hbmNob3I9Im1pZGRsZSIgZm9udC1zaXplPSIxMnB4IiBmb250LWZhbWlseT0ic2Fucy1zZXJpZiIgeT0iMzM5IiB4PSI3NSI+NTwvdGV4dD48dGV4dCBzdHlsZT0iZm9udC1zaXplOiAxNnB4OyBmb250LXdlaWdodDogNDAwOyIgZHk9IjFlbSIgY2xhc3M9Im1lc3NhZ2VUZXh0IiBhbGlnbm1lbnQtYmFzZWxpbmU9Im1pZGRsZSIgZG9taW5hbnQtYmFzZWxpbmU9Im1pZGRsZSIgdGV4dC1hbmNob3I9Im1pZGRsZSIgeT0iMzUwIiB4PSI2MTIiPlNlbmQgdGhlIHN1dmV5IGRhdGEgdG8gbWVzc2FnZSBicm9rZXI8L3RleHQ+PGxpbmUgc3R5bGU9ImZpbGw6IG5vbmU7IiBtYXJrZXItc3RhcnQ9InVybCgjc2VxdWVuY2VudW1iZXIpIiBtYXJrZXItZW5kPSJ1cmwoI2ZpbGxlZC1oZWFkKSIgc3Ryb2tlPSJub25lIiBzdHJva2Utd2lkdGg9IjIiIGNsYXNzPSJtZXNzYWdlTGluZTAiIHkyPSIzODMiIHgyPSI5MDMiIHkxPSIzODMiIHgxPSIzMjAiPjwvbGluZT48dGV4dCBjbGFzcz0ic2VxdWVuY2VOdW1iZXIiIHRleHQtYW5jaG9yPSJtaWRkbGUiIGZvbnQtc2l6ZT0iMTJweCIgZm9udC1mYW1pbHk9InNhbnMtc2VyaWYiIHk9IjM4NyIgeD0iMzIwIj42PC90ZXh0Pjx0ZXh0IHN0eWxlPSJmb250LXNpemU6IDE2cHg7IGZvbnQtd2VpZ2h0OiA0MDA7IiBkeT0iMWVtIiBjbGFzcz0ibWVzc2FnZVRleHQiIGFsaWdubWVudC1iYXNlbGluZT0ibWlkZGxlIiBkb21pbmFudC1iYXNlbGluZT0ibWlkZGxlIiB0ZXh0LWFuY2hvcj0ibWlkZGxlIiB5PSI0ODQiIHg9IjExMjciPkEoc3luYykgcHVibGlzaCBzdXJ2ZXkgZGF0YSBpbnRvIGRhdGFiYXNlPC90ZXh0PjxsaW5lIHN0eWxlPSJmaWxsOiBub25lOyIgbWFya2VyLXN0YXJ0PSJ1cmwoI3NlcXVlbmNlbnVtYmVyKSIgbWFya2VyLWVuZD0idXJsKCNmaWxsZWQtaGVhZCkiIHN0cm9rZT0ibm9uZSIgc3Ryb2tlLXdpZHRoPSIyIiBjbGFzcz0ibWVzc2FnZUxpbmUwIiB5Mj0iNTE3IiB4Mj0iMTM1MCIgeTE9IjUxNyIgeDE9IjkwMyI+PC9saW5lPjx0ZXh0IGNsYXNzPSJzZXF1ZW5jZU51bWJlciIgdGV4dC1hbmNob3I9Im1pZGRsZSIgZm9udC1zaXplPSIxMnB4IiBmb250LWZhbWlseT0ic2Fucy1zZXJpZiIgeT0iNTIxIiB4PSI5MDMiPjc8L3RleHQ+PHRleHQgc3R5bGU9ImZvbnQtc2l6ZTogMTZweDsgZm9udC13ZWlnaHQ6IDQwMDsiIGR5PSIxZW0iIGNsYXNzPSJtZXNzYWdlVGV4dCIgYWxpZ25tZW50LWJhc2VsaW5lPSJtaWRkbGUiIGRvbWluYW50LWJhc2VsaW5lPSJtaWRkbGUiIHRleHQtYW5jaG9yPSJtaWRkbGUiIHk9IjUzMiIgeD0iNjEyIj5TZW5kIGFja25vbHdlZGdlbWVudCBhZnRlciBxdWV1aW5nIGNvbXBsZXRlZCBzdXJ2ZXkgZGF0YTwvdGV4dD48bGluZSBzdHlsZT0iZmlsbDogbm9uZTsiIG1hcmtlci1zdGFydD0idXJsKCNzZXF1ZW5jZW51bWJlcikiIG1hcmtlci1lbmQ9InVybCgjZmlsbGVkLWhlYWQpIiBzdHJva2U9Im5vbmUiIHN0cm9rZS13aWR0aD0iMiIgY2xhc3M9Im1lc3NhZ2VMaW5lMCIgeTI9IjU2NSIgeDI9IjMyMCIgeTE9IjU2NSIgeDE9IjkwMyI+PC9saW5lPjx0ZXh0IGNsYXNzPSJzZXF1ZW5jZU51bWJlciIgdGV4dC1hbmNob3I9Im1pZGRsZSIgZm9udC1zaXplPSIxMnB4IiBmb250LWZhbWlseT0ic2Fucy1zZXJpZiIgeT0iNTY5IiB4PSI5MDMiPjg8L3RleHQ+PHRleHQgc3R5bGU9ImZvbnQtc2l6ZTogMTZweDsgZm9udC13ZWlnaHQ6IDQwMDsiIGR5PSIxZW0iIGNsYXNzPSJtZXNzYWdlVGV4dCIgYWxpZ25tZW50LWJhc2VsaW5lPSJtaWRkbGUiIGRvbWluYW50LWJhc2VsaW5lPSJtaWRkbGUiIHRleHQtYW5jaG9yPSJtaWRkbGUiIHk9IjU4MCIgeD0iNTAxIj5SZXF1ZXN0IGZvciBTdXJ2ZXkgY29tcGxldGlvbiB0ZW1wbGF0ZTwvdGV4dD48bGluZSBzdHlsZT0iZmlsbDogbm9uZTsiIG1hcmtlci1zdGFydD0idXJsKCNzZXF1ZW5jZW51bWJlcikiIG1hcmtlci1lbmQ9InVybCgjZmlsbGVkLWhlYWQpIiBzdHJva2U9Im5vbmUiIHN0cm9rZS13aWR0aD0iMiIgY2xhc3M9Im1lc3NhZ2VMaW5lMCIgeTI9IjYxMyIgeDI9IjY4MSIgeTE9IjYxMyIgeDE9IjMyMCI+PC9saW5lPjx0ZXh0IGNsYXNzPSJzZXF1ZW5jZU51bWJlciIgdGV4dC1hbmNob3I9Im1pZGRsZSIgZm9udC1zaXplPSIxMnB4IiBmb250LWZhbWlseT0ic2Fucy1zZXJpZiIgeT0iNjE3IiB4PSIzMjAiPjk8L3RleHQ+PHRleHQgc3R5bGU9ImZvbnQtc2l6ZTogMTZweDsgZm9udC13ZWlnaHQ6IDQwMDsiIGR5PSIxZW0iIGNsYXNzPSJtZXNzYWdlVGV4dCIgYWxpZ25tZW50LWJhc2VsaW5lPSJtaWRkbGUiIGRvbWluYW50LWJhc2VsaW5lPSJtaWRkbGUiIHRleHQtYW5jaG9yPSJtaWRkbGUiIHk9IjYyOCIgeD0iMzIwIj5SZW5kZXIgc3VydmV5IGNvbXBsZXRpb24gdGVtcGxhdGU8L3RleHQ+PHBhdGggc3R5bGU9ImZpbGw6IG5vbmU7IiBtYXJrZXItc3RhcnQ9InVybCgjc2VxdWVuY2VudW1iZXIpIiBtYXJrZXItZW5kPSJ1cmwoI2ZpbGxlZC1oZWFkKSIgc3Ryb2tlPSJub25lIiBzdHJva2Utd2lkdGg9IjIiIGNsYXNzPSJtZXNzYWdlTGluZTAiIGQ9Ik0gMzIwLDY2MSBDIDM4MCw2NTEgMzgwLDY5MSAzMjAsNjgxIj48L3BhdGg+PHRleHQgY2xhc3M9InNlcXVlbmNlTnVtYmVyIiB0ZXh0LWFuY2hvcj0ibWlkZGxlIiBmb250LXNpemU9IjEycHgiIGZvbnQtZmFtaWx5PSJzYW5zLXNlcmlmIiB5PSI2NjUiIHg9IjMyMCI+MTA8L3RleHQ+PHRleHQgc3R5bGU9ImZvbnQtc2l6ZTogMTZweDsgZm9udC13ZWlnaHQ6IDQwMDsiIGR5PSIxZW0iIGNsYXNzPSJtZXNzYWdlVGV4dCIgYWxpZ25tZW50LWJhc2VsaW5lPSJtaWRkbGUiIGRvbWluYW50LWJhc2VsaW5lPSJtaWRkbGUiIHRleHQtYW5jaG9yPSJtaWRkbGUiIHk9IjcwNiIgeD0iMTk4Ij5TdXJ2ZXkgY29tcGxldGlvbiBwYWdlPC90ZXh0PjxsaW5lIHN0eWxlPSJmaWxsOiBub25lOyIgbWFya2VyLXN0YXJ0PSJ1cmwoI3NlcXVlbmNlbnVtYmVyKSIgbWFya2VyLWVuZD0idXJsKCNmaWxsZWQtaGVhZCkiIHN0cm9rZT0ibm9uZSIgc3Ryb2tlLXdpZHRoPSIyIiBjbGFzcz0ibWVzc2FnZUxpbmUwIiB5Mj0iNzM5IiB4Mj0iNzUiIHkxPSI3MzkiIHgxPSIzMjAiPjwvbGluZT48dGV4dCBjbGFzcz0ic2VxdWVuY2VOdW1iZXIiIHRleHQtYW5jaG9yPSJtaWRkbGUiIGZvbnQtc2l6ZT0iMTJweCIgZm9udC1mYW1pbHk9InNhbnMtc2VyaWYiIHk9Ijc0MyIgeD0iMzIwIj4xMTwvdGV4dD48ZyBjbGFzcz0iYWN0b3ItbWFuIj48bGluZSB5Mj0iODA0IiB4Mj0iNzUiIHkxPSI3ODQiIHgxPSI3NSIgaWQ9ImFjdG9yLW1hbi10b3JzbzEwIj48L2xpbmU+PGxpbmUgeTI9Ijc5MiIgeDI9IjkzIiB5MT0iNzkyIiB4MT0iNTciIGlkPSJhY3Rvci1tYW4tYXJtczEwIj48L2xpbmU+PGxpbmUgeTI9IjgwNCIgeDI9Ijc1IiB5MT0iODE5IiB4MT0iNTciPjwvbGluZT48bGluZSB5Mj0iODE5IiB4Mj0iOTEiIHkxPSI4MDQiIHgxPSI3NSI+PC9saW5lPjxjaXJjbGUgaGVpZ2h0PSI2NSIgd2lkdGg9IjE1MCIgcj0iMTUiIGN5PSI3NjkiIGN4PSI3NSI+PC9jaXJjbGU+PHRleHQgc3R5bGU9InRleHQtYW5jaG9yOiBtaWRkbGU7IGZvbnQtc2l6ZTogMTZweDsgZm9udC13ZWlnaHQ6IDQwMDsiIGNsYXNzPSJhY3RvciIgYWxpZ25tZW50LWJhc2VsaW5lPSJjZW50cmFsIiBkb21pbmFudC1iYXNlbGluZT0iY2VudHJhbCIgeT0iODI2LjUiIHg9Ijc1Ij48dHNwYW4gZHk9IjAiIHg9Ijc1Ij5Db25zdW1lcjwvdHNwYW4+PC90ZXh0PjwvZz48Zz48cmVjdCBjbGFzcz0iYWN0b3IiIHJ5PSIzIiByeD0iMyIgaGVpZ2h0PSI2NSIgd2lkdGg9IjE2MyIgc3Ryb2tlPSIjNjY2IiBmaWxsPSIjZWFlYWVhIiB5PSI3NTkiIHg9IjIzOC41Ij48L3JlY3Q+PHRleHQgc3R5bGU9InRleHQtYW5jaG9yOiBtaWRkbGU7IGZvbnQtc2l6ZTogMTZweDsgZm9udC13ZWlnaHQ6IDQwMDsiIGNsYXNzPSJhY3RvciIgYWxpZ25tZW50LWJhc2VsaW5lPSJjZW50cmFsIiBkb21pbmFudC1iYXNlbGluZT0iY2VudHJhbCIgeT0iNzkxLjUiIHg9IjMyMCI+PHRzcGFuIGR5PSIwIiB4PSIzMjAiPkNvbnN1bWVyIEludGVyZmFjZTwvdHNwYW4+PC90ZXh0PjwvZz48Zz48cmVjdCBjbGFzcz0iYWN0b3IiIHJ5PSIzIiByeD0iMyIgaGVpZ2h0PSI2NSIgd2lkdGg9IjE4NCIgc3Ryb2tlPSIjNjY2IiBmaWxsPSIjZWFlYWVhIiB5PSI3NTkiIHg9IjU4OSI+PC9yZWN0Pjx0ZXh0IHN0eWxlPSJ0ZXh0LWFuY2hvcjogbWlkZGxlOyBmb250LXNpemU6IDE2cHg7IGZvbnQtd2VpZ2h0OiA0MDA7IiBjbGFzcz0iYWN0b3IiIGFsaWdubWVudC1iYXNlbGluZT0iY2VudHJhbCIgZG9taW5hbnQtYmFzZWxpbmU9ImNlbnRyYWwiIHk9Ijc5MS41IiB4PSI2ODEiPjx0c3BhbiBkeT0iMCIgeD0iNjgxIj5TdXJ2ZXkgVGVtcGxhdGUgU3RvcmU8L3RzcGFuPjwvdGV4dD48L2c+PGc+PHJlY3QgY2xhc3M9ImFjdG9yIiByeT0iMyIgcng9IjMiIGhlaWdodD0iNjUiIHdpZHRoPSIxNjAiIHN0cm9rZT0iIzY2NiIgZmlsbD0iI2VhZWFlYSIgeT0iNzU5IiB4PSI4MjMiPjwvcmVjdD48dGV4dCBzdHlsZT0idGV4dC1hbmNob3I6IG1pZGRsZTsgZm9udC1zaXplOiAxNnB4OyBmb250LXdlaWdodDogNDAwOyIgY2xhc3M9ImFjdG9yIiBhbGlnbm1lbnQtYmFzZWxpbmU9ImNlbnRyYWwiIGRvbWluYW50LWJhc2VsaW5lPSJjZW50cmFsIiB5PSI3OTEuNSIgeD0iOTAzIj48dHNwYW4gZHk9IjAiIHg9IjkwMyI+U3VydmV5IERhdGEgUXVldWU8L3RzcGFuPjwvdGV4dD48L2c+PGc+PHJlY3QgY2xhc3M9ImFjdG9yIiByeT0iMyIgcng9IjMiIGhlaWdodD0iNjUiIHdpZHRoPSIxNTEiIHN0cm9rZT0iIzY2NiIgZmlsbD0iI2VhZWFlYSIgeT0iNzU5IiB4PSIxMjc0LjUiPjwvcmVjdD48dGV4dCBzdHlsZT0idGV4dC1hbmNob3I6IG1pZGRsZTsgZm9udC1zaXplOiAxNnB4OyBmb250LXdlaWdodDogNDAwOyIgY2xhc3M9ImFjdG9yIiBhbGlnbm1lbnQtYmFzZWxpbmU9ImNlbnRyYWwiIGRvbWluYW50LWJhc2VsaW5lPSJjZW50cmFsIiB5PSI3OTEuNSIgeD0iMTM1MCI+PHRzcGFuIGR5PSIwIiB4PSIxMzUwIj5TdXJ2ZXkgRGF0YSBTdG9yZTwvdHNwYW4+PC90ZXh0PjwvZz48L3N2Zz4=;" parent="1" vertex="1">
                        <mxGeometry x="-563" y="-222" width="1525.5" height="845" as="geometry"/>
                    </mxCell>
                </UserObject>
            </root>
        </mxGraphModel>
    </diagram>
</mxfile>